<?xml version="1.0" standalone="no"?>
<!DOCTYPE svg PUBLIC "-//W3C//DTD SVG 20010904//EN"
 "http://www.w3.org/TR/2001/REC-SVG-20010904/DTD/svg10.dtd">
<svg version="1.0" xmlns="http://www.w3.org/2000/svg"
 width="2188.000000pt" height="1853.000000pt" viewBox="0 0 2188.000000 1853.000000"
 preserveAspectRatio="xMidYMid meet">

<g transform="translate(0.000000,1853.000000) scale(0.100000,-0.100000)"
fill="#000000" stroke="none">
<path d="M10559 15566 c-2 -2 -62 -6 -132 -10 -440 -22 -962 -142 -1382 -318
-1081 -452 -1898 -1327 -2264 -2424 -247 -743 -275 -1561 -79 -2329 144 -566
403 -1078 776 -1535 163 -199 448 -471 667 -637 875 -661 2046 -946 3210 -782
1279 181 2374 915 2994 2006 628 1107 689 2528 157 3694 -131 287 -310 578
-508 827 -124 156 -444 477 -593 596 -468 372 -992 632 -1565 776 -282 71
-539 110 -845 130 -156 10 -427 14 -436 6z m14 -1943 c-7 -2 -21 -2 -30 0 -10
3 -4 5 12 5 17 0 24 -2 18 -5z m-110 -10 c-7 -2 -21 -2 -30 0 -10 3 -4 5 12 5
17 0 24 -2 18 -5z m-70 -10 c-7 -2 -19 -2 -25 0 -7 3 -2 5 12 5 14 0 19 -2 13
-5z m-60 -10 c-7 -2 -19 -2 -25 0 -7 3 -2 5 12 5 14 0 19 -2 13 -5z m-50 -10
c-7 -2 -19 -2 -25 0 -7 3 -2 5 12 5 14 0 19 -2 13 -5z m-46 -9 c-3 -3 -12 -4
-19 -1 -8 3 -5 6 6 6 11 1 17 -2 13 -5z m-40 -10 c-3 -3 -12 -4 -19 -1 -8 3
-5 6 6 6 11 1 17 -2 13 -5z m-70 -20 c-3 -3 -12 -4 -19 -1 -8 3 -5 6 6 6 11 1
17 -2 13 -5z m-107 -33 c-8 -5 -26 -11 -40 -15 -21 -5 -20 -3 5 9 32 15 60 20
35 6z m-1010 -901 c-14 -27 -37 -42 -37 -25 0 7 5 13 11 12 6 -1 11 5 10 14
-1 9 5 16 12 16 9 0 10 -5 4 -17z m26 -15 c-1 -8 -5 -17 -8 -21 -5 -4 -4 16 1
34 3 9 9 -1 7 -13z m3429 -26 c-4 -5 -1 -9 5 -9 6 0 8 -4 5 -10 -3 -5 -2 -10
4 -10 6 0 15 -10 22 -21 7 -13 7 -19 1 -15 -6 3 -14 1 -18 -5 -4 -8 -3 -9 4
-5 14 8 54 -53 47 -72 -3 -7 -1 -11 4 -8 9 6 55 -109 90 -224 61 -199 99 -449
101 -665 2 -254 -52 -574 -137 -807 -43 -120 -148 -328 -219 -433 -325 -484
-798 -773 -1386 -849 -140 -18 -441 -14 -579 8 -687 111 -1221 528 -1516 1186
-54 120 -134 382 -147 485 -29 221 -36 298 -36 415 0 296 53 579 162 858 35
91 42 102 62 98 18 -3 22 1 22 19 0 13 -4 21 -8 19 -5 -3 -5 -11 -2 -17 5 -9
4 -9 -5 -1 -28 25 26 70 67 56 7 -2 9 -9 6 -15 -5 -8 -2 -8 7 1 10 9 363 12
1694 12 1331 0 1684 -3 1694 -12 11 -10 13 -10 7 0 -10 17 4 15 28 -5 14 -12
17 -13 10 -3 -9 13 -10 24 -5 46 0 3 6 2 11 -1 6 -4 8 -11 5 -16z"/>
<path d="M8401 6639 c-267 -52 -501 -231 -623 -474 -56 -111 -80 -211 -85
-355 -4 -97 -1 -155 10 -205 74 -349 343 -618 689 -689 69 -14 311 -16 2328
-16 2017 0 2259 2 2328 16 348 72 616 341 689 692 24 117 14 310 -22 422 -46
143 -108 248 -206 351 -102 108 -223 183 -379 235 l-85 29 -2300 1 c-1282 1
-2320 -2 -2344 -7z"/>
</g>
</svg>
