<?xml version="1.0" standalone="no"?>
<!DOCTYPE svg PUBLIC "-//W3C//DTD SVG 20010904//EN"
 "http://www.w3.org/TR/2001/REC-SVG-20010904/DTD/svg10.dtd">
<svg version="1.0" xmlns="http://www.w3.org/2000/svg"
 width="190.000000pt" height="190.000000pt" viewBox="0 0 190.000000 190.000000"
 preserveAspectRatio="xMidYMid meet">

<g transform="translate(0.000000,190.000000) scale(0.100000,-0.100000)"
fill="#000000" stroke="none">
<path d="M687 1843 c-4 -3 -7 -14 -7 -22 0 -9 -19 -39 -41 -66 -45 -54 -69
-101 -69 -136 0 -31 46 -106 70 -114 43 -14 54 29 20 72 -29 37 -25 63 19 125
46 64 57 98 41 127 -11 22 -22 26 -33 14z"/>
<path d="M897 1808 c-8 -18 -31 -53 -51 -76 -45 -55 -48 -104 -10 -186 21 -47
30 -57 47 -54 30 4 33 46 8 97 -28 54 -27 69 14 120 38 47 47 99 20 121 -11
10 -17 6 -28 -22z"/>
<path d="M545 1460 c-89 -5 -132 -12 -167 -27 -81 -37 -78 -16 -85 -583 -7
-563 -8 -556 67 -624 71 -64 201 -85 520 -86 195 0 270 11 331 46 39 23 89 93
98 136 5 26 14 33 61 47 165 52 251 146 287 315 17 82 11 168 -18 261 -40 126
-133 204 -282 234 l-55 12 -7 87 c-8 99 -19 122 -70 146 -79 38 -374 53 -680
36z m464 -56 c75 -9 140 -20 144 -24 11 -9 -89 -93 -105 -88 -6 2 5 17 25 32
20 16 37 33 37 38 0 5 -22 -9 -48 -31 -27 -23 -57 -41 -67 -41 -15 0 -11 7 18
31 21 17 36 34 33 36 -3 3 -24 -10 -48 -29 -38 -31 -50 -35 -106 -36 -54 0
-62 1 -51 14 7 8 7 14 1 14 -5 0 -12 -7 -16 -15 -3 -9 -18 -15 -37 -15 l-32 0
19 22 19 22 -32 -22 c-17 -12 -41 -22 -54 -22 l-22 0 24 26 c21 24 22 26 3 16
-11 -6 -26 -18 -34 -26 -14 -18 -40 -22 -40 -7 0 6 10 17 22 25 12 9 18 16 13
16 -6 0 -21 -9 -35 -20 -14 -11 -34 -20 -44 -20 -17 0 -16 4 10 32 l29 32 -41
-32 c-39 -30 -74 -42 -74 -25 0 4 12 20 28 37 21 23 17 22 -16 -7 -23 -20 -52
-37 -64 -37 -20 0 -17 5 22 47 l45 46 -51 -41 c-68 -57 -106 -58 -46 -1 58 54
53 60 -8 8 -28 -23 -52 -40 -55 -37 -3 3 1 11 10 18 8 7 15 17 15 23 0 5 -10
2 -21 -9 -22 -19 -22 -19 -8 3 7 13 20 25 27 28 7 2 10 0 7 -5 -10 -16 7 -12
27 7 11 10 40 20 66 24 93 13 375 9 511 -7z m171 -74 c-18 -19 -38 -30 -55
-30 l-26 0 38 38 c27 27 43 35 55 30 14 -7 13 -12 -12 -38z m40 1 c0 -5 -7
-11 -15 -15 -15 -5 -20 5 -8 17 9 10 23 9 23 -2z m-745 -92 c44 -6 204 -11
356 -12 l276 -2 -23 -31 c-38 -49 -28 -53 14 -6 27 32 47 44 75 49 l38 6 -71
-94 c-38 -52 -70 -98 -69 -104 0 -13 37 32 104 130 l55 79 0 -48 c0 -43 -7
-59 -67 -147 -36 -54 -64 -101 -62 -104 3 -2 29 32 59 76 37 54 56 75 62 67
16 -26 7 -47 -58 -132 -37 -48 -64 -89 -61 -92 5 -6 94 108 104 134 14 35 21
0 22 -103 l0 -115 -74 -103 c-41 -57 -75 -108 -75 -113 1 -11 27 21 93 115
l52 75 3 -37 c3 -30 -5 -47 -40 -94 -73 -100 -138 -196 -138 -206 0 -6 39 45
88 112 l87 122 3 -46 c3 -46 0 -51 -99 -181 -56 -74 -100 -136 -98 -138 3 -4
96 112 183 229 14 19 15 16 16 -36 0 -54 -3 -60 -66 -144 -36 -48 -63 -89 -60
-92 2 -3 26 23 53 58 26 34 56 72 65 83 l17 21 1 -24 c0 -13 -10 -38 -23 -55
-37 -50 -41 -64 -8 -28 33 35 40 28 16 -17 -9 -18 -33 -37 -67 -52 -52 -23
-59 -24 -318 -23 -344 1 -418 18 -462 104 -16 30 -17 78 -16 487 1 411 2 453
17 448 8 -3 52 -11 96 -16z m865 -117 c0 -4 -9 -13 -20 -20 -22 -13 -27 -3 -8
16 14 14 28 16 28 4z m79 -27 c65 -32 109 -78 140 -145 23 -49 26 -67 26 -170
0 -103 -3 -121 -26 -170 -30 -63 -97 -133 -143 -150 -17 -6 -45 -18 -63 -25
-27 -12 -32 -12 -37 2 -4 10 4 28 21 47 l28 30 -29 -18 c-58 -37 -19 6 53 56
53 38 81 66 98 98 13 25 31 51 40 58 15 11 15 12 -2 12 -18 0 -18 1 1 16 10 8
13 13 7 9 -7 -3 -13 -2 -13 2 0 5 6 15 13 22 10 10 9 11 -5 6 -23 -9 -23 3 -1
27 16 18 16 18 0 12 -22 -8 -22 5 1 23 16 14 16 14 -2 9 -16 -6 -17 -4 -6 9
11 13 10 14 -6 9 -16 -6 -15 -3 5 19 27 30 19 37 -11 10 -17 -15 -18 -15 -18
1 0 9 7 19 15 22 8 4 15 11 15 17 0 7 -4 7 -12 -1 -7 -7 -19 -12 -27 -12 -11
0 -10 5 5 21 19 22 19 22 -3 10 -22 -11 -34 1 -13 14 6 3 10 11 10 18 0 8 -3
8 -12 -1 -7 -7 -19 -12 -27 -12 -12 0 -12 3 -3 12 17 17 15 33 -3 18 -21 -17
-31 -5 -14 16 13 16 12 16 -8 6 -35 -19 -48 -14 -27 10 l19 22 -28 -18 c-38
-23 -46 -13 -16 21 l24 27 -34 -27 c-43 -36 -53 -26 -15 15 l29 31 -35 -23
-35 -23 29 31 c17 18 34 32 38 32 5 0 30 -11 57 -25z m-62 -134 c77 -56 112
-180 75 -264 -20 -45 -89 -107 -119 -107 -10 0 -13 39 -13 200 0 110 4 200 8
200 5 0 27 -13 49 -29z"/>
<path d="M890 1315 c-8 -9 -8 -15 -2 -15 12 0 26 19 19 26 -2 2 -10 -2 -17
-11z"/>
<path d="M940 1315 c-7 -8 -8 -15 -2 -15 5 0 15 7 22 15 7 8 8 15 2 15 -5 0
-15 -7 -22 -15z"/>
<path d="M847 1040 c-14 -16 -28 -44 -32 -61 -4 -18 -19 -60 -34 -93 -15 -34
-38 -91 -51 -128 -13 -38 -27 -68 -32 -68 -4 0 -8 4 -8 9 0 4 -14 25 -30 46
l-30 38 40 43 c45 49 52 90 20 119 -17 15 -24 16 -50 5 -42 -17 -107 -70 -131
-106 -38 -58 -18 -136 53 -200 33 -30 46 -35 74 -32 33 4 34 3 34 -30 0 -51
15 -72 54 -72 48 0 69 29 116 160 23 63 48 135 57 159 14 38 17 41 26 25 5
-11 24 -34 41 -52 26 -28 29 -35 18 -50 -58 -81 -65 -109 -32 -142 11 -11 33
-20 50 -20 54 0 140 106 140 173 0 13 18 50 41 81 23 32 39 59 36 62 -3 3 -23
-21 -46 -53 -22 -32 -41 -53 -41 -47 0 35 -145 142 -175 130 -11 -4 -12 7 -8
49 7 63 -5 85 -47 85 -19 0 -37 -10 -53 -30z m35 -62 c-7 -7 -12 -8 -12 -2 0
14 12 26 19 19 2 -3 -1 -11 -7 -17z m-316 -193 c-3 -23 -12 -26 -13 -5 -1 11
2 20 7 20 4 0 7 -7 6 -15z m509 6 c3 -5 1 -12 -5 -16 -5 -3 -10 1 -10 9 0 18
6 21 15 7z m-14 -64 c-13 -12 -20 -15 -16 -7 14 26 28 41 33 35 3 -3 -5 -16
-17 -28z m-310 -110 c-10 -9 -11 -8 -5 6 3 10 9 15 12 12 3 -3 0 -11 -7 -18z"/>
<path d="M1330 455 c-11 -13 -10 -14 4 -9 9 3 16 10 16 15 0 13 -6 11 -20 -6z"/>
</g>
</svg>
