<svg id="svg" version="1.1" xmlns="http://www.w3.org/2000/svg" xmlns:xlink="http://www.w3.org/1999/xlink" width="400" height="381.3544415127529" viewBox="0, 0, 400,381.3544415127529"><g id="svgg"><path id="path0" d="M256.816 57.583 C 221.116 61.260,199.818 78.812,190.512 112.225 C 189.103 117.281,186.104 132.217,186.104 134.173 C 186.104 134.292,198.275 134.389,213.150 134.389 L 240.196 134.389 241.487 130.651 C 246.250 116.864,254.026 109.952,267.174 107.820 C 269.867 107.383,277.916 107.303,319.090 107.301 L 367.819 107.300 371.630 82.938 C 373.727 69.538,375.516 58.298,375.607 57.960 C 375.760 57.392,262.165 57.032,256.816 57.583 M176.088 202.023 C 175.990 202.458,174.872 209.701,173.605 218.118 C 170.221 240.584,161.178 298.034,160.569 300.933 C 157.297 316.523,150.057 325.976,138.610 329.603 C 132.836 331.432,133.976 331.398,78.406 331.398 C 49.988 331.398,26.737 331.466,26.737 331.548 C 26.737 331.630,24.996 342.751,22.867 356.262 C 20.739 369.773,18.998 380.945,18.998 381.091 C 18.997 381.638,141.249 381.401,145.729 380.846 C 184.029 376.095,204.899 355.243,212.298 314.336 C 212.788 311.627,216.990 285.506,221.636 256.288 C 226.282 227.071,230.174 202.731,230.285 202.199 L 230.487 201.231 203.377 201.231 L 176.267 201.231 176.088 202.023 " stroke="none" fill="#f46424" fill-rule="evenodd"></path><path id="path1" d="M137.555 0.242 C 99.423 4.249,77.758 24.337,69.690 63.169 C 68.732 67.785,28.496 319.282,28.496 320.660 C 28.496 321.136,31.545 321.196,55.546 321.196 L 82.595 321.196 82.806 320.053 C 82.922 319.424,87.447 291.047,92.861 256.992 C 98.276 222.938,102.797 194.560,102.908 193.931 L 103.110 192.788 167.407 192.788 L 231.704 192.788 234.087 177.573 C 235.397 169.204,237.145 158.083,237.970 152.858 C 238.795 147.634,239.406 143.241,239.328 143.096 C 239.249 142.951,210.302 142.832,175.001 142.832 C 127.713 142.832,110.818 142.728,110.818 142.436 C 110.818 140.919,120.507 80.761,121.179 78.104 C 125.427 61.317,133.682 52.792,147.933 50.474 C 150.626 50.036,160.266 49.959,212.401 49.957 C 256.527 49.956,273.703 49.848,273.703 49.571 C 273.703 49.044,281.033 1.780,281.268 0.792 L 281.456 0.000 210.121 0.056 C 170.887 0.087,138.232 0.171,137.555 0.242 " stroke="none" fill="#14645c" fill-rule="evenodd"></path><path id="path2" d="" stroke="none" fill="#f86840" fill-rule="evenodd"></path><path id="path3" d="" stroke="none" fill="#506840" fill-rule="evenodd"></path><path id="path4" d="M131.024 58.487 L 129.991 59.631 131.135 58.597 C 132.200 57.634,132.440 57.344,132.168 57.344 C 132.107 57.344,131.593 57.858,131.024 58.487 " stroke="none" fill="#146860" fill-rule="evenodd"></path></g></svg>