<?xml version="1.0" standalone="no"?>
<!DOCTYPE svg PUBLIC "-//W3C//DTD SVG 20010904//EN"
 "http://www.w3.org/TR/2001/REC-SVG-20010904/DTD/svg10.dtd">
<svg version="1.0" xmlns="http://www.w3.org/2000/svg"
 width="1500.000000pt" height="360.000000pt" viewBox="0 0 1500.000000 360.000000"
 preserveAspectRatio="xMidYMid meet">

<g transform="translate(0.000000,360.000000) scale(0.100000,-0.100000)"
fill="#000000" stroke="none">
<path d="M770 2987 c-14 -8 -56 -22 -93 -32 -37 -10 -70 -22 -73 -27 -3 -4
-15 -8 -26 -8 -13 0 -60 -38 -124 -102 l-104 -102 0 -92 c0 -86 2 -95 39 -167
21 -42 37 -77 35 -79 -2 -2 25 -32 59 -65 67 -67 195 -140 282 -162 27 -7 54
-16 60 -21 5 -4 39 -16 75 -25 36 -9 70 -20 75 -25 6 -5 39 -16 75 -25 36 -9
70 -20 75 -25 6 -4 30 -13 55 -20 77 -19 211 -92 270 -147 40 -37 69 -76 98
-135 l42 -83 0 -125 0 -125 -92 -92 c-59 -58 -104 -94 -123 -99 -16 -4 -34
-10 -40 -14 -5 -4 -39 -16 -75 -25 -36 -10 -69 -22 -75 -26 -12 -12 -368 -12
-380 0 -6 4 -38 16 -72 25 -34 9 -75 23 -90 31 -15 8 -42 18 -60 21 -22 4 -56
31 -117 93 -72 74 -87 85 -99 74 -11 -12 0 -26 72 -96 96 -92 113 -103 191
-128 30 -9 81 -27 112 -38 51 -19 80 -21 244 -21 141 0 199 4 242 16 32 9 62
20 67 24 6 3 37 15 70 25 53 15 71 28 163 118 l102 102 0 135 0 135 -48 95
c-62 124 -119 180 -243 242 -52 26 -121 54 -154 64 -33 9 -64 20 -70 24 -5 4
-39 15 -75 25 -36 9 -69 20 -75 25 -5 4 -39 15 -75 25 -36 9 -69 20 -75 25 -5
4 -32 13 -60 20 -88 24 -207 93 -261 151 -17 19 -48 67 -68 107 -33 67 -36 79
-36 161 l0 88 92 89 c82 78 100 91 148 103 30 7 69 19 85 26 71 31 106 35 273
35 161 0 224 -7 277 -31 11 -5 48 -17 81 -27 55 -15 72 -27 157 -109 81 -78
98 -89 108 -77 10 13 -2 30 -77 105 -49 49 -95 89 -104 89 -8 0 -28 7 -44 15
-16 8 -54 22 -86 30 -32 8 -70 22 -86 30 -39 20 -406 22 -444 2z"/>
<path d="M2990 2980 c0 -20 7 -20 300 -20 l300 0 0 -921 c0 -871 1 -920 18
-917 16 3 17 56 20 921 l2 917 300 0 c293 0 300 0 300 20 0 20 -7 20 -620 20
-613 0 -620 0 -620 -20z"/>
<path d="M5770 2060 c0 -829 2 -940 15 -940 13 0 15 59 15 475 l0 475 294 0
c162 0 301 -3 310 -6 9 -3 16 -11 16 -17 0 -12 12 -31 115 -185 30 -45 55 -86
55 -91 0 -4 13 -25 30 -47 16 -21 30 -44 30 -50 0 -7 7 -14 15 -18 8 -3 15
-11 15 -19 0 -7 12 -29 26 -48 14 -19 30 -44 35 -56 5 -13 13 -23 19 -23 5 0
10 -6 10 -13 0 -8 14 -33 30 -55 17 -23 30 -45 30 -48 0 -4 25 -42 55 -85 30
-43 55 -81 55 -83 0 -3 14 -25 30 -49 17 -25 30 -50 30 -56 0 -16 15 -14 30 4
10 12 8 21 -14 49 -14 19 -30 46 -36 60 -5 14 -14 26 -20 26 -5 0 -10 6 -10
13 0 6 -14 30 -30 51 -17 22 -30 44 -30 49 0 5 -23 40 -51 79 -27 38 -53 77
-56 86 -4 9 -26 44 -50 77 -24 32 -43 63 -43 68 0 5 -16 31 -35 57 -19 26 -35
53 -35 59 0 6 -4 11 -10 11 -5 0 -10 5 -10 11 0 6 -16 33 -35 59 -19 26 -35
52 -35 57 0 5 -20 37 -45 71 l-45 62 79 0 c44 0 82 4 85 8 3 5 36 17 73 27 37
10 73 21 78 25 6 4 28 13 50 20 62 19 150 110 193 200 33 69 37 84 40 179 l4
105 -48 95 c-46 94 -115 181 -142 181 -8 0 -28 6 -45 14 -18 8 -59 22 -92 32
-33 9 -66 21 -74 28 -10 8 -143 12 -443 14 l-428 3 0 -941z m848 889 c26 -7
52 -15 57 -19 6 -4 40 -15 77 -25 57 -15 74 -25 121 -74 33 -33 70 -86 91
-128 34 -67 36 -77 36 -167 0 -70 -5 -105 -17 -133 -10 -21 -21 -40 -24 -43
-4 -3 -10 -16 -14 -29 -11 -37 -95 -121 -140 -141 -22 -10 -67 -26 -100 -35
-33 -9 -66 -22 -74 -28 -10 -9 -132 -13 -423 -15 l-408 -3 0 426 0 425 386 0
c255 0 401 -4 432 -11z"/>
<path d="M12732 2950 c-77 -40 -108 -64 -192 -150 -55 -56 -100 -107 -100
-113 0 -7 -16 -43 -35 -80 -19 -38 -35 -74 -35 -80 0 -7 -6 -23 -13 -37 -7
-14 -19 -47 -27 -75 -7 -27 -22 -66 -32 -85 -16 -31 -18 -61 -18 -273 0 -187
3 -246 14 -270 8 -18 22 -59 32 -92 9 -33 20 -64 24 -70 4 -5 10 -23 14 -40 4
-16 26 -68 48 -115 34 -70 59 -103 137 -183 84 -86 108 -104 188 -143 l92 -44
188 0 c172 0 191 2 218 20 17 11 50 30 75 41 28 12 84 59 148 122 88 87 109
114 142 186 l40 84 0 148 0 149 -230 0 c-223 0 -230 -1 -230 -20 0 -19 7 -20
215 -20 l215 0 0 -119 c0 -85 -4 -128 -15 -148 -7 -15 -24 -50 -36 -78 -36
-80 -257 -294 -305 -295 -5 0 -20 -9 -34 -20 -23 -18 -42 -20 -195 -20 l-170
0 -90 45 c-75 37 -105 60 -182 137 -106 108 -166 213 -209 363 -9 33 -24 71
-33 85 -13 20 -17 64 -19 264 -3 227 4 318 28 336 4 3 14 37 23 76 18 73 79
203 125 264 28 38 179 190 188 190 3 0 37 16 75 35 l70 35 176 0 177 0 92 -46
c80 -39 106 -59 184 -140 50 -52 89 -98 87 -102 -2 -4 13 -40 33 -80 32 -63
39 -71 50 -57 10 13 5 30 -33 108 -62 125 -180 244 -311 311 l-88 46 -187 -1
-186 -1 -93 -48z"/>
<path d="M8747 2984 c-4 -4 -7 -425 -7 -936 0 -922 0 -928 20 -928 20 0 20 5
18 932 -3 901 -5 958 -31 932z"/>
<path d="M9570 1744 c0 -590 1 -625 18 -622 16 3 17 33 19 443 l2 439 126 126
c71 71 144 135 168 146 135 67 125 64 256 64 132 0 145 -3 261 -65 40 -21 46
-29 58 -77 8 -29 17 -57 22 -63 30 -37 34 -99 40 -550 5 -427 6 -460 23 -463
16 -3 17 23 17 438 0 418 -5 510 -30 545 -4 6 -13 33 -20 60 -21 81 -48 133
-72 141 -13 3 -51 19 -85 35 -60 28 -68 29 -215 29 -142 0 -156 -2 -194 -24
-22 -13 -54 -26 -70 -30 -18 -5 -77 -55 -156 -134 -71 -69 -128 -122 -128
-117 -1 6 -1 76 0 158 1 142 0 147 -20 147 -20 0 -20 -2 -20 -626z"/>
<path d="M2326 1307 c-10 -7 -37 -29 -59 -50 l-40 -39 59 -58 59 -59 56 54 56
54 -56 54 c-48 48 -59 54 -75 44z"/>
<path d="M4805 1268 l-56 -53 60 -59 60 -60 59 56 59 57 -56 55 c-31 31 -60
56 -63 56 -4 0 -32 -24 -63 -52z"/>
<path d="M7785 1268 l-56 -53 60 -59 60 -60 58 56 59 55 -56 57 c-31 31 -59
56 -63 56 -3 0 -31 -24 -62 -52z"/>
<path d="M11396 1269 l-56 -51 60 -60 60 -61 59 56 58 56 -56 55 c-31 31 -59
56 -63 56 -4 0 -31 -23 -62 -51z"/>
<path d="M395 675 c-47 -46 -22 -99 60 -125 54 -17 65 -27 65 -62 0 -23 -6
-32 -32 -42 -35 -15 -82 -5 -92 20 -6 16 -36 19 -36 4 0 -6 11 -22 25 -35 18
-19 35 -25 70 -25 111 0 132 127 27 160 -77 25 -99 52 -66 84 18 19 57 21 84
4 29 -18 39 1 11 23 -33 27 -86 25 -116 -6z"/>
<path d="M2670 690 c0 -5 25 -10 55 -10 l55 0 0 -135 c0 -83 4 -135 10 -135 6
0 10 52 10 135 l0 135 50 0 c28 0 50 5 50 10 0 6 -45 10 -115 10 -70 0 -115
-4 -115 -10z"/>
<path d="M6090 555 c0 -122 2 -145 15 -145 12 0 15 14 15 65 l0 65 45 0 45 0
32 -65 c18 -36 38 -65 45 -65 18 0 17 2 -17 71 l-31 60 21 26 c27 35 26 78 -5
108 -21 22 -33 25 -95 25 l-70 0 0 -145z m148 113 c7 -7 12 -24 12 -38 0 -38
-18 -50 -77 -50 l-53 0 0 50 0 50 53 0 c29 0 58 -5 65 -12z"/>
<path d="M8618 689 c-24 -13 -24 -76 -1 -101 16 -18 16 -20 -15 -44 -26 -21
-32 -32 -32 -64 0 -29 6 -43 22 -54 29 -20 81 -20 119 0 28 14 32 14 48 0 18
-16 41 -21 41 -9 0 4 -10 17 -22 30 -18 20 -20 26 -10 48 16 34 15 45 -2 45
-8 0 -18 -9 -21 -20 -8 -26 -15 -25 -43 11 l-24 29 26 31 c14 17 26 39 26 50
0 45 -68 74 -112 48z m82 -48 c0 -9 -10 -27 -23 -39 l-23 -22 -17 29 c-9 16
-14 36 -11 45 12 32 74 22 74 -13z m-10 -137 c30 -34 30 -37 13 -49 -33 -23
-74 -23 -97 1 -21 20 -20 26 5 58 27 35 41 33 79 -10z"/>
<path d="M9170 555 c0 -90 4 -145 10 -145 6 0 10 55 10 145 0 90 -4 145 -10
145 -6 0 -10 -55 -10 -145z"/>
<path d="M12192 689 c-97 -20 -138 -153 -70 -227 51 -55 137 -64 193 -20 20
15 25 28 25 64 l0 44 -40 0 c-22 0 -40 -4 -40 -10 0 -5 14 -10 30 -10 25 0 30
-4 30 -25 0 -31 -50 -65 -97 -65 -40 0 -99 49 -108 89 -18 84 75 164 155 131
35 -15 60 -4 33 15 -24 16 -70 22 -111 14z"/>
<path d="M725 618 c-38 -20 -55 -51 -55 -101 0 -40 5 -53 29 -78 33 -32 92
-40 126 -16 25 19 4 30 -30 17 -35 -13 -75 5 -93 43 -17 35 -9 69 21 98 18 17
30 20 64 15 49 -6 64 6 27 23 -31 14 -63 14 -89 -1z"/>
<path d="M970 520 c0 -91 3 -110 15 -110 12 0 15 19 15 110 0 91 -3 110 -15
110 -12 0 -15 -19 -15 -110z"/>
<path d="M1140 520 l0 -110 65 0 c37 0 65 4 65 10 0 6 -22 10 -50 10 l-50 0 0
40 0 40 45 0 c25 0 45 5 45 10 0 6 -20 10 -45 10 l-45 0 0 40 0 40 50 0 c28 0
50 5 50 10 0 6 -28 10 -65 10 l-65 0 0 -110z"/>
<path d="M1400 520 c0 -91 3 -110 15 -110 12 0 15 16 15 82 l0 83 51 -83 c70
-113 79 -109 79 28 0 90 -3 110 -15 110 -11 0 -15 -18 -17 -80 l-3 -81 -48 81
c-67 111 -77 107 -77 -30z"/>
<path d="M1755 618 c-38 -20 -55 -51 -55 -101 0 -40 5 -53 29 -78 33 -32 92
-40 126 -16 25 19 4 30 -30 17 -35 -13 -75 5 -93 43 -17 35 -9 69 21 98 18 17
30 20 64 15 49 -6 64 6 27 23 -31 14 -63 14 -89 -1z"/>
<path d="M2000 520 l0 -110 65 0 c37 0 65 4 65 10 0 6 -22 10 -50 10 l-50 0 0
40 0 40 45 0 c25 0 45 5 45 10 0 6 -20 10 -45 10 l-45 0 0 40 0 40 50 0 c28 0
50 5 50 10 0 6 -28 10 -65 10 l-65 0 0 -110z"/>
<path d="M3000 520 l0 -110 65 0 c37 0 65 4 65 10 0 6 -22 10 -50 10 l-50 0 0
40 0 40 45 0 c25 0 45 5 45 10 0 6 -20 10 -45 10 l-45 0 0 40 0 40 50 0 c28 0
50 5 50 10 0 6 -28 10 -65 10 l-65 0 0 -110z"/>
<path d="M3305 618 c-38 -20 -55 -51 -55 -101 0 -40 5 -53 29 -78 33 -32 92
-40 126 -16 25 19 4 30 -30 17 -35 -13 -75 5 -93 43 -17 35 -9 69 21 98 18 17
30 20 64 15 49 -6 64 6 27 23 -31 14 -63 14 -89 -1z"/>
<path d="M3550 520 c0 -91 3 -110 15 -110 11 0 15 12 15 50 l0 50 50 0 50 0 0
-50 c0 -38 4 -50 15 -50 12 0 15 19 15 110 0 91 -3 110 -15 110 -11 0 -15 -12
-15 -50 l0 -50 -50 0 -50 0 0 50 c0 38 -4 50 -15 50 -12 0 -15 -19 -15 -110z"/>
<path d="M3860 520 c0 -91 3 -110 15 -110 12 0 15 16 15 82 l0 83 51 -83 c70
-113 79 -109 79 28 0 90 -3 110 -15 110 -11 0 -15 -18 -17 -80 l-3 -81 -48 81
c-67 111 -77 107 -77 -30z"/>
<path d="M4205 618 c-38 -20 -55 -51 -55 -101 0 -40 5 -53 29 -78 43 -43 101
-41 147 5 24 24 34 43 34 65 0 85 -87 147 -155 109z m100 -43 c51 -50 16 -138
-55 -138 -77 0 -104 101 -41 150 26 20 70 15 96 -12z"/>
<path d="M4490 520 l0 -110 60 0 c33 0 60 4 60 10 0 6 -20 10 -45 10 l-45 0 0
100 c0 82 -3 100 -15 100 -12 0 -15 -19 -15 -110z"/>
<path d="M4775 618 c-38 -20 -55 -51 -55 -101 0 -40 5 -53 29 -78 43 -43 101
-41 147 5 24 24 34 43 34 65 0 85 -87 147 -155 109z m100 -43 c51 -50 16 -138
-55 -138 -77 0 -104 101 -41 150 26 20 70 15 96 -12z"/>
<path d="M5394 566 c39 -54 46 -72 46 -110 0 -25 5 -46 10 -46 6 0 10 19 10
43 0 34 9 56 45 110 36 54 42 67 28 67 -10 0 -31 -21 -48 -45 -16 -25 -32 -45
-35 -45 -3 0 -18 20 -33 45 -19 29 -36 45 -49 45 -17 0 -14 -9 26 -64z"/>
<path d="M6430 520 l0 -110 65 0 c37 0 65 4 65 10 0 6 -22 10 -50 10 l-50 0 0
40 0 40 45 0 c25 0 45 5 45 10 0 6 -20 10 -45 10 l-45 0 0 40 0 40 50 0 c28 0
50 5 50 10 0 6 -28 10 -65 10 l-65 0 0 -110z"/>
<path d="M6712 614 c-34 -24 -27 -73 13 -93 72 -37 76 -41 65 -61 -13 -24 -68
-28 -76 -5 -8 19 -34 20 -34 1 0 -22 40 -46 76 -46 36 0 64 26 64 61 0 35 -12
49 -56 64 -26 9 -40 20 -42 34 -4 26 24 39 50 22 27 -17 43 -3 22 20 -21 23
-52 24 -82 3z"/>
<path d="M6950 520 l0 -110 65 0 c37 0 65 4 65 10 0 6 -22 10 -50 10 l-50 0 0
40 0 40 45 0 c25 0 45 5 45 10 0 6 -20 10 -45 10 l-45 0 0 40 0 40 50 0 c28 0
50 5 50 10 0 6 -28 10 -65 10 l-65 0 0 -110z"/>
<path d="M7218 520 c-28 -85 -33 -110 -22 -110 8 0 17 13 21 30 5 28 8 30 53
30 45 0 48 -2 54 -30 3 -17 12 -30 20 -30 11 0 6 25 -22 110 -26 77 -41 110
-52 110 -11 0 -26 -33 -52 -110z m70 17 c16 -46 16 -47 -18 -47 -16 0 -30 3
-30 7 0 14 24 73 30 73 3 0 11 -15 18 -33z"/>
<path d="M7480 520 c0 -91 3 -110 15 -110 11 0 15 12 15 51 0 47 2 50 23 47
15 -2 30 -19 47 -50 14 -27 32 -48 41 -48 13 0 12 8 -9 50 -22 45 -23 51 -8
65 24 24 20 71 -6 89 -13 9 -43 16 -70 16 l-48 0 0 -110z m107 74 c10 -26 -11
-49 -46 -52 -30 -3 -31 -2 -31 32 0 34 2 36 35 36 24 0 38 -5 42 -16z"/>
<path d="M7805 618 c-38 -20 -55 -51 -55 -101 0 -40 5 -53 29 -78 33 -32 92
-40 126 -16 25 19 4 30 -30 17 -35 -13 -75 5 -93 43 -17 35 -9 69 21 98 18 17
30 20 64 15 49 -6 64 6 27 23 -31 14 -63 14 -89 -1z"/>
<path d="M8050 520 c0 -91 3 -110 15 -110 11 0 15 12 15 50 l0 50 50 0 50 0 0
-50 c0 -38 4 -50 15 -50 12 0 15 19 15 110 0 91 -3 110 -15 110 -11 0 -15 -12
-15 -50 l0 -50 -50 0 -50 0 0 50 c0 38 -4 50 -15 50 -12 0 -15 -19 -15 -110z"/>
<path d="M9350 520 c0 -91 3 -110 15 -110 12 0 15 16 15 82 l0 83 51 -83 c70
-113 79 -109 79 28 0 90 -3 110 -15 110 -11 0 -15 -18 -17 -80 l-3 -81 -48 81
c-67 111 -77 107 -77 -30z"/>
<path d="M9650 520 c0 -91 3 -110 15 -110 12 0 15 16 15 82 l0 83 51 -83 c70
-113 79 -109 79 28 0 90 -3 110 -15 110 -11 0 -15 -18 -17 -80 l-3 -81 -48 81
c-67 111 -77 107 -77 -30z"/>
<path d="M9995 618 c-38 -20 -55 -51 -55 -101 0 -40 5 -53 29 -78 43 -43 101
-41 147 5 24 24 34 43 34 65 0 85 -87 147 -155 109z m100 -43 c51 -50 16 -138
-55 -138 -77 0 -104 101 -41 150 26 20 70 15 96 -12z"/>
<path d="M10288 521 c26 -78 41 -111 52 -111 11 0 26 33 52 111 30 91 34 110
20 107 -10 -2 -25 -31 -41 -81 -14 -42 -28 -77 -31 -77 -3 0 -17 35 -31 77
-16 50 -31 79 -41 81 -14 3 -10 -16 20 -107z"/>
<path d="M10548 520 c-28 -85 -33 -110 -22 -110 8 0 17 13 21 30 5 28 8 30 53
30 45 0 48 -2 54 -30 3 -17 12 -30 20 -30 11 0 6 25 -22 110 -26 77 -41 110
-52 110 -11 0 -26 -33 -52 -110z m70 17 c16 -46 16 -47 -18 -47 -16 0 -30 3
-30 7 0 14 24 73 30 73 3 0 11 -15 18 -33z"/>
<path d="M10770 620 c0 -5 16 -10 35 -10 l35 0 0 -100 c0 -82 3 -100 15 -100
12 0 15 18 15 100 l0 100 30 0 c17 0 30 5 30 10 0 6 -33 10 -80 10 -47 0 -80
-4 -80 -10z"/>
<path d="M11070 520 c0 -91 3 -110 15 -110 12 0 15 19 15 110 0 91 -3 110 -15
110 -12 0 -15 -19 -15 -110z"/>
<path d="M11285 618 c-38 -20 -55 -51 -55 -101 0 -40 5 -53 29 -78 43 -43 101
-41 147 5 24 24 34 43 34 65 0 85 -87 147 -155 109z m100 -43 c51 -50 16 -138
-55 -138 -77 0 -104 101 -41 150 26 20 70 15 96 -12z"/>
<path d="M11560 520 c0 -91 3 -110 15 -110 12 0 15 16 15 82 l0 83 51 -83 c70
-113 79 -109 79 28 0 90 -3 110 -15 110 -11 0 -15 -18 -17 -80 l-3 -81 -48 81
c-67 111 -77 107 -77 -30z"/>
<path d="M12470 520 c0 -91 3 -110 15 -110 11 0 15 12 15 51 0 47 2 50 23 47
15 -2 30 -19 47 -50 14 -27 32 -48 41 -48 13 0 12 8 -9 50 -22 45 -23 51 -8
65 24 24 20 71 -6 89 -13 9 -43 16 -70 16 l-48 0 0 -110z m107 74 c10 -26 -11
-49 -46 -52 -30 -3 -31 -2 -31 32 0 34 2 36 35 36 24 0 38 -5 42 -16z"/>
<path d="M12805 618 c-38 -20 -55 -51 -55 -101 0 -40 5 -53 29 -78 43 -43 101
-41 147 5 24 24 34 43 34 65 0 85 -87 147 -155 109z m100 -43 c51 -50 16 -138
-55 -138 -77 0 -104 101 -41 150 26 20 70 15 96 -12z"/>
<path d="M13090 546 c0 -95 13 -122 67 -132 27 -5 37 -1 63 24 28 29 30 35 30
111 0 65 -3 81 -15 81 -12 0 -15 -15 -15 -78 0 -84 -14 -112 -56 -112 -36 0
-44 20 -44 107 0 67 -3 83 -15 83 -12 0 -15 -16 -15 -84z"/>
<path d="M13390 520 c0 -91 3 -110 15 -110 11 0 15 12 15 50 0 50 0 50 33 50
45 0 77 25 77 60 0 39 -32 60 -92 60 l-48 0 0 -110z m105 50 c0 -33 -2 -35
-37 -38 l-38 -3 0 41 0 41 38 -3 c35 -3 37 -5 37 -38z"/>
<path d="M5079 591 c-56 -56 -36 -147 37 -171 66 -22 124 10 124 67 0 31 -2
33 -35 33 -19 0 -35 -4 -35 -10 0 -5 9 -10 20 -10 26 0 27 -36 1 -50 -44 -23
-100 0 -115 48 -9 28 9 68 40 88 22 15 31 16 56 6 37 -14 59 -4 33 15 -34 24
-93 16 -126 -16z"/>
<path d="M2270 421 c0 -5 6 -11 13 -14 9 -3 9 -8 -2 -21 -8 -9 -11 -20 -7 -23
10 -10 26 17 26 45 0 13 -6 22 -15 22 -8 0 -15 -4 -15 -9z"/>
<path d="M5670 421 c0 -5 6 -11 13 -14 9 -3 9 -8 -2 -21 -8 -9 -11 -20 -7 -23
10 -10 26 17 26 45 0 13 -6 22 -15 22 -8 0 -15 -4 -15 -9z"/>
</g>
</svg>
