<?xml version="1.0" standalone="no"?>
<!DOCTYPE svg PUBLIC "-//W3C//DTD SVG 20010904//EN"
 "http://www.w3.org/TR/2001/REC-SVG-20010904/DTD/svg10.dtd">
<svg version="1.0" xmlns="http://www.w3.org/2000/svg"
 width="127.000000pt" height="66.000000pt" viewBox="0 0 127.000000 66.000000"
 preserveAspectRatio="xMidYMid meet">

<g transform="translate(0.000000,66.000000) scale(0.100000,-0.100000)"
fill="#000000" stroke="none">
<path d="M254 487 c-2 -7 -3 -78 -2 -157 2 -104 6 -145 16 -148 9 -3 12 15 12
67 0 39 3 71 8 71 4 0 39 -31 77 -70 62 -62 95 -84 95 -63 0 4 -35 43 -77 86
l-78 78 73 67 c40 37 72 70 72 75 0 19 -28 2 -94 -59 l-71 -66 -3 66 c-3 61
-15 85 -28 53z"/>
<path d="M557 482 c-19 -21 -22 -54 -6 -83 9 -18 5 -26 -30 -58 -34 -31 -41
-44 -41 -75 0 -55 38 -90 90 -83 22 3 53 15 69 27 l31 21 23 -27 c35 -40 54
-27 22 16 l-25 34 20 21 c11 12 20 24 20 28 0 13 -23 7 -42 -10 -10 -9 -19
-14 -21 -12 -2 2 -15 21 -31 42 l-27 37 25 31 c14 17 26 41 26 53 0 49 -70 75
-103 38z m71 -35 c5 -27 -27 -60 -45 -46 -14 12 -18 51 -6 63 13 13 48 1 51
-17z m-10 -142 c18 -25 32 -48 32 -50 0 -12 -67 -45 -90 -45 -35 0 -50 17 -50
56 0 25 8 39 33 58 17 14 35 26 38 26 3 0 20 -20 37 -45z"/>
<path d="M780 340 c0 -100 4 -160 10 -160 6 0 10 30 10 70 0 39 3 70 8 70 4 0
39 -31 77 -70 40 -40 78 -70 90 -70 15 0 -1 21 -63 83 l-82 82 70 70 c38 38
70 73 70 77 0 22 -32 2 -90 -57 -35 -36 -68 -65 -72 -65 -4 0 -8 29 -8 65 0
37 -4 65 -10 65 -6 0 -10 -60 -10 -160z"/>
</g>
</svg>
