<svg id="svg" version="1.1" xmlns="http://www.w3.org/2000/svg" xmlns:xlink="http://www.w3.org/1999/xlink" width="400" height="248.30142063001853" viewBox="0, 0, 400,248.30142063001853"><g id="svgg"><path id="path0" d="M242.217 28.475 L 231.808 36.894 231.939 96.919 C 232.067 155.809,232.060 156.941,231.600 156.799 C 231.342 156.719,229.907 156.643,228.413 156.629 C 221.578 156.567,199.939 152.577,197.044 150.846 C 196.767 150.680,195.652 150.296,194.565 149.993 C 190.013 148.721,188.910 148.351,184.435 146.591 C 180.104 144.888,170.085 140.154,167.963 138.808 C 167.464 138.492,165.426 137.122,163.434 135.763 C 161.442 134.404,159.460 133.084,159.029 132.831 C 158.598 132.577,157.356 131.638,156.269 130.744 C 143.058 119.884,139.585 112.632,144.050 105.235 L 145.028 103.615 145.028 98.297 C 145.028 92.052,145.186 92.386,142.825 93.667 C 134.524 98.171,131.686 101.788,131.686 107.862 C 131.686 125.640,163.013 147.676,204.324 158.956 C 228.644 165.597,246.910 165.383,260.491 158.299 C 273.105 151.718,269.651 133.011,254.222 124.345 L 252.996 123.657 252.960 88.820 C 252.941 69.660,252.857 46.350,252.775 37.021 L 252.625 20.057 242.217 28.475 M211.797 38.323 L 197.159 50.423 197.159 54.386 C 197.159 56.899,197.248 58.319,197.404 58.266 C 197.539 58.221,204.210 52.796,212.228 46.212 L 226.807 34.239 226.807 30.214 C 226.807 28.000,226.723 26.197,226.621 26.206 C 226.519 26.216,219.849 31.668,211.797 38.323 M145.985 53.402 C 145.937 53.539,145.099 60.650,145.127 60.690 C 145.192 60.783,158.642 68.215,158.980 68.345 C 159.327 68.479,159.363 68.051,159.302 64.457 L 159.234 60.420 152.934 56.996 C 146.369 53.430,146.036 53.257,145.985 53.402 M183.572 61.633 L 174.804 68.898 174.060 68.457 C 173.651 68.215,172.316 67.483,171.093 66.831 C 169.870 66.180,168.397 65.375,167.820 65.042 L 166.770 64.437 166.770 68.601 L 166.770 72.764 170.515 74.842 C 172.575 75.985,174.393 76.920,174.555 76.920 C 174.718 76.920,178.814 73.663,183.658 69.682 L 192.464 62.443 192.464 58.399 C 192.464 56.174,192.437 54.358,192.403 54.361 C 192.369 54.365,188.395 57.637,183.572 61.633 M257.076 132.216 C 261.296 138.449,261.433 144.398,257.472 149.409 C 256.619 150.488,253.620 152.934,253.150 152.934 C 253.065 152.934,252.999 147.180,253.004 140.148 L 253.012 127.363 254.488 128.968 C 255.300 129.852,256.465 131.313,257.076 132.216 M100.913 220.251 C 98.052 221.677,94.855 225.327,92.091 230.323 L 90.576 233.062 90.256 231.167 C 89.709 227.932,87.888 223.679,86.588 222.599 C 86.186 222.266,82.151 223.483,80.254 224.510 C 75.825 226.907,73.659 232.747,76.240 235.328 C 78.081 237.169,79.574 235.184,77.949 233.057 C 76.095 230.628,78.068 227.109,82.213 225.450 L 83.865 224.788 84.330 225.363 C 86.836 228.457,87.749 233.604,86.621 238.271 C 85.211 244.108,84.696 245.210,83.248 245.500 C 82.470 245.655,82.169 245.930,81.936 246.695 C 81.789 247.178,81.893 247.189,86.415 247.155 C 93.363 247.104,92.986 247.165,93.269 246.036 L 93.433 245.381 90.928 245.519 L 88.422 245.657 88.548 245.064 C 91.159 232.779,96.950 223.374,102.274 222.771 C 104.472 222.521,105.326 221.235,104.105 220.014 C 103.557 219.466,102.300 219.560,100.913 220.251 M184.682 229.241 C 184.274 229.492,183.079 230.602,182.026 231.708 C 180.973 232.814,180.115 233.581,180.120 233.413 C 180.125 233.245,180.282 232.467,180.469 231.685 C 180.791 230.335,180.783 230.245,180.310 229.913 C 178.898 228.925,172.157 233.110,172.997 234.455 C 173.411 235.118,173.448 235.108,174.442 234.074 C 175.323 233.157,176.602 232.357,176.826 232.581 C 176.989 232.744,175.733 238.416,174.481 243.175 C 173.379 247.364,173.314 247.066,175.325 247.066 L 176.880 247.066 177.128 246.140 C 177.264 245.630,177.715 243.778,178.131 242.025 C 179.560 235.996,181.205 233.757,185.423 232.104 C 187.328 231.358,187.514 231.191,187.519 230.221 C 187.527 228.851,186.111 228.361,184.682 229.241 M169.864 229.211 C 169.596 229.279,169.262 229.476,169.123 229.649 C 168.973 229.835,168.029 230.015,166.800 230.093 C 160.950 230.461,154.562 238.232,155.244 244.150 C 155.715 248.229,158.454 248.574,162.744 245.094 L 164.277 243.850 163.920 245.026 C 163.133 247.618,164.234 248.234,167.171 246.844 C 168.683 246.129,169.215 245.750,171.058 244.079 L 172.036 243.191 171.480 242.635 C 170.930 242.085,170.921 242.084,170.581 242.570 C 170.219 243.087,168.229 244.348,167.776 244.348 C 167.164 244.348,168.010 239.936,169.866 233.451 C 171.246 228.631,171.246 228.861,169.864 229.211 M290.920 229.210 C 290.649 229.277,290.337 229.487,290.229 229.675 C 290.098 229.901,289.576 230.019,288.697 230.019 C 282.681 230.019,276.432 236.788,276.363 243.378 C 276.313 248.162,279.516 248.809,284.054 244.933 C 284.773 244.319,285.360 243.852,285.359 243.897 C 285.357 243.941,285.190 244.524,284.988 245.191 C 284.533 246.690,284.533 246.697,285.008 247.172 C 285.771 247.935,288.590 247.092,290.444 245.547 C 292.186 244.096,293.131 243.069,292.835 242.950 C 292.665 242.881,292.526 242.667,292.526 242.475 C 292.526 241.965,292.322 242.036,291.357 242.884 C 290.326 243.789,288.899 244.509,288.643 244.254 C 288.275 243.885,291.018 232.352,292.161 229.463 C 292.339 229.013,291.998 228.943,290.920 229.210 M237.474 229.849 C 236.806 230.559,236.804 230.905,237.452 232.407 C 238.557 234.964,237.141 238.442,233.512 242.088 C 230.090 245.525,230.169 245.550,229.746 240.917 C 229.456 237.740,229.458 237.713,230.088 236.138 C 231.472 232.681,231.496 230.759,230.165 229.887 C 228.260 228.639,226.065 233.079,226.065 238.182 L 226.065 239.879 223.904 242.078 C 220.790 245.246,220.777 245.249,220.422 242.915 C 219.725 238.334,221.030 233.085,223.222 231.648 C 224.575 230.762,223.533 229.017,222.142 229.838 C 221.645 230.132,220.886 230.266,219.717 230.266 C 214.482 230.266,210.851 233.290,213.037 235.830 C 214.111 237.079,215.485 236.090,214.885 234.500 C 214.356 233.100,215.384 232.321,218.093 232.068 L 219.742 231.914 218.959 232.752 C 216.463 235.423,215.957 238.871,217.148 245.090 C 217.473 246.788,217.773 248.218,217.813 248.268 C 218.141 248.670,222.648 245.523,225.107 243.173 L 226.250 242.082 226.392 242.906 C 227.091 246.933,227.376 248.301,227.516 248.301 C 227.918 248.301,231.212 246.203,232.839 244.909 C 235.968 242.421,238.860 238.344,239.785 235.115 C 240.877 231.303,239.359 227.843,237.474 229.849 M309.136 229.581 C 308.316 229.977,308.224 230.795,308.821 232.392 C 309.869 235.193,308.566 238.212,304.593 242.187 C 301.425 245.355,301.579 245.321,301.215 242.928 C 300.509 238.292,301.610 233.880,304.028 231.657 C 305.466 230.334,304.648 229.130,302.827 229.891 C 302.334 230.097,301.228 230.266,300.369 230.266 C 295.274 230.266,291.144 234.136,294.142 236.101 C 295.360 236.899,296.256 235.910,295.737 234.339 C 295.313 233.056,296.141 232.384,298.475 232.118 C 299.212 232.034,300.093 231.919,300.432 231.863 C 301.046 231.762,301.046 231.763,300.494 232.039 C 300.188 232.192,299.938 232.394,299.938 232.486 C 299.938 232.579,299.558 233.146,299.094 233.746 C 297.127 236.285,296.876 238.570,297.935 244.293 C 298.765 248.779,298.577 248.509,300.211 247.545 C 304.141 245.228,306.638 242.969,308.850 239.730 C 311.513 235.831,312.316 230.929,310.500 229.657 C 309.877 229.221,309.883 229.221,309.136 229.581 M106.485 229.770 C 98.362 230.939,94.041 245.316,101.210 247.323 C 102.448 247.670,103.891 247.500,105.405 246.830 C 114.109 242.980,115.023 228.541,106.485 229.770 M119.614 229.826 C 118.452 230.135,116.495 231.447,113.901 233.656 C 113.835 233.712,114.052 233.963,114.384 234.213 C 114.983 234.665,114.991 234.663,116.050 233.730 C 118.520 231.556,118.617 232.201,116.805 238.786 C 114.235 248.128,115.884 250.051,122.204 245.085 C 124.108 243.588,124.035 243.591,123.867 245.028 C 123.689 246.551,124.381 247.560,125.603 247.560 C 127.254 247.560,131.918 243.761,131.417 242.825 C 131.087 242.209,130.965 242.242,129.869 243.249 C 126.676 246.181,126.629 245.773,129.104 236.570 C 129.981 233.311,130.698 230.554,130.698 230.444 C 130.698 230.333,129.958 230.276,129.053 230.316 L 127.408 230.389 126.207 234.946 C 124.724 240.573,123.908 242.033,121.267 243.786 C 118.929 245.338,118.733 244.441,120.161 238.747 C 122.300 230.223,122.233 229.129,119.614 229.826 M150.340 229.785 C 146.030 230.403,141.586 237.130,141.573 243.059 C 141.560 248.332,145.614 248.883,151.204 244.370 C 152.224 243.547,153.141 242.872,153.243 242.870 C 153.548 242.863,153.440 242.529,152.936 241.924 L 152.460 241.353 151.147 242.323 C 147.175 245.257,145.151 245.048,145.324 241.723 L 145.398 240.286 148.262 238.869 C 152.694 236.677,154.416 234.857,154.416 232.366 C 154.416 230.380,152.898 229.419,150.340 229.785 M191.106 229.776 C 189.618 230.100,185.026 233.261,185.060 233.939 C 185.110 234.925,185.826 235.029,186.721 234.181 C 187.754 233.202,188.754 232.489,189.092 232.489 C 189.421 232.489,189.145 233.907,187.511 240.608 C 186.703 243.925,186.041 246.735,186.041 246.852 C 186.041 246.970,186.791 247.065,187.708 247.064 L 189.376 247.063 190.426 242.569 C 191.828 236.570,192.919 234.744,195.992 233.257 C 198.293 232.143,198.285 232.074,196.529 238.204 C 194.769 244.346,194.621 245.666,195.566 246.789 C 196.451 247.842,197.295 247.746,199.308 246.366 C 201.692 244.731,202.954 243.287,202.556 242.650 C 202.221 242.113,201.853 241.952,201.853 242.342 C 201.853 242.662,199.135 244.842,198.736 244.842 C 198.044 244.842,198.496 242.570,200.483 236.072 C 202.085 230.828,201.618 228.989,198.883 229.773 C 197.523 230.163,193.108 233.231,192.753 234.033 C 192.381 234.872,192.364 233.859,192.725 232.307 C 193.282 229.914,192.939 229.378,191.106 229.776 M249.290 229.766 C 244.679 230.688,240.429 237.475,240.680 243.517 C 240.899 248.767,245.365 248.730,251.356 243.429 C 252.356 242.544,252.388 242.445,251.888 241.785 C 251.552 241.341,251.499 241.353,250.566 242.093 C 246.694 245.159,244.246 245.061,244.398 241.844 L 244.472 240.272 247.313 238.863 C 251.595 236.741,253.490 234.819,253.490 232.599 C 253.490 230.517,251.672 229.290,249.290 229.766 M271.359 229.786 C 266.400 230.748,265.426 235.391,269.289 239.654 C 271.943 242.584,271.842 244.833,269.021 245.593 C 267.128 246.103,266.090 245.534,266.090 243.986 C 266.090 241.853,263.537 241.239,262.885 243.215 C 261.629 247.023,268.727 248.955,272.378 245.799 C 275.083 243.460,274.872 240.565,271.736 237.024 C 270.091 235.165,269.796 234.606,269.796 233.338 C 269.796 231.272,271.689 230.887,273.366 232.613 C 275.085 234.381,276.775 233.911,276.474 231.748 C 276.277 230.330,273.684 229.335,271.359 229.786 M320.444 229.757 C 316.143 230.571,311.797 237.217,311.798 242.980 C 311.799 247.934,315.580 248.821,320.530 245.027 C 321.460 244.314,322.537 243.496,322.924 243.209 C 323.654 242.668,323.647 242.595,322.769 241.423 C 322.735 241.377,322.080 241.803,321.314 242.369 C 317.469 245.209,315.401 245.028,315.553 241.864 L 315.627 240.311 318.547 238.809 C 322.956 236.540,324.645 234.825,324.645 232.614 C 324.645 230.520,322.853 229.302,320.444 229.757 M107.560 232.490 C 109.578 234.888,108.416 242.956,105.787 244.807 C 102.861 246.867,100.847 243.866,101.525 238.456 C 102.162 233.371,105.514 230.058,107.560 232.490 M150.710 232.242 C 152.065 233.597,150.331 236.117,146.819 237.897 C 145.628 238.500,145.626 238.496,146.167 236.672 C 147.375 232.605,149.247 230.779,150.710 232.242 M249.643 232.136 C 250.756 233.250,249.796 235.330,247.451 236.886 C 244.853 238.611,244.746 238.638,244.954 237.532 C 245.678 233.673,248.236 230.729,249.643 232.136 M320.615 231.942 C 322.368 233.057,320.854 235.782,317.439 237.660 C 315.804 238.559,315.814 238.574,316.519 236.283 C 317.595 232.792,319.228 231.061,320.615 231.942 M166.687 233.089 C 166.612 233.284,166.196 234.812,165.762 236.486 C 164.321 242.046,162.692 244.344,160.189 244.347 C 157.080 244.351,159.184 235.479,162.817 233.265 C 163.882 232.616,166.922 232.478,166.687 233.089 M287.740 233.169 C 287.672 233.406,287.208 235.102,286.709 236.936 C 285.250 242.303,283.733 244.348,281.213 244.348 C 278.012 244.348,280.590 234.670,284.210 233.095 C 285.429 232.565,287.900 232.616,287.740 233.169 " stroke="none" fill="#5b5c5c" fill-rule="evenodd"></path><path id="path1" d="M226.617 70.414 C 226.617 70.889,226.668 71.084,226.730 70.846 C 226.792 70.608,226.792 70.219,226.730 69.981 C 226.668 69.744,226.617 69.938,226.617 70.414 M226.370 154.169 C 226.370 154.645,226.421 154.839,226.483 154.602 C 226.545 154.364,226.545 153.975,226.483 153.737 C 226.421 153.499,226.370 153.694,226.370 154.169 M0.117 196.294 C 0.117 205.534,0.148 209.278,0.185 204.614 C 0.223 199.950,0.223 192.390,0.185 187.814 C 0.148 183.238,0.117 187.054,0.117 196.294 M28.035 196.294 C 28.035 205.534,28.066 209.278,28.104 204.614 C 28.141 199.950,28.141 192.390,28.104 187.814 C 28.066 183.238,28.035 187.054,28.035 196.294 M145.145 196.294 C 145.145 205.534,145.175 209.278,145.213 204.614 C 145.251 199.950,145.251 192.390,145.213 187.814 C 145.175 183.238,145.145 187.054,145.145 196.294 M172.025 180.605 C 172.025 181.217,172.073 181.467,172.132 181.161 C 172.191 180.855,172.191 180.355,172.132 180.049 C 172.073 179.744,172.025 179.994,172.025 180.605 M208.146 196.294 C 208.146 205.534,208.177 209.278,208.215 204.614 C 208.252 199.950,208.252 192.390,208.215 187.814 C 208.177 183.238,208.146 187.054,208.146 196.294 M272.854 182.335 C 272.854 183.897,272.895 184.537,272.944 183.755 C 272.993 182.974,272.993 181.695,272.944 180.914 C 272.895 180.133,272.854 180.772,272.854 182.335 M304.255 196.294 C 304.255 205.534,304.286 209.278,304.324 204.614 C 304.361 199.950,304.361 192.390,304.324 187.814 C 304.286 183.238,304.255 187.054,304.255 196.294 M327.209 182.335 C 327.209 183.897,327.249 184.537,327.298 183.755 C 327.347 182.974,327.347 181.695,327.298 180.914 C 327.249 180.133,327.209 180.772,327.209 182.335 M347.195 180.605 C 347.195 181.217,347.243 181.467,347.302 181.161 C 347.361 180.855,347.361 180.355,347.302 180.049 C 347.243 179.744,347.195 179.994,347.195 180.605 M298.409 183.755 C 298.367 183.857,298.393 185.497,298.467 187.400 L 298.601 190.859 298.652 187.214 C 298.698 183.934,298.645 183.182,298.409 183.755 M259.535 199.012 C 259.535 206.757,259.566 209.890,259.605 205.974 C 259.643 202.057,259.643 195.720,259.605 191.891 C 259.566 188.062,259.535 191.266,259.535 199.012 M22.335 190.735 C 22.335 192.841,22.373 193.703,22.420 192.650 C 22.466 191.597,22.466 189.873,22.420 188.820 C 22.373 187.767,22.335 188.629,22.335 190.735 M73.466 190.117 C 73.466 191.340,73.507 191.872,73.559 191.298 C 73.611 190.725,73.612 189.724,73.561 189.075 C 73.509 188.425,73.467 188.894,73.466 190.117 M162.657 193.823 C 162.656 195.046,162.698 195.578,162.750 195.004 C 162.802 194.431,162.802 193.430,162.751 192.781 C 162.700 192.131,162.658 192.600,162.657 193.823 M337.827 193.823 C 337.826 195.046,337.868 195.578,337.920 195.004 C 337.972 194.431,337.972 193.430,337.921 192.781 C 337.870 192.131,337.828 192.600,337.827 193.823 M73.466 198.518 C 73.466 199.741,73.507 200.272,73.559 199.699 C 73.611 199.125,73.612 198.125,73.561 197.475 C 73.509 196.825,73.467 197.295,73.466 198.518 M90.500 202.594 C 90.500 203.342,90.547 203.647,90.603 203.274 C 90.660 202.900,90.660 202.288,90.603 201.915 C 90.547 201.541,90.500 201.847,90.500 202.594 M64.078 204.447 C 64.077 205.670,64.119 206.202,64.171 205.628 C 64.222 205.055,64.223 204.054,64.172 203.405 C 64.121 202.755,64.079 203.224,64.078 204.447 M327.457 210.130 C 327.457 211.760,327.497 212.395,327.546 211.541 C 327.594 210.686,327.594 209.352,327.545 208.576 C 327.496 207.800,327.456 208.499,327.457 210.130 M103.468 208.407 C 103.392 208.675,103.254 209.117,103.162 209.389 C 103.070 209.660,103.176 209.570,103.397 209.188 C 103.618 208.807,103.756 208.365,103.703 208.207 C 103.650 208.048,103.545 208.138,103.468 208.407 M248.589 208.905 C 248.175 209.813,248.254 210.007,248.701 209.181 C 248.910 208.796,249.035 208.434,248.979 208.377 C 248.922 208.321,248.747 208.558,248.589 208.905 M6.009 211.489 C 6.009 212.372,6.054 212.733,6.108 212.292 C 6.163 211.850,6.163 211.127,6.108 210.686 C 6.054 210.244,6.009 210.605,6.009 211.489 M64.057 211.983 C 64.057 212.594,64.106 212.844,64.164 212.539 C 64.223 212.233,64.223 211.733,64.164 211.427 C 64.106 211.121,64.057 211.371,64.057 211.983 " stroke="none" fill="#04a4e4" fill-rule="evenodd"></path><path id="path2" d="M259.081 0.173 C 258.989 0.266,257.864 0.323,256.582 0.301 C 255.300 0.279,254.195 0.353,254.125 0.466 C 254.055 0.579,252.985 0.626,251.746 0.570 C 250.507 0.515,249.364 0.567,249.206 0.687 C 249.048 0.806,248.502 0.879,247.993 0.848 C 247.483 0.817,247.066 0.892,247.066 1.014 C 247.066 1.136,247.233 1.235,247.437 1.235 C 247.641 1.235,247.807 1.326,247.807 1.436 C 247.807 1.723,250.044 3.349,250.326 3.268 C 250.456 3.230,250.502 3.296,250.430 3.414 C 250.287 3.644,251.762 4.849,252.069 4.752 C 252.509 4.614,252.201 5.167,251.629 5.541 C 251.282 5.769,251.079 6.074,251.173 6.226 C 251.276 6.392,251.230 6.431,251.057 6.324 C 250.900 6.227,250.772 6.265,250.772 6.409 C 250.772 6.553,250.615 6.671,250.423 6.671 C 250.232 6.671,249.787 7.013,249.435 7.431 C 249.083 7.849,248.796 8.115,248.796 8.023 C 248.796 7.931,248.379 8.222,247.869 8.671 C 247.359 9.119,246.973 9.584,247.010 9.703 C 247.048 9.822,246.964 9.849,246.825 9.763 C 246.686 9.677,246.572 9.724,246.572 9.868 C 246.572 10.012,246.415 10.130,246.223 10.130 C 246.032 10.130,245.587 10.472,245.235 10.890 C 244.883 11.308,244.595 11.574,244.595 11.482 C 244.595 11.389,244.179 11.681,243.669 12.130 C 243.159 12.578,242.773 13.043,242.810 13.162 C 242.848 13.281,242.764 13.308,242.625 13.222 C 242.486 13.136,242.372 13.183,242.372 13.327 C 242.372 13.471,242.245 13.589,242.090 13.589 C 241.935 13.589,241.490 13.921,241.101 14.328 C 240.713 14.734,240.395 15.000,240.395 14.920 C 240.395 14.839,239.978 15.140,239.469 15.589 C 238.959 16.037,238.573 16.502,238.610 16.621 C 238.648 16.740,238.577 16.775,238.453 16.698 C 238.329 16.621,237.773 16.987,237.218 17.510 C 236.662 18.032,236.163 18.416,236.109 18.361 C 236.054 18.307,235.702 18.628,235.325 19.075 C 234.949 19.523,234.574 19.889,234.491 19.889 C 234.409 19.889,234.373 19.980,234.410 20.092 C 234.447 20.204,234.377 20.233,234.253 20.157 C 234.129 20.080,233.565 20.452,233.001 20.984 L 231.975 21.950 232.007 25.914 L 232.039 29.877 232.749 29.353 C 233.139 29.064,233.390 28.717,233.306 28.582 C 233.222 28.447,233.269 28.407,233.409 28.494 C 233.550 28.581,234.179 28.172,234.808 27.587 C 235.437 27.001,235.999 26.569,236.056 26.627 C 236.114 26.684,236.307 26.498,236.485 26.213 C 236.663 25.928,236.906 25.695,237.025 25.695 C 237.348 25.695,239.046 24.146,238.975 23.916 C 238.941 23.807,238.996 23.742,239.098 23.771 C 239.449 23.870,240.409 23.199,240.260 22.959 C 240.178 22.826,240.214 22.748,240.340 22.786 C 240.697 22.892,243.348 20.687,243.184 20.421 C 243.103 20.290,243.165 20.262,243.322 20.359 C 243.479 20.456,243.607 20.431,243.607 20.303 C 243.607 20.175,243.841 20.009,244.126 19.934 C 244.420 19.857,244.573 19.681,244.478 19.529 C 244.387 19.380,244.403 19.286,244.515 19.320 C 244.853 19.421,246.084 18.493,245.934 18.250 C 245.857 18.125,245.886 18.050,245.998 18.082 C 246.361 18.187,247.331 17.524,247.178 17.276 C 247.096 17.144,247.132 17.066,247.257 17.103 C 247.588 17.202,250.272 15.015,250.121 14.770 C 250.051 14.657,250.086 14.591,250.198 14.623 C 250.561 14.728,251.532 14.065,251.378 13.817 C 251.296 13.685,251.321 13.604,251.433 13.637 C 251.771 13.739,253.002 12.810,252.852 12.567 C 252.775 12.443,252.804 12.367,252.916 12.400 C 253.322 12.517,254.243 11.832,254.075 11.538 C 253.981 11.375,253.996 11.324,254.107 11.425 C 254.218 11.525,254.772 11.228,255.339 10.764 L 256.368 9.920 257.046 10.639 C 257.419 11.034,257.654 11.471,257.568 11.610 C 257.482 11.749,257.585 11.929,257.796 12.010 C 258.008 12.092,258.120 12.258,258.045 12.379 C 257.969 12.501,258.032 12.600,258.184 12.600 C 258.336 12.600,258.392 12.712,258.308 12.847 C 258.224 12.983,258.250 13.095,258.367 13.095 C 258.484 13.095,258.720 13.484,258.892 13.959 C 259.064 14.435,259.320 14.824,259.462 14.824 C 259.603 14.824,259.655 14.657,259.577 14.453 C 259.499 14.250,259.533 14.083,259.652 14.083 C 259.849 14.083,260.173 12.775,260.297 11.489 C 260.323 11.217,260.412 10.828,260.496 10.624 C 260.806 9.864,261.393 6.619,261.259 6.402 C 261.182 6.278,261.250 6.177,261.410 6.177 C 261.587 6.177,261.654 5.935,261.583 5.559 C 261.518 5.219,261.548 4.941,261.649 4.941 C 261.813 4.941,262.414 2.299,262.504 1.179 C 262.523 0.944,262.615 0.675,262.709 0.582 C 262.802 0.488,262.878 0.344,262.878 0.261 C 262.878 0.051,259.287 -0.032,259.081 0.173 M226.061 40.704 C 225.767 41.078,225.453 41.367,225.364 41.347 C 225.274 41.326,225.229 41.410,225.263 41.532 C 225.296 41.654,225.241 41.729,225.139 41.699 C 224.813 41.603,223.594 42.541,223.739 42.776 C 223.816 42.900,223.787 42.974,223.675 42.941 C 223.337 42.839,222.106 43.768,222.256 44.011 C 222.333 44.135,222.305 44.210,222.193 44.176 C 221.854 44.075,220.624 45.003,220.774 45.246 C 220.851 45.371,220.822 45.445,220.710 45.411 C 220.372 45.310,219.141 46.238,219.292 46.482 C 219.369 46.606,219.319 46.677,219.182 46.640 C 218.993 46.588,203.965 58.870,201.235 61.307 C 200.964 61.550,200.368 62.058,199.912 62.437 C 199.455 62.816,198.744 63.431,198.331 63.805 C 197.918 64.179,197.485 64.484,197.369 64.484 C 197.253 64.484,197.159 83.941,197.159 107.721 C 197.159 131.501,197.204 150.957,197.260 150.957 C 197.315 150.957,199.289 151.456,201.645 152.065 C 209.342 154.053,217.101 155.530,223.486 156.219 L 226.465 156.541 226.516 154.923 C 226.611 151.938,226.775 40.025,226.684 40.025 C 226.636 40.025,226.355 40.330,226.061 40.704 M144.834 92.407 C 144.865 116.254,144.910 119.149,145.257 119.609 C 147.965 123.205,157.889 132.674,158.950 132.674 C 159.252 132.674,159.137 73.998,158.833 73.694 C 158.681 73.542,158.385 73.483,158.175 73.563 C 157.937 73.655,157.857 73.608,157.962 73.438 C 158.122 73.179,157.242 72.724,156.807 72.842 C 156.695 72.872,156.669 72.791,156.749 72.661 C 156.829 72.531,156.504 72.284,156.026 72.111 C 155.548 71.938,155.158 71.726,155.158 71.639 C 155.158 71.465,153.945 70.837,153.547 70.805 C 153.408 70.794,153.025 70.534,152.696 70.227 C 152.366 69.921,151.729 69.537,151.280 69.375 C 150.831 69.212,150.463 69.008,150.463 68.921 C 150.463 68.730,149.229 68.115,148.787 68.087 C 148.613 68.076,148.391 67.940,148.293 67.785 C 148.122 67.512,145.206 65.720,144.933 65.720 C 144.859 65.720,144.814 77.729,144.834 92.407 M191.970 69.170 C 191.970 69.356,191.903 69.440,191.820 69.357 C 191.613 69.150,187.383 72.379,187.468 72.680 C 187.505 72.813,187.438 72.861,187.319 72.787 C 187.199 72.714,186.891 72.825,186.633 73.034 C 186.375 73.244,186.320 73.334,186.511 73.235 C 186.747 73.113,186.799 73.152,186.672 73.357 C 186.569 73.523,186.426 73.599,186.354 73.527 C 186.108 73.281,185.283 73.894,185.456 74.194 C 185.549 74.357,185.538 74.411,185.430 74.314 C 185.130 74.043,184.273 74.596,184.468 74.935 C 184.561 75.098,184.550 75.152,184.442 75.055 C 184.142 74.784,183.285 75.337,183.479 75.676 C 183.573 75.839,183.561 75.893,183.454 75.796 C 183.153 75.525,182.296 76.078,182.491 76.418 C 182.585 76.581,182.573 76.635,182.465 76.537 C 182.165 76.266,181.308 76.820,181.503 77.159 C 181.596 77.322,181.585 77.376,181.477 77.279 C 181.177 77.008,180.320 77.561,180.514 77.900 C 180.608 78.063,180.597 78.117,180.489 78.020 C 180.200 77.759,179.328 78.299,179.525 78.618 C 179.626 78.781,179.580 78.821,179.410 78.715 C 179.254 78.619,178.849 78.818,178.507 79.160 C 178.166 79.501,177.884 79.702,177.879 79.606 C 177.875 79.510,177.652 79.694,177.385 80.015 C 177.118 80.336,176.896 80.503,176.891 80.386 C 176.887 80.269,176.664 80.435,176.397 80.756 C 176.130 81.077,175.907 81.244,175.903 81.127 C 175.898 81.010,175.704 81.142,175.470 81.420 C 175.034 81.940,173.193 82.193,173.193 81.732 C 173.193 81.606,173.081 81.572,172.944 81.657 C 172.807 81.741,172.515 81.630,172.295 81.410 C 172.075 81.190,171.736 81.070,171.543 81.144 C 171.320 81.230,171.256 81.174,171.368 80.993 C 171.486 80.802,171.408 80.759,171.134 80.864 C 170.908 80.951,170.723 80.922,170.723 80.800 C 170.723 80.583,169.635 80.126,169.587 80.322 C 169.574 80.376,169.379 80.267,169.155 80.081 C 168.930 79.894,168.746 79.828,168.746 79.934 C 168.746 80.040,168.552 79.955,168.314 79.746 C 168.076 79.538,167.631 79.290,167.326 79.197 L 166.770 79.028 166.770 108.525 L 166.770 138.022 168.808 139.155 C 174.305 142.211,181.339 145.390,188.141 147.891 L 192.341 149.435 192.403 109.382 C 192.445 82.845,192.382 69.245,192.218 69.080 C 192.052 68.915,191.970 68.944,191.970 69.170 M91.600 178.798 C 91.226 178.859,90.920 179.009,90.920 179.132 C 90.920 179.254,90.765 179.295,90.575 179.222 C 90.385 179.149,90.155 179.210,90.064 179.357 C 89.972 179.505,89.794 179.561,89.668 179.483 C 89.541 179.405,89.438 179.477,89.438 179.644 C 89.438 179.810,89.368 179.877,89.283 179.792 C 89.022 179.530,87.883 180.264,86.844 181.362 C 86.300 181.937,86.022 182.327,86.226 182.229 C 86.513 182.091,86.508 182.125,86.202 182.378 C 85.604 182.875,84.975 184.231,85.142 184.666 C 85.224 184.879,85.165 185.053,85.012 185.053 C 84.851 185.053,84.781 185.310,84.845 185.666 C 84.906 186.004,84.853 186.344,84.727 186.422 C 84.468 186.581,84.408 189.082,84.656 189.330 C 84.744 189.418,84.844 189.849,84.879 190.289 C 84.913 190.729,85.058 191.128,85.199 191.175 C 85.341 191.222,85.399 191.412,85.328 191.597 C 85.258 191.781,85.431 192.163,85.713 192.445 C 85.995 192.728,86.170 192.959,86.101 192.959 C 86.032 192.959,86.270 193.289,86.629 193.693 C 86.989 194.097,87.396 194.358,87.534 194.272 C 87.672 194.187,87.713 194.233,87.626 194.375 C 87.538 194.516,87.632 194.769,87.835 194.937 C 88.037 195.105,88.203 195.174,88.203 195.089 C 88.203 195.004,88.414 195.130,88.672 195.368 C 89.691 196.307,91.024 197.279,91.214 197.221 C 91.324 197.187,91.414 197.255,91.414 197.373 C 91.414 197.591,93.157 198.834,93.400 198.789 C 93.473 198.776,93.918 199.125,94.388 199.566 C 94.859 200.007,95.326 200.369,95.426 200.369 C 95.759 200.372,97.342 202.215,97.494 202.779 C 97.577 203.085,97.725 203.335,97.823 203.335 C 98.149 203.335,97.873 206.010,97.466 206.797 C 96.285 209.082,91.473 209.142,91.044 206.877 C 90.997 206.628,90.944 206.424,90.928 206.424 C 90.831 206.424,90.582 203.737,90.567 202.526 L 90.550 201.098 87.461 201.167 L 84.373 201.235 84.310 201.977 C 84.155 203.785,84.376 206.754,84.733 207.659 C 84.894 208.067,85.001 208.400,84.972 208.400 C 84.942 208.400,85.159 208.873,85.453 209.450 C 85.748 210.028,86.105 210.500,86.246 210.500 C 86.387 210.500,86.440 210.602,86.363 210.726 C 86.195 210.998,88.066 212.531,88.292 212.306 C 88.379 212.219,88.450 212.277,88.450 212.436 C 88.450 212.594,88.672 212.724,88.944 212.724 C 89.216 212.724,89.438 212.817,89.438 212.932 C 89.438 213.949,98.414 213.943,99.092 212.925 C 99.170 212.808,99.487 212.664,99.796 212.604 C 100.982 212.376,102.654 210.710,103.188 209.227 C 103.424 208.569,103.715 208.030,103.833 208.030 C 103.951 208.030,103.978 207.807,103.891 207.536 C 103.805 207.264,103.835 207.041,103.958 207.041 C 104.245 207.041,104.376 205.698,104.327 203.242 C 104.288 201.259,103.501 199.044,102.533 198.190 C 102.204 197.900,102.204 197.883,102.532 198.040 C 102.736 198.137,102.298 197.592,101.559 196.829 C 100.819 196.066,100.162 195.494,100.098 195.557 C 100.035 195.621,99.826 195.450,99.635 195.177 C 99.443 194.903,99.193 194.738,99.078 194.809 C 98.963 194.880,98.831 194.841,98.786 194.722 C 98.618 194.284,94.052 191.249,93.788 191.400 C 93.638 191.485,93.597 191.464,93.698 191.353 C 93.912 191.117,92.892 190.330,92.526 190.449 C 92.390 190.493,92.362 190.447,92.462 190.346 C 92.703 190.105,92.166 189.464,91.874 189.644 C 91.751 189.721,91.675 189.692,91.706 189.580 C 91.738 189.468,91.562 188.998,91.316 188.536 C 90.782 187.531,90.676 186.044,91.108 185.588 C 91.279 185.408,91.366 185.174,91.301 185.069 C 91.236 184.964,91.457 184.753,91.793 184.600 C 92.128 184.447,92.403 184.235,92.403 184.128 C 92.403 183.483,95.447 183.926,96.256 184.688 C 96.714 185.120,97.118 185.444,97.154 185.408 C 97.191 185.372,97.246 185.693,97.277 186.122 C 97.308 186.551,97.433 186.935,97.553 186.975 C 97.674 187.016,97.722 187.656,97.659 188.398 L 97.545 189.747 100.640 189.747 L 103.734 189.747 103.727 187.893 C 103.723 186.874,103.624 185.981,103.507 185.909 C 103.391 185.837,103.358 185.615,103.434 185.415 C 103.511 185.216,103.439 185.053,103.274 185.053 C 103.109 185.053,103.029 184.909,103.096 184.733 C 103.164 184.558,103.068 184.208,102.883 183.956 C 102.699 183.704,102.607 183.403,102.678 183.287 C 102.750 183.171,102.684 183.076,102.532 183.076 C 102.381 183.076,102.325 182.965,102.409 182.829 C 102.493 182.693,102.425 182.582,102.259 182.582 C 102.092 182.582,102.031 182.507,102.123 182.415 C 102.357 182.181,99.850 179.813,99.559 179.993 C 99.428 180.074,99.321 180.016,99.321 179.864 C 99.321 179.712,99.219 179.651,99.095 179.728 C 98.970 179.804,98.826 179.738,98.773 179.581 C 98.721 179.423,98.405 179.265,98.073 179.229 C 97.740 179.193,97.468 179.141,97.468 179.112 C 97.468 178.859,92.766 178.607,91.600 178.798 M236.875 178.798 C 236.501 178.859,236.195 179.024,236.195 179.166 C 236.195 179.307,236.046 179.365,235.863 179.295 C 234.984 178.958,230.702 182.136,231.121 182.814 C 231.210 182.958,231.159 183.076,231.007 183.076 C 230.855 183.076,230.799 183.187,230.883 183.323 C 230.967 183.459,230.930 183.570,230.801 183.570 C 230.216 183.570,229.776 187.331,230.073 189.788 C 230.316 191.797,232.909 195.399,234.342 195.719 C 234.478 195.749,234.780 196.002,235.013 196.281 C 235.247 196.560,235.441 196.711,235.446 196.617 C 235.450 196.523,235.809 196.770,236.243 197.166 C 236.677 197.562,237.078 197.841,237.134 197.785 C 237.190 197.729,237.474 197.908,237.766 198.183 C 238.481 198.859,239.654 199.695,239.654 199.528 C 239.654 198.917,243.019 202.738,243.070 203.407 C 243.103 203.839,243.232 204.294,243.357 204.419 C 243.495 204.557,243.484 204.833,243.330 205.122 C 243.190 205.384,243.136 205.756,243.210 205.949 C 243.284 206.142,243.237 206.300,243.105 206.300 C 242.974 206.300,242.866 206.423,242.866 206.573 C 242.866 206.724,242.588 207.177,242.248 207.581 C 241.909 207.984,241.631 208.247,241.631 208.163 C 241.631 208.080,241.395 208.138,241.107 208.292 C 240.484 208.626,238.171 208.739,238.171 208.436 C 238.172 208.319,237.999 208.290,237.788 208.371 C 237.577 208.452,237.462 208.425,237.533 208.311 C 237.603 208.197,237.387 207.957,237.051 207.778 C 236.678 207.578,236.442 207.235,236.442 206.891 C 236.442 206.582,236.336 206.264,236.206 206.183 C 236.076 206.103,236.032 205.874,236.109 205.675 C 236.185 205.475,236.162 205.117,236.056 204.880 C 235.951 204.642,235.856 203.725,235.845 202.841 L 235.825 201.235 232.727 201.167 L 229.629 201.098 229.638 203.555 C 229.644 204.906,229.724 206.088,229.816 206.180 C 229.909 206.273,229.924 206.506,229.850 206.698 C 229.777 206.890,229.839 207.195,229.989 207.376 C 230.139 207.557,230.191 207.775,230.105 207.861 C 230.019 207.947,230.098 208.198,230.281 208.419 C 230.465 208.640,230.638 208.981,230.667 209.178 C 230.769 209.873,232.378 211.725,233.230 212.130 C 233.706 212.355,234.269 212.691,234.482 212.876 C 234.695 213.061,235.200 213.248,235.605 213.293 C 236.010 213.337,236.447 213.434,236.577 213.508 C 236.707 213.582,237.295 213.658,237.885 213.676 C 238.475 213.695,239.032 213.757,239.125 213.814 C 239.970 214.336,246.078 212.727,246.078 211.982 C 246.078 211.830,246.172 211.765,246.287 211.836 C 246.582 212.018,247.855 210.635,247.625 210.382 C 247.522 210.268,247.576 210.254,247.747 210.353 C 247.937 210.462,248.112 210.358,248.196 210.084 C 248.272 209.837,248.612 209.054,248.952 208.343 C 249.292 207.633,249.545 206.854,249.515 206.614 C 249.485 206.373,249.543 205.988,249.644 205.757 C 249.979 204.989,249.533 200.837,249.053 200.260 C 248.914 200.092,248.873 199.881,248.962 199.792 C 249.052 199.703,248.989 199.629,248.822 199.629 C 248.656 199.629,248.588 199.518,248.672 199.382 C 248.756 199.246,248.700 199.135,248.548 199.135 C 248.397 199.135,248.337 199.030,248.416 198.902 C 248.677 198.481,245.005 195.094,242.265 193.229 C 240.787 192.222,239.666 191.555,239.775 191.746 C 239.960 192.070,239.697 191.852,238.404 190.611 C 238.121 190.340,237.786 190.117,237.660 190.117 C 237.534 190.117,237.441 190.024,237.455 189.909 C 237.468 189.794,237.194 189.403,236.845 189.039 C 236.175 188.339,235.828 185.694,236.360 185.338 C 236.493 185.249,236.676 184.974,236.767 184.728 C 236.858 184.482,237.036 184.344,237.162 184.421 C 237.288 184.499,237.539 184.417,237.719 184.239 C 238.119 183.845,240.320 183.839,241.013 184.231 C 241.285 184.384,241.618 184.521,241.754 184.534 C 241.890 184.547,242.016 184.642,242.034 184.744 C 242.148 185.378,242.461 186.041,242.648 186.041 C 242.768 186.041,242.853 186.124,242.837 186.226 C 242.821 186.328,242.821 187.162,242.837 188.079 L 242.866 189.747 245.893 189.746 L 248.919 189.745 248.902 187.955 C 248.893 186.970,248.858 186.109,248.825 186.041 C 248.791 185.973,248.727 185.542,248.683 185.083 C 248.638 184.625,248.469 184.168,248.307 184.067 C 248.145 183.967,248.020 183.787,248.030 183.666 C 248.067 183.227,247.768 182.582,247.529 182.582 C 247.394 182.582,247.348 182.478,247.426 182.352 C 247.504 182.225,247.320 181.947,247.015 181.734 C 246.711 181.521,246.558 181.347,246.674 181.347 C 246.791 181.347,246.465 181.012,245.950 180.602 C 245.435 180.193,244.962 179.909,244.899 179.973 C 244.835 180.036,244.621 179.925,244.423 179.727 C 244.224 179.528,243.959 179.429,243.834 179.506 C 243.709 179.583,243.607 179.517,243.607 179.358 C 243.607 179.200,243.444 179.133,243.244 179.209 C 243.045 179.286,242.820 179.249,242.745 179.128 C 242.591 178.879,242.538 178.872,239.654 178.765 C 238.499 178.722,237.248 178.736,236.875 178.798 M386.782 178.911 C 385.452 179.203,384.435 179.629,384.435 179.894 C 384.435 180.013,384.351 180.084,384.250 180.051 C 383.986 179.965,382.159 181.129,382.313 181.284 C 382.384 181.354,382.167 181.628,381.832 181.891 C 381.497 182.155,381.223 182.577,381.223 182.829 C 381.223 183.081,381.057 183.454,380.853 183.658 C 380.650 183.861,380.550 184.203,380.632 184.416 C 380.718 184.639,380.653 184.805,380.482 184.805 C 380.317 184.805,380.244 184.969,380.321 185.168 C 380.398 185.368,380.355 185.596,380.225 185.676 C 379.717 185.990,380.238 191.476,380.776 191.476 C 380.902 191.476,380.936 191.587,380.852 191.723 C 380.768 191.859,380.824 191.970,380.976 191.970 C 381.128 191.970,381.184 192.080,381.101 192.214 C 380.914 192.518,383.179 194.977,383.477 194.793 C 383.596 194.719,383.696 194.804,383.699 194.982 C 383.702 195.160,384.174 195.639,384.749 196.046 C 385.324 196.453,385.794 196.733,385.794 196.668 C 385.794 196.604,386.127 196.847,386.535 197.210 C 387.859 198.388,390.798 200.349,390.975 200.172 C 391.069 200.077,391.110 200.167,391.064 200.371 C 391.019 200.574,391.093 200.733,391.229 200.724 C 391.365 200.715,391.775 201.020,392.140 201.403 C 392.505 201.787,392.747 202.100,392.678 202.100 C 392.609 202.100,392.728 202.276,392.943 202.491 C 393.158 202.705,393.271 202.983,393.193 203.108 C 393.116 203.233,393.177 203.335,393.329 203.335 C 393.481 203.335,393.551 203.423,393.485 203.530 C 393.419 203.637,393.331 204.415,393.289 205.259 C 393.247 206.104,393.147 206.794,393.066 206.794 C 392.985 206.794,392.772 207.068,392.593 207.404 C 392.413 207.739,392.171 207.954,392.055 207.882 C 391.939 207.810,391.777 207.924,391.696 208.136 C 391.614 208.348,391.476 208.480,391.389 208.430 C 391.301 208.380,390.640 208.417,389.920 208.512 C 389.200 208.607,388.550 208.586,388.475 208.464 C 388.399 208.343,388.192 208.299,388.013 208.368 C 387.834 208.436,387.626 208.333,387.551 208.138 C 387.476 207.942,387.269 207.783,387.089 207.783 C 386.910 207.783,386.745 207.542,386.723 207.249 C 386.701 206.955,386.594 206.650,386.486 206.569 C 386.223 206.376,386.152 205.600,386.172 203.150 L 386.189 201.112 382.969 201.112 L 379.750 201.112 379.596 201.724 C 379.512 202.060,379.508 202.866,379.587 203.515 C 379.666 204.164,379.743 205.028,379.758 205.435 C 379.774 205.843,379.846 206.343,379.919 206.547 C 379.992 206.751,380.069 207.188,380.091 207.518 C 380.113 207.849,380.260 208.161,380.416 208.214 C 380.573 208.266,380.640 208.468,380.565 208.663 C 380.490 208.858,380.559 209.018,380.717 209.018 C 380.875 209.018,380.936 209.129,380.852 209.265 C 380.768 209.401,380.817 209.512,380.961 209.512 C 381.105 209.512,381.223 209.679,381.223 209.883 C 381.223 210.086,381.341 210.253,381.485 210.253 C 381.629 210.253,381.688 210.347,381.617 210.463 C 381.369 210.863,383.936 212.893,384.269 212.560 C 384.360 212.469,384.435 212.531,384.435 212.697 C 384.435 212.864,384.546 212.931,384.682 212.847 C 384.818 212.763,384.929 212.805,384.929 212.939 C 384.929 213.546,391.508 214.103,392.373 213.569 C 392.536 213.468,393.009 213.359,393.423 213.326 C 393.838 213.294,394.219 213.144,394.269 212.994 C 394.319 212.844,394.468 212.788,394.601 212.870 C 394.734 212.952,395.058 212.824,395.321 212.586 C 395.585 212.348,395.800 212.232,395.800 212.328 C 395.800 212.424,396.188 212.206,396.662 211.844 C 397.136 211.483,397.463 211.088,397.389 210.967 C 397.314 210.846,397.409 210.747,397.599 210.747 C 398.010 210.747,399.247 208.535,399.084 208.091 C 399.022 207.922,399.098 207.783,399.255 207.783 C 399.427 207.783,399.477 207.587,399.382 207.288 C 399.288 206.991,399.338 206.794,399.508 206.794 C 399.679 206.794,399.770 206.429,399.739 205.868 C 399.710 205.358,399.762 204.766,399.854 204.552 C 399.945 204.337,399.920 203.892,399.799 203.563 C 399.677 203.234,399.619 202.672,399.670 202.314 C 399.721 201.956,399.632 201.344,399.472 200.955 C 399.185 200.255,399.123 200.034,399.049 199.457 C 398.985 198.951,396.526 196.150,396.280 196.303 C 396.152 196.382,396.043 196.301,396.038 196.123 C 396.028 195.810,394.424 194.558,393.969 194.509 C 393.845 194.496,393.644 194.306,393.522 194.087 C 393.399 193.868,393.206 193.747,393.093 193.817 C 392.980 193.887,392.820 193.771,392.739 193.559 C 392.658 193.348,392.491 193.236,392.369 193.312 C 392.246 193.388,392.076 193.268,391.990 193.045 C 391.905 192.823,391.773 192.703,391.697 192.779 C 391.621 192.855,391.373 192.755,391.147 192.557 C 390.146 191.681,387.995 190.122,387.770 190.109 C 387.634 190.101,387.549 189.967,387.580 189.812 C 387.612 189.656,387.365 189.314,387.033 189.053 C 386.700 188.791,386.498 188.507,386.584 188.421 C 386.670 188.335,386.615 188.264,386.460 188.264 C 386.306 188.264,386.244 188.098,386.322 187.894 C 386.400 187.690,386.360 187.523,386.232 187.523 C 385.560 187.523,386.618 185.005,387.544 184.398 C 389.188 183.321,392.588 184.326,392.588 185.889 C 392.588 186.108,392.696 186.288,392.827 186.288 C 392.959 186.288,393.005 186.449,392.929 186.647 C 392.853 186.844,392.880 187.150,392.989 187.326 C 393.186 187.644,393.206 187.759,393.287 189.067 L 393.329 189.747 396.322 189.747 L 399.315 189.747 399.186 188.079 C 399.043 186.233,398.966 185.816,398.681 185.361 C 398.575 185.191,398.554 184.947,398.634 184.818 C 399.063 184.123,396.159 180.111,395.227 180.111 C 395.032 180.111,394.740 179.952,394.578 179.757 C 393.871 178.905,389.144 178.392,386.782 178.911 M0.189 196.170 L 0.254 212.971 3.067 212.971 L 5.880 212.971 6.050 209.944 C 6.144 208.280,6.183 201.888,6.137 195.741 C 6.090 189.476,6.144 184.862,6.261 185.241 C 6.375 185.613,6.465 186.110,6.462 186.345 C 6.458 186.580,6.549 186.830,6.663 186.901 C 6.778 186.972,6.817 187.239,6.750 187.496 C 6.683 187.752,6.744 188.033,6.886 188.121 C 7.027 188.208,7.080 188.445,7.003 188.646 C 6.926 188.847,6.985 189.160,7.135 189.340 C 7.285 189.521,7.356 189.720,7.293 189.783 C 7.230 189.846,7.306 190.337,7.462 190.872 C 7.618 191.408,7.721 192.032,7.691 192.257 C 7.660 192.483,7.747 192.737,7.884 192.821 C 8.020 192.905,8.071 193.132,7.997 193.325 C 7.923 193.518,7.948 193.815,8.054 193.986 C 8.159 194.156,8.281 194.624,8.325 195.025 C 8.369 195.426,8.517 195.890,8.654 196.055 C 8.791 196.220,8.836 196.530,8.753 196.745 C 8.671 196.960,8.692 197.277,8.799 197.451 C 9.003 197.781,9.145 198.463,9.163 199.192 C 9.168 199.427,9.267 199.678,9.381 199.748 C 9.496 199.819,9.531 200.099,9.460 200.371 C 9.389 200.642,9.452 200.865,9.599 200.865 C 9.746 200.865,9.808 201.020,9.735 201.209 C 9.662 201.399,9.741 202.038,9.909 202.630 C 10.078 203.222,10.194 203.837,10.166 203.996 C 10.139 204.156,10.226 204.354,10.359 204.436 C 10.493 204.519,10.539 204.751,10.462 204.952 C 10.385 205.154,10.444 205.466,10.594 205.647 C 10.744 205.827,10.798 206.043,10.715 206.127 C 10.631 206.211,10.647 206.478,10.749 206.722 C 10.852 206.966,10.978 207.488,11.029 207.883 C 11.080 208.279,11.234 208.737,11.372 208.902 C 11.509 209.067,11.551 209.385,11.465 209.607 C 11.380 209.830,11.432 210.160,11.582 210.341 C 11.732 210.522,11.787 210.738,11.703 210.821 C 11.619 210.905,11.637 211.172,11.743 211.416 C 11.938 211.866,12.001 212.108,12.069 212.662 C 12.095 212.882,12.716 212.971,14.233 212.971 C 16.359 212.971,16.360 212.971,16.210 212.374 C 16.128 212.045,16.164 211.740,16.290 211.694 C 16.417 211.649,16.590 211.112,16.676 210.500 C 16.885 209.015,16.947 208.722,17.159 208.227 C 17.258 207.995,17.263 207.685,17.172 207.537 C 17.080 207.388,17.125 207.123,17.271 206.946 C 17.418 206.770,17.579 206.302,17.631 205.907 C 17.682 205.512,17.808 204.989,17.910 204.745 C 18.013 204.502,18.029 204.234,17.945 204.150 C 17.861 204.067,17.916 203.851,18.066 203.670 C 18.216 203.489,18.268 203.159,18.183 202.937 C 18.097 202.714,18.139 202.396,18.276 202.231 C 18.413 202.066,18.568 201.608,18.619 201.213 C 18.670 200.817,18.796 200.295,18.899 200.051 C 19.001 199.807,19.017 199.540,18.933 199.456 C 18.850 199.373,18.904 199.156,19.054 198.976 C 19.204 198.795,19.256 198.465,19.171 198.242 C 19.086 198.020,19.128 197.702,19.265 197.537 C 19.402 197.372,19.556 196.914,19.607 196.518 C 19.658 196.123,19.780 195.611,19.878 195.379 C 19.976 195.148,19.989 194.850,19.907 194.717 C 19.824 194.584,19.876 194.402,20.020 194.313 C 20.165 194.223,20.258 193.965,20.228 193.740 C 20.197 193.514,20.300 192.891,20.456 192.355 C 20.612 191.819,20.689 191.329,20.625 191.266 C 20.562 191.203,20.633 191.003,20.783 190.823 C 20.933 190.642,20.993 190.330,20.916 190.128 C 20.838 189.927,20.887 189.694,21.023 189.609 C 21.160 189.525,21.249 189.271,21.222 189.045 C 21.194 188.820,21.244 188.468,21.332 188.264 C 21.420 188.061,21.534 187.560,21.585 187.153 C 21.635 186.745,21.741 186.245,21.818 186.041 C 21.896 185.837,22.003 185.448,22.055 185.176 C 22.378 183.498,22.501 190.666,22.263 197.348 C 22.110 201.660,21.985 206.939,21.987 209.080 L 21.989 212.971 24.950 212.971 L 27.912 212.971 27.977 196.170 L 28.042 179.370 23.317 179.370 L 18.592 179.370 18.438 180.137 C 18.354 180.558,18.350 181.008,18.429 181.136 C 18.508 181.264,18.453 181.512,18.306 181.689 C 18.160 181.865,17.998 182.333,17.947 182.728 C 17.896 183.123,17.772 183.641,17.671 183.879 C 17.571 184.117,17.550 184.471,17.625 184.666 C 17.700 184.861,17.661 185.056,17.540 185.098 C 17.418 185.141,17.273 185.565,17.216 186.041 C 17.160 186.516,17.029 187.105,16.927 187.349 C 16.824 187.592,16.808 187.860,16.891 187.943 C 16.975 188.027,16.921 188.243,16.771 188.424 C 16.621 188.604,16.561 188.917,16.639 189.118 C 16.716 189.319,16.665 189.554,16.526 189.640 C 16.387 189.726,16.331 189.949,16.402 190.134 C 16.474 190.320,16.416 190.544,16.274 190.631 C 16.132 190.719,16.071 191.000,16.138 191.257 C 16.205 191.513,16.150 191.791,16.015 191.874 C 15.880 191.958,15.824 192.236,15.891 192.492 C 15.958 192.748,15.919 193.016,15.805 193.087 C 15.690 193.158,15.592 193.408,15.586 193.643 C 15.569 194.372,15.427 195.054,15.223 195.384 C 15.115 195.558,15.095 195.876,15.177 196.090 C 15.259 196.305,15.230 196.605,15.111 196.758 C 14.764 197.204,14.318 199.311,14.481 199.735 C 14.563 199.949,14.520 200.124,14.387 200.124 C 14.052 200.124,13.558 199.496,13.745 199.308 C 13.828 199.225,13.810 198.957,13.703 198.714 C 13.597 198.470,13.533 198.171,13.562 198.048 C 13.590 197.926,13.537 197.648,13.445 197.431 C 13.352 197.213,13.235 196.712,13.183 196.317 C 13.132 195.921,12.970 195.454,12.824 195.277 C 12.678 195.101,12.628 194.843,12.714 194.705 C 12.799 194.566,12.734 193.977,12.568 193.397 C 12.402 192.816,12.289 192.210,12.317 192.051 C 12.344 191.891,12.263 191.696,12.136 191.618 C 12.009 191.540,11.960 191.266,12.027 191.010 C 12.094 190.753,12.039 190.475,11.904 190.392 C 11.769 190.309,11.713 190.031,11.780 189.774 C 11.847 189.518,11.786 189.237,11.644 189.149 C 11.503 189.061,11.445 188.838,11.516 188.652 C 11.587 188.466,11.537 188.247,11.405 188.166 C 11.273 188.084,11.222 187.795,11.294 187.523 C 11.365 187.251,11.302 187.029,11.155 187.029 C 11.007 187.029,10.950 186.862,11.029 186.658 C 11.107 186.455,11.089 186.093,10.988 185.855 C 10.888 185.618,10.764 185.100,10.713 184.705 C 10.661 184.309,10.507 183.851,10.370 183.686 C 10.233 183.521,10.189 183.210,10.271 182.996 C 10.353 182.781,10.333 182.463,10.225 182.289 C 10.021 181.959,9.879 181.277,9.861 180.548 C 9.856 180.313,9.745 180.055,9.616 179.975 C 9.486 179.895,9.444 179.726,9.523 179.600 C 9.608 179.461,7.776 179.370,4.894 179.370 L 0.124 179.370 0.189 196.170 M38.818 179.679 C 38.845 179.849,38.797 180.154,38.711 180.358 C 38.407 181.082,38.081 182.929,38.219 183.152 C 38.296 183.276,38.219 183.464,38.049 183.570 C 37.879 183.675,37.727 184.218,37.713 184.777 C 37.698 185.336,37.589 185.794,37.470 185.794 C 37.351 185.794,37.317 185.957,37.393 186.156 C 37.470 186.356,37.416 186.591,37.275 186.678 C 37.133 186.766,37.072 187.047,37.139 187.304 C 37.206 187.560,37.152 187.837,37.020 187.919 C 36.887 188.000,36.834 188.209,36.900 188.383 C 36.967 188.556,36.918 188.801,36.793 188.927 C 36.667 189.052,36.520 189.650,36.466 190.254 C 36.412 190.858,36.343 191.380,36.312 191.414 C 36.282 191.448,36.233 191.560,36.205 191.662 C 36.176 191.763,36.069 192.036,35.967 192.267 C 35.864 192.499,35.848 192.797,35.930 192.930 C 36.012 193.063,35.959 193.246,35.812 193.337 C 35.664 193.428,35.602 193.655,35.673 193.840 C 35.745 194.026,35.687 194.250,35.545 194.337 C 35.403 194.425,35.342 194.706,35.409 194.963 C 35.476 195.219,35.423 195.496,35.290 195.578 C 35.158 195.659,35.104 195.868,35.171 196.042 C 35.237 196.215,35.188 196.461,35.062 196.587 C 34.935 196.714,34.805 197.283,34.772 197.851 C 34.740 198.420,34.618 198.886,34.501 198.887 C 34.385 198.888,34.352 199.051,34.428 199.251 C 34.505 199.450,34.456 199.683,34.320 199.767 C 34.183 199.851,34.094 200.105,34.121 200.331 C 34.149 200.556,34.101 200.908,34.016 201.112 C 33.704 201.858,33.396 203.653,33.523 203.983 C 33.595 204.171,33.519 204.324,33.354 204.324 C 33.189 204.324,33.117 204.487,33.193 204.686 C 33.270 204.886,33.217 205.120,33.076 205.207 C 32.935 205.295,32.886 205.632,32.968 205.957 C 33.059 206.317,33.008 206.547,32.838 206.547 C 32.685 206.547,32.622 206.710,32.699 206.910 C 32.776 207.109,32.722 207.344,32.580 207.432 C 32.439 207.520,32.377 207.801,32.444 208.057 C 32.511 208.314,32.458 208.590,32.326 208.672 C 32.193 208.754,32.139 208.963,32.206 209.136 C 32.273 209.310,32.224 209.555,32.099 209.680 C 31.973 209.806,31.826 210.403,31.772 211.007 C 31.718 211.612,31.654 212.106,31.630 212.106 C 31.606 212.106,31.549 212.301,31.504 212.539 C 31.428 212.933,31.711 212.971,34.707 212.971 L 37.992 212.971 38.184 211.797 C 38.290 211.152,38.399 210.401,38.426 210.130 C 38.453 209.858,38.548 209.358,38.636 209.018 C 38.724 208.678,38.835 208.067,38.884 207.659 C 38.932 207.251,39.047 206.740,39.140 206.522 C 39.232 206.305,39.291 206.027,39.269 205.905 C 39.058 204.703,39.430 204.571,43.014 204.571 L 46.439 204.571 46.588 205.250 C 46.670 205.624,46.797 206.096,46.871 206.300 C 46.945 206.504,47.029 206.893,47.057 207.165 C 47.207 208.610,47.516 210.006,47.686 210.006 C 47.792 210.006,47.880 210.256,47.882 210.562 C 47.886 211.355,48.072 212.353,48.278 212.686 C 48.502 213.049,54.749 213.085,54.972 212.724 C 55.056 212.588,55.046 212.349,54.949 212.193 C 54.853 212.037,54.739 211.518,54.696 211.040 C 54.653 210.562,54.512 210.064,54.382 209.935 C 54.252 209.805,54.201 209.557,54.267 209.383 C 54.334 209.210,54.280 209.001,54.148 208.919 C 54.015 208.837,53.962 208.561,54.029 208.304 C 54.096 208.048,54.035 207.767,53.893 207.679 C 53.751 207.591,53.698 207.356,53.774 207.157 C 53.851 206.958,53.814 206.794,53.692 206.794 C 53.571 206.794,53.453 206.340,53.431 205.784 C 53.409 205.229,53.275 204.635,53.134 204.465 C 52.992 204.294,52.942 204.089,53.023 204.009 C 53.103 203.928,53.085 203.727,52.983 203.562 C 52.881 203.397,52.762 202.870,52.719 202.392 C 52.676 201.914,52.535 201.417,52.405 201.287 C 52.276 201.158,52.224 200.910,52.291 200.736 C 52.357 200.563,52.303 200.354,52.171 200.272 C 52.039 200.190,51.985 199.913,52.052 199.657 C 52.119 199.401,52.058 199.119,51.916 199.032 C 51.774 198.944,51.721 198.709,51.798 198.510 C 51.874 198.310,51.837 198.147,51.716 198.147 C 51.594 198.147,51.477 197.693,51.454 197.137 C 51.432 196.582,51.298 195.988,51.157 195.817 C 51.016 195.647,50.966 195.442,51.046 195.361 C 51.126 195.281,51.109 195.080,51.006 194.915 C 50.904 194.749,50.786 194.223,50.743 193.745 C 50.700 193.267,50.559 192.770,50.429 192.640 C 50.299 192.510,50.248 192.262,50.314 192.089 C 50.381 191.915,50.327 191.706,50.194 191.624 C 50.062 191.543,50.009 191.266,50.076 191.010 C 50.143 190.753,50.081 190.472,49.940 190.384 C 49.798 190.297,49.744 190.062,49.821 189.862 C 49.898 189.663,49.831 189.500,49.672 189.500 C 49.514 189.500,49.448 189.396,49.527 189.269 C 49.666 189.044,49.309 187.030,48.998 186.288 C 48.913 186.084,48.866 185.733,48.893 185.507 C 48.920 185.281,48.831 185.027,48.695 184.943 C 48.558 184.859,48.505 184.638,48.576 184.452 C 48.647 184.266,48.592 184.044,48.453 183.958 C 48.313 183.872,48.258 183.649,48.329 183.464 C 48.400 183.278,48.350 183.059,48.218 182.977 C 48.086 182.895,48.032 182.619,48.099 182.362 C 48.166 182.106,48.105 181.825,47.963 181.737 C 47.821 181.649,47.768 181.415,47.845 181.215 C 47.921 181.016,47.854 180.852,47.696 180.852 C 47.537 180.852,47.477 180.740,47.562 180.603 C 47.646 180.466,47.645 180.132,47.560 179.862 C 47.367 179.254,38.720 179.073,38.818 179.679 M58.308 196.170 L 58.308 212.971 61.127 212.971 L 63.946 212.971 64.122 210.855 C 64.219 209.692,64.236 207.885,64.160 206.840 C 64.084 205.796,64.098 201.736,64.191 197.819 L 64.361 190.696 66.068 195.286 C 67.006 197.811,67.840 199.877,67.921 199.877 C 68.001 199.877,68.084 200.179,68.106 200.548 C 68.127 200.918,68.267 201.261,68.416 201.311 C 68.565 201.360,68.625 201.503,68.548 201.627 C 68.471 201.751,68.498 201.853,68.608 201.853 C 68.718 201.853,68.825 202.156,68.847 202.525 C 68.868 202.894,69.008 203.237,69.157 203.287 C 69.307 203.337,69.366 203.479,69.289 203.604 C 69.212 203.728,69.239 203.830,69.349 203.830 C 69.459 203.830,69.567 204.132,69.588 204.502 C 69.610 204.871,69.749 205.214,69.898 205.264 C 70.048 205.313,70.107 205.456,70.030 205.580 C 69.953 205.704,69.980 205.806,70.090 205.806 C 70.200 205.806,70.308 206.109,70.329 206.478 C 70.351 206.847,70.490 207.190,70.640 207.240 C 70.789 207.290,70.848 207.432,70.771 207.557 C 70.695 207.681,70.722 207.783,70.832 207.783 C 70.942 207.783,71.049 208.085,71.071 208.455 C 71.092 208.824,71.232 209.167,71.381 209.217 C 71.530 209.266,71.589 209.409,71.513 209.533 C 71.436 209.657,71.467 209.759,71.582 209.759 C 71.697 209.759,71.809 209.994,71.830 210.280 C 71.852 210.567,72.070 211.289,72.315 211.885 L 72.761 212.969 76.035 212.970 L 79.308 212.971 79.308 196.170 L 79.308 179.370 76.183 179.370 L 73.058 179.370 73.250 182.891 C 73.702 191.144,73.612 203.258,73.112 201.606 C 73.009 201.266,72.682 200.377,72.386 199.629 C 72.089 198.882,71.789 198.020,71.719 197.715 C 71.649 197.409,71.487 197.159,71.359 197.159 C 71.231 197.159,71.195 197.048,71.279 196.912 C 71.363 196.776,71.341 196.665,71.231 196.664 C 71.121 196.664,71.014 196.362,70.992 195.993 C 70.971 195.623,70.831 195.280,70.682 195.230 C 70.533 195.181,70.474 195.038,70.550 194.914 C 70.627 194.790,70.600 194.688,70.490 194.688 C 70.380 194.688,70.273 194.385,70.251 194.016 C 70.230 193.647,70.090 193.304,69.941 193.254 C 69.792 193.204,69.732 193.062,69.809 192.938 C 69.886 192.813,69.859 192.711,69.749 192.711 C 69.639 192.711,69.532 192.409,69.510 192.040 C 69.489 191.670,69.349 191.327,69.200 191.277 C 69.050 191.228,68.991 191.085,69.068 190.961 C 69.145 190.837,69.118 190.735,69.008 190.735 C 68.898 190.735,68.790 190.432,68.769 190.063 C 68.747 189.694,68.608 189.351,68.459 189.301 C 68.309 189.251,68.250 189.109,68.327 188.984 C 68.404 188.860,68.361 188.758,68.232 188.758 C 68.103 188.758,68.014 188.612,68.032 188.432 C 68.051 188.253,67.344 186.142,66.461 183.740 L 64.855 179.374 61.581 179.372 L 58.308 179.370 58.308 196.170 M114.472 179.533 C 114.561 179.622,114.530 179.821,114.402 179.976 C 114.274 180.130,114.123 180.640,114.066 181.110 C 114.010 181.580,113.873 182.181,113.762 182.446 C 113.651 182.710,113.552 183.294,113.543 183.742 C 113.534 184.190,113.432 184.557,113.315 184.558 C 113.199 184.558,113.166 184.722,113.243 184.921 C 113.319 185.121,113.270 185.353,113.134 185.437 C 112.997 185.521,112.908 185.775,112.935 186.001 C 112.963 186.227,112.915 186.578,112.830 186.782 C 112.518 187.528,112.210 189.323,112.337 189.654 C 112.409 189.841,112.333 189.994,112.168 189.994 C 112.003 189.994,111.931 190.157,112.007 190.357 C 112.084 190.556,112.030 190.791,111.889 190.879 C 111.747 190.966,111.686 191.248,111.753 191.504 C 111.820 191.760,111.766 192.037,111.634 192.119 C 111.501 192.200,111.451 192.419,111.523 192.605 C 111.594 192.791,111.536 193.014,111.394 193.102 C 111.253 193.190,111.192 193.471,111.259 193.727 C 111.326 193.984,111.272 194.260,111.140 194.342 C 111.007 194.424,110.953 194.633,111.020 194.806 C 111.087 194.980,111.041 195.223,110.918 195.345 C 110.795 195.468,110.643 196.065,110.581 196.673 C 110.518 197.280,110.447 197.804,110.422 197.838 C 110.397 197.872,110.353 197.983,110.325 198.085 C 110.296 198.187,110.185 198.470,110.078 198.714 C 109.971 198.957,109.952 199.225,110.035 199.308 C 110.119 199.392,110.061 199.612,109.907 199.798 C 109.753 199.984,109.697 200.206,109.784 200.292 C 109.870 200.378,109.835 200.575,109.707 200.729 C 109.579 200.883,109.428 201.394,109.372 201.864 C 109.315 202.333,109.177 202.939,109.063 203.210 C 108.950 203.481,108.857 204.064,108.857 204.507 C 108.857 204.950,108.756 205.312,108.633 205.312 C 108.510 205.312,108.472 205.475,108.548 205.675 C 108.625 205.874,108.571 206.109,108.430 206.197 C 108.288 206.284,108.227 206.566,108.294 206.822 C 108.361 207.078,108.307 207.355,108.175 207.437 C 108.043 207.519,107.989 207.727,108.055 207.901 C 108.122 208.075,108.074 208.319,107.948 208.445 C 107.822 208.571,107.675 209.168,107.621 209.772 C 107.567 210.376,107.498 210.899,107.467 210.933 C 107.437 210.967,107.388 211.078,107.360 211.180 C 107.331 211.282,107.243 211.532,107.164 211.736 C 106.702 212.931,106.856 212.989,110.294 212.916 L 113.527 212.847 113.601 212.230 C 113.775 210.793,113.815 210.586,113.974 210.329 C 114.066 210.181,114.184 209.631,114.238 209.106 C 114.291 208.582,114.399 207.986,114.478 207.783 C 114.557 207.579,114.671 206.967,114.731 206.424 C 114.944 204.499,114.794 204.571,118.602 204.571 C 122.310 204.571,122.183 204.522,122.449 206.053 C 122.485 206.257,122.569 206.702,122.637 207.041 C 122.705 207.381,122.820 208.048,122.892 208.524 C 123.228 210.736,123.354 211.383,123.491 211.612 C 123.572 211.748,123.642 212.081,123.647 212.353 C 123.656 212.821,123.847 212.851,127.177 212.916 C 130.668 212.984,131.235 212.850,130.513 212.127 C 130.411 212.025,130.313 211.840,130.296 211.715 C 130.279 211.590,130.241 211.461,130.210 211.427 C 130.180 211.393,130.110 210.871,130.056 210.266 C 130.002 209.662,129.855 209.065,129.730 208.939 C 129.604 208.813,129.560 208.557,129.632 208.370 C 129.704 208.183,129.665 208.030,129.547 208.030 C 129.428 208.030,129.319 207.586,129.305 207.043 C 129.291 206.501,129.155 205.907,129.002 205.723 C 128.850 205.540,128.796 205.320,128.882 205.233 C 128.968 205.147,128.913 204.925,128.759 204.739 C 128.605 204.554,128.547 204.333,128.631 204.250 C 128.714 204.166,128.695 203.899,128.588 203.655 C 128.481 203.411,128.370 203.128,128.341 203.027 C 128.313 202.925,128.264 202.813,128.234 202.779 C 128.203 202.746,128.134 202.223,128.080 201.619 C 128.026 201.015,127.879 200.417,127.753 200.292 C 127.628 200.166,127.584 199.910,127.655 199.723 C 127.727 199.536,127.689 199.382,127.570 199.382 C 127.451 199.382,127.343 198.938,127.328 198.396 C 127.314 197.853,127.178 197.259,127.026 197.076 C 126.874 196.893,126.820 196.672,126.906 196.586 C 126.992 196.500,126.936 196.278,126.782 196.092 C 126.628 195.906,126.570 195.686,126.654 195.603 C 126.738 195.519,126.718 195.251,126.611 195.008 C 126.504 194.764,126.393 194.481,126.365 194.379 C 126.336 194.277,126.288 194.166,126.257 194.132 C 126.227 194.098,126.157 193.576,126.103 192.972 C 126.049 192.367,125.902 191.770,125.777 191.644 C 125.651 191.519,125.607 191.263,125.679 191.076 C 125.751 190.888,125.712 190.735,125.594 190.735 C 125.475 190.735,125.366 190.291,125.352 189.749 C 125.338 189.206,125.201 188.612,125.049 188.429 C 124.897 188.245,124.843 188.025,124.929 187.939 C 125.015 187.853,124.960 187.630,124.806 187.445 C 124.652 187.259,124.594 187.039,124.678 186.955 C 124.761 186.872,124.742 186.604,124.635 186.360 C 124.528 186.117,124.417 185.834,124.388 185.732 C 124.360 185.630,124.311 185.519,124.281 185.485 C 124.250 185.451,124.181 184.929,124.127 184.324 C 124.073 183.720,123.926 183.123,123.800 182.997 C 123.674 182.871,123.630 182.615,123.702 182.428 C 123.774 182.241,123.698 182.088,123.533 182.088 C 123.359 182.088,123.297 181.921,123.385 181.691 C 123.469 181.472,123.421 180.861,123.279 180.332 L 123.020 179.370 118.665 179.370 C 116.269 179.370,114.382 179.443,114.472 179.533 M145.216 196.170 L 145.282 212.971 148.367 212.971 L 151.452 212.971 151.452 196.170 L 151.452 179.370 148.301 179.370 L 145.151 179.370 145.216 196.170 M156.887 196.164 L 156.887 212.971 159.975 212.971 L 163.064 212.971 163.064 207.597 C 163.065 204.642,162.942 200.186,162.791 197.695 C 162.641 195.204,162.598 192.535,162.697 191.765 L 162.876 190.364 163.192 191.106 C 163.365 191.513,163.697 192.347,163.928 192.959 C 164.159 193.570,164.524 194.460,164.739 194.935 C 164.953 195.411,165.104 195.939,165.073 196.109 C 165.043 196.279,165.141 196.418,165.291 196.418 C 165.441 196.418,165.505 196.512,165.433 196.628 C 165.362 196.744,165.454 197.045,165.638 197.297 C 165.823 197.549,165.918 197.899,165.851 198.075 C 165.784 198.250,165.858 198.394,166.017 198.394 C 166.175 198.394,166.246 198.489,166.174 198.605 C 166.103 198.721,166.195 199.022,166.379 199.274 C 166.564 199.526,166.660 199.876,166.592 200.051 C 166.525 200.227,166.574 200.371,166.702 200.371 C 166.830 200.371,166.935 200.510,166.936 200.679 C 166.940 201.140,168.798 206.053,168.969 206.053 C 169.050 206.053,169.134 206.356,169.156 206.725 C 169.177 207.095,169.317 207.438,169.466 207.487 C 169.615 207.537,169.675 207.679,169.598 207.804 C 169.521 207.928,169.548 208.030,169.658 208.030 C 169.768 208.030,169.875 208.332,169.897 208.702 C 169.918 209.071,170.058 209.414,170.207 209.464 C 170.357 209.514,170.416 209.656,170.339 209.780 C 170.262 209.904,170.324 210.006,170.476 210.006 C 170.628 210.006,170.685 210.114,170.604 210.246 C 170.522 210.378,170.696 211.045,170.990 211.728 L 171.525 212.971 174.830 212.971 L 178.135 212.971 178.135 196.170 L 178.135 179.370 175.059 179.370 L 171.984 179.370 172.033 190.752 C 172.072 199.817,172.021 201.993,171.784 201.438 C 171.620 201.055,171.481 200.602,171.475 200.432 C 171.469 200.263,171.356 200.124,171.225 200.124 C 171.093 200.124,171.049 199.957,171.127 199.753 C 171.206 199.549,171.140 199.382,170.982 199.382 C 170.823 199.382,170.752 199.288,170.824 199.172 C 170.895 199.056,170.803 198.755,170.619 198.503 C 170.434 198.250,170.339 197.901,170.406 197.725 C 170.473 197.549,170.399 197.406,170.240 197.406 C 170.082 197.406,170.011 197.311,170.083 197.195 C 170.154 197.079,170.062 196.778,169.878 196.526 C 169.693 196.274,169.597 195.924,169.665 195.748 C 169.732 195.573,169.664 195.429,169.514 195.429 C 169.363 195.429,169.261 195.346,169.285 195.244 C 169.343 195.006,168.929 193.696,168.252 191.970 C 167.959 191.223,167.611 190.250,167.480 189.809 C 167.348 189.367,167.162 189.005,167.067 189.005 C 166.971 189.005,166.876 188.703,166.854 188.334 C 166.833 187.964,166.693 187.621,166.544 187.571 C 166.395 187.522,166.335 187.379,166.412 187.255 C 166.489 187.131,166.462 187.029,166.352 187.029 C 166.242 187.029,166.134 186.726,166.113 186.357 C 166.091 185.988,165.952 185.645,165.803 185.595 C 165.653 185.545,165.594 185.403,165.671 185.278 C 165.748 185.154,165.686 185.053,165.534 185.053 C 165.382 185.053,165.319 184.954,165.394 184.833 C 165.468 184.712,165.097 183.461,164.569 182.053 L 163.608 179.494 160.247 179.425 L 156.887 179.356 156.887 196.164 M181.414 179.864 C 181.394 180.136,181.458 180.358,181.556 180.358 C 181.655 180.358,181.754 180.820,181.777 181.384 C 181.799 181.949,181.925 182.518,182.057 182.650 C 182.188 182.781,182.242 183.031,182.175 183.205 C 182.109 183.378,182.162 183.587,182.295 183.669 C 182.427 183.751,182.481 184.027,182.414 184.284 C 182.347 184.540,182.408 184.821,182.550 184.909 C 182.691 184.997,182.745 185.232,182.668 185.431 C 182.592 185.630,182.654 185.794,182.807 185.794 C 182.977 185.794,183.028 186.023,182.937 186.384 C 182.856 186.709,182.904 187.046,183.045 187.134 C 183.186 187.221,183.239 187.455,183.162 187.655 C 183.086 187.854,183.123 188.017,183.244 188.017 C 183.366 188.017,183.484 188.479,183.506 189.043 C 183.529 189.608,183.655 190.177,183.786 190.309 C 183.918 190.440,183.971 190.690,183.905 190.864 C 183.838 191.037,183.892 191.246,184.024 191.328 C 184.157 191.410,184.210 191.686,184.143 191.943 C 184.076 192.199,184.137 192.480,184.279 192.568 C 184.421 192.656,184.474 192.891,184.398 193.090 C 184.321 193.290,184.384 193.453,184.537 193.453 C 184.707 193.453,184.757 193.683,184.667 194.043 C 184.585 194.368,184.634 194.705,184.775 194.793 C 184.916 194.880,184.968 195.114,184.892 195.314 C 184.815 195.513,184.852 195.676,184.974 195.676 C 185.095 195.676,185.213 196.138,185.235 196.702 C 185.258 197.267,185.384 197.836,185.516 197.968 C 185.647 198.100,185.701 198.349,185.634 198.523 C 185.567 198.696,185.621 198.905,185.754 198.987 C 185.886 199.069,185.940 199.345,185.873 199.602 C 185.805 199.858,185.867 200.139,186.008 200.227 C 186.150 200.315,186.204 200.550,186.127 200.749 C 186.051 200.949,186.118 201.112,186.278 201.112 C 186.458 201.112,186.507 201.304,186.408 201.618 C 186.319 201.896,186.358 202.257,186.493 202.421 C 186.629 202.584,186.749 202.801,186.761 202.903 C 186.773 203.005,186.793 203.116,186.807 203.150 C 186.820 203.184,186.875 203.706,186.929 204.311 C 186.983 204.915,187.130 205.512,187.256 205.638 C 187.382 205.763,187.430 206.008,187.363 206.182 C 187.297 206.355,187.351 206.564,187.483 206.646 C 187.616 206.728,187.669 207.005,187.602 207.261 C 187.535 207.517,187.596 207.799,187.738 207.886 C 187.880 207.974,187.937 208.197,187.866 208.383 C 187.795 208.569,187.850 208.791,187.990 208.877 C 188.129 208.963,188.180 209.198,188.102 209.400 C 188.025 209.601,188.076 209.903,188.216 210.071 C 188.355 210.239,188.479 210.460,188.490 210.562 C 188.502 210.664,188.528 210.831,188.548 210.933 C 188.618 211.288,188.686 211.863,188.722 212.415 C 188.758 212.969,188.773 212.971,193.109 212.971 C 196.832 212.971,197.439 212.919,197.319 212.608 C 197.243 212.409,197.296 212.174,197.438 212.086 C 197.580 211.999,197.641 211.717,197.574 211.461 C 197.507 211.205,197.556 210.931,197.683 210.853 C 197.809 210.774,197.891 210.580,197.863 210.420 C 197.836 210.260,197.951 209.646,198.120 209.054 C 198.289 208.462,198.368 207.823,198.295 207.633 C 198.222 207.444,198.283 207.288,198.431 207.288 C 198.578 207.288,198.641 207.066,198.570 206.795 C 198.499 206.523,198.544 206.237,198.671 206.158 C 198.798 206.080,198.879 205.885,198.851 205.726 C 198.824 205.566,198.940 204.951,199.108 204.360 C 199.277 203.768,199.356 203.128,199.283 202.939 C 199.210 202.749,199.271 202.594,199.419 202.594 C 199.566 202.594,199.629 202.372,199.558 202.100 C 199.487 201.829,199.522 201.549,199.637 201.478 C 199.751 201.407,199.850 201.157,199.855 200.922 C 199.869 200.324,200.023 199.581,200.235 199.085 C 200.334 198.854,200.335 198.536,200.237 198.378 C 200.140 198.221,200.180 198.018,200.326 197.927 C 200.473 197.837,200.639 197.377,200.696 196.905 C 200.752 196.433,200.883 195.848,200.986 195.604 C 201.089 195.360,201.104 195.093,201.021 195.009 C 200.937 194.925,200.992 194.709,201.142 194.529 C 201.291 194.348,201.344 194.018,201.259 193.795 C 201.173 193.572,201.215 193.255,201.352 193.090 C 201.489 192.925,201.637 192.461,201.681 192.060 C 201.725 191.659,201.847 191.191,201.953 191.021 C 202.058 190.851,202.083 190.553,202.009 190.361 C 201.935 190.168,201.986 189.941,202.123 189.856 C 202.259 189.772,202.346 189.518,202.315 189.293 C 202.285 189.067,202.388 188.444,202.544 187.908 C 202.700 187.372,202.776 186.882,202.713 186.819 C 202.650 186.756,202.721 186.556,202.871 186.375 C 203.021 186.195,203.080 185.882,203.003 185.681 C 202.926 185.480,202.974 185.246,203.111 185.162 C 203.247 185.078,203.337 184.824,203.309 184.598 C 203.282 184.372,203.325 184.021,203.405 183.817 C 203.583 183.361,204.324 179.988,204.324 179.630 C 204.324 179.461,203.136 179.370,200.913 179.370 L 197.502 179.370 197.038 182.149 C 196.784 183.678,196.553 185.207,196.526 185.547 C 196.499 185.886,196.396 186.359,196.297 186.597 C 196.198 186.834,196.180 187.192,196.257 187.392 C 196.333 187.591,196.279 187.827,196.136 187.915 C 195.994 188.003,195.928 188.343,195.991 188.670 C 196.053 188.997,196.010 189.323,195.894 189.394 C 195.778 189.466,195.683 189.769,195.683 190.068 C 195.682 190.367,195.622 190.945,195.548 191.353 C 195.475 191.760,195.368 192.427,195.312 192.835 C 195.255 193.243,194.815 195.792,194.334 198.500 C 193.852 201.208,193.512 203.477,193.577 203.542 C 193.642 203.607,193.572 203.809,193.421 203.991 C 193.271 204.172,193.207 204.550,193.281 204.831 C 193.361 205.138,193.307 205.304,193.144 205.250 C 192.995 205.201,192.847 204.944,192.815 204.680 C 192.487 202.025,192.395 201.450,192.266 201.240 C 192.107 200.980,192.104 200.960,191.844 198.888 C 191.751 198.141,191.607 197.420,191.525 197.287 C 191.366 197.027,191.362 197.007,191.103 194.935 C 191.010 194.188,190.866 193.467,190.784 193.334 C 190.625 193.074,190.621 193.054,190.362 190.982 C 190.268 190.235,190.125 189.514,190.043 189.381 C 189.884 189.121,189.880 189.101,189.621 187.029 C 189.527 186.282,189.384 185.561,189.302 185.427 C 189.142 185.168,189.139 185.148,188.880 183.076 C 188.786 182.329,188.644 181.611,188.564 181.480 C 188.432 181.265,188.272 180.459,188.208 179.679 C 188.157 179.074,181.460 179.256,181.414 179.864 M208.218 196.170 L 208.284 212.971 217.051 212.971 L 225.818 212.971 225.818 210.130 L 225.818 207.288 220.146 207.288 L 214.474 207.288 214.402 202.656 L 214.330 198.023 219.518 198.023 L 224.707 198.023 224.707 195.429 L 224.707 192.835 219.518 192.835 L 214.330 192.835 214.403 188.944 L 214.477 185.053 220.024 185.053 L 225.571 185.053 225.571 182.211 L 225.571 179.370 216.862 179.370 L 208.153 179.370 208.218 196.170 M252.254 182.211 L 252.254 185.053 255.960 185.053 L 259.666 185.053 259.666 199.012 L 259.666 212.971 262.755 212.971 L 265.843 212.971 265.843 199.012 L 265.843 185.053 269.287 185.053 L 272.731 185.053 272.808 182.211 L 272.884 179.369 262.569 179.369 L 252.254 179.370 252.254 182.211 M276.220 196.170 L 276.220 212.971 279.339 212.971 L 282.458 212.971 282.355 198.765 C 282.295 190.438,282.344 184.558,282.474 184.558 C 282.596 184.558,282.628 184.737,282.544 184.955 C 282.460 185.174,282.524 185.813,282.685 186.376 C 282.846 186.939,282.954 187.495,282.926 187.611 C 282.897 187.727,282.987 187.960,283.127 188.128 C 283.266 188.296,283.321 188.493,283.249 188.565 C 283.123 188.691,283.757 191.946,284.057 192.712 C 284.137 192.915,284.180 193.267,284.152 193.493 C 284.125 193.718,284.214 193.972,284.350 194.056 C 284.487 194.141,284.538 194.368,284.464 194.561 C 284.390 194.754,284.415 195.051,284.521 195.221 C 284.626 195.391,284.748 195.859,284.792 196.260 C 284.836 196.662,284.984 197.125,285.121 197.290 C 285.258 197.455,285.302 197.766,285.220 197.980 C 285.138 198.195,285.158 198.513,285.266 198.687 C 285.470 199.017,285.612 199.699,285.630 200.428 C 285.635 200.663,285.734 200.913,285.848 200.984 C 285.962 201.054,285.998 201.335,285.927 201.606 C 285.856 201.878,285.918 202.100,286.066 202.100 C 286.213 202.100,286.275 202.255,286.202 202.445 C 286.129 202.634,286.208 203.274,286.376 203.865 C 286.545 204.457,286.661 205.072,286.633 205.232 C 286.606 205.391,286.693 205.589,286.826 205.672 C 286.960 205.754,287.006 205.987,286.929 206.188 C 286.852 206.389,286.911 206.701,287.061 206.882 C 287.211 207.063,287.265 207.279,287.182 207.362 C 287.098 207.446,287.114 207.714,287.216 207.957 C 287.319 208.201,287.444 208.713,287.494 209.095 C 287.543 209.477,287.692 209.991,287.823 210.236 C 287.954 210.482,287.996 210.748,287.916 210.828 C 287.836 210.908,287.856 211.172,287.961 211.416 C 288.065 211.660,288.162 212.082,288.176 212.353 C 288.211 213.008,292.388 213.130,292.422 212.477 C 292.433 212.273,292.580 211.622,292.748 211.030 C 292.916 210.439,292.994 209.799,292.921 209.610 C 292.848 209.420,292.909 209.265,293.057 209.265 C 293.204 209.265,293.267 209.043,293.196 208.771 C 293.125 208.499,293.160 208.219,293.275 208.149 C 293.389 208.078,293.488 207.828,293.493 207.592 C 293.507 206.995,293.661 206.252,293.873 205.756 C 293.972 205.525,293.977 205.214,293.886 205.066 C 293.794 204.918,293.839 204.652,293.985 204.475 C 294.132 204.299,294.293 203.831,294.345 203.436 C 294.396 203.041,294.518 202.528,294.616 202.297 C 294.714 202.066,294.726 201.768,294.644 201.635 C 294.562 201.502,294.613 201.320,294.758 201.231 C 294.902 201.141,294.996 200.883,294.965 200.658 C 294.935 200.432,295.038 199.809,295.194 199.273 C 295.350 198.737,295.426 198.247,295.363 198.184 C 295.300 198.121,295.357 197.938,295.490 197.778 C 295.623 197.617,295.782 196.996,295.844 196.396 C 295.906 195.796,295.980 195.250,296.009 195.182 C 296.037 195.114,296.080 194.947,296.104 194.812 C 296.128 194.676,296.286 194.080,296.454 193.489 C 296.622 192.897,296.703 192.265,296.633 192.084 C 296.564 191.903,296.605 191.720,296.724 191.677 C 296.843 191.635,297.010 191.099,297.096 190.488 C 297.305 189.003,297.367 188.709,297.579 188.214 C 297.678 187.983,297.683 187.673,297.592 187.524 C 297.500 187.376,297.545 187.110,297.691 186.934 C 297.838 186.757,297.999 186.290,298.051 185.895 C 298.102 185.499,298.224 184.987,298.322 184.756 C 298.420 184.524,298.432 184.226,298.350 184.093 C 298.268 183.960,298.331 183.771,298.490 183.672 C 298.710 183.536,298.741 184.678,298.616 188.411 C 298.525 191.116,298.380 197.749,298.292 203.150 L 298.133 212.971 301.132 212.971 L 304.132 212.971 304.197 196.170 L 304.262 179.370 299.506 179.370 L 294.750 179.370 294.712 179.926 C 294.662 180.672,294.613 180.897,294.387 181.419 C 294.281 181.663,294.263 181.930,294.347 182.014 C 294.430 182.097,294.376 182.314,294.226 182.494 C 294.076 182.675,294.017 182.987,294.094 183.188 C 294.171 183.390,294.135 183.616,294.014 183.691 C 293.892 183.766,293.788 184.019,293.783 184.254 C 293.769 184.852,293.615 185.595,293.403 186.091 C 293.305 186.322,293.299 186.633,293.390 186.781 C 293.482 186.929,293.437 187.195,293.291 187.371 C 293.145 187.548,292.983 188.015,292.932 188.411 C 292.880 188.806,292.756 189.324,292.656 189.561 C 292.555 189.799,292.535 190.153,292.609 190.348 C 292.684 190.544,292.646 190.738,292.524 190.781 C 292.403 190.824,292.257 191.248,292.201 191.723 C 292.144 192.199,292.014 192.787,291.911 193.031 C 291.808 193.275,291.792 193.542,291.876 193.626 C 291.959 193.710,291.905 193.926,291.755 194.106 C 291.605 194.287,291.546 194.599,291.623 194.801 C 291.700 195.002,291.654 195.234,291.521 195.316 C 291.387 195.399,291.300 195.597,291.328 195.757 C 291.355 195.916,291.246 196.508,291.085 197.071 C 290.924 197.633,290.856 198.262,290.935 198.466 C 291.013 198.671,290.959 198.912,290.814 199.001 C 290.668 199.091,290.550 199.394,290.550 199.674 C 290.550 200.090,290.484 200.130,290.194 199.889 C 289.998 199.726,289.897 199.440,289.969 199.253 C 290.041 199.065,290.013 198.773,289.908 198.602 C 289.803 198.432,289.681 197.965,289.637 197.563 C 289.593 197.162,289.437 196.689,289.291 196.513 C 289.145 196.336,289.095 196.079,289.181 195.940 C 289.266 195.801,289.201 195.213,289.035 194.632 C 288.869 194.051,288.756 193.446,288.784 193.286 C 288.811 193.126,288.730 192.932,288.603 192.853 C 288.476 192.775,288.427 192.501,288.494 192.245 C 288.561 191.989,288.506 191.711,288.371 191.627 C 288.236 191.544,288.180 191.266,288.247 191.010 C 288.314 190.753,288.253 190.472,288.111 190.384 C 287.970 190.297,287.912 190.073,287.983 189.887 C 288.054 189.702,288.004 189.483,287.872 189.401 C 287.740 189.319,287.689 189.030,287.760 188.758 C 287.832 188.487,287.769 188.264,287.621 188.264 C 287.474 188.264,287.417 188.098,287.496 187.894 C 287.574 187.690,287.556 187.329,287.455 187.091 C 287.355 186.853,287.231 186.335,287.180 185.940 C 287.128 185.545,286.974 185.086,286.837 184.921 C 286.700 184.756,286.655 184.445,286.738 184.231 C 286.820 184.016,286.800 183.698,286.692 183.525 C 286.488 183.194,286.346 182.513,286.328 181.784 C 286.323 181.549,286.219 181.295,286.098 181.220 C 285.976 181.145,285.940 180.919,286.017 180.718 C 286.095 180.517,286.035 180.204,285.885 180.024 C 285.735 179.843,285.686 179.622,285.775 179.533 C 285.865 179.443,283.751 179.370,281.079 179.370 L 276.220 179.370 276.220 196.170 M310.068 196.170 L 310.068 212.971 318.715 212.971 L 327.363 212.971 327.363 210.130 L 327.363 207.288 321.927 207.288 L 316.492 207.288 316.492 202.723 L 316.492 198.157 321.495 198.090 L 326.498 198.023 326.498 195.429 L 326.498 192.835 321.495 192.768 L 316.492 192.701 316.492 188.877 L 316.492 185.053 321.789 185.053 L 327.086 185.053 327.162 182.211 L 327.239 179.369 318.653 179.369 L 310.068 179.370 310.068 196.170 M332.057 196.164 L 332.057 212.971 335.145 212.971 L 338.233 212.971 338.234 207.597 C 338.235 204.642,338.112 200.186,337.961 197.695 C 337.811 195.204,337.768 192.535,337.867 191.765 L 338.046 190.364 338.362 191.106 C 338.535 191.513,338.866 192.347,339.098 192.959 C 339.329 193.570,339.694 194.460,339.908 194.935 C 340.123 195.411,340.273 195.939,340.243 196.109 C 340.213 196.279,340.311 196.418,340.461 196.418 C 340.611 196.418,340.675 196.512,340.603 196.628 C 340.531 196.744,340.624 197.045,340.808 197.297 C 340.992 197.549,341.088 197.899,341.021 198.075 C 340.953 198.250,341.028 198.394,341.186 198.394 C 341.345 198.394,341.416 198.489,341.344 198.605 C 341.273 198.721,341.365 199.022,341.549 199.274 C 341.734 199.526,341.829 199.876,341.762 200.051 C 341.695 200.227,341.744 200.371,341.872 200.371 C 342.000 200.371,342.105 200.510,342.106 200.679 C 342.109 201.140,343.968 206.053,344.139 206.053 C 344.220 206.053,344.304 206.356,344.326 206.725 C 344.347 207.095,344.487 207.438,344.636 207.487 C 344.785 207.537,344.844 207.679,344.768 207.804 C 344.691 207.928,344.718 208.030,344.828 208.030 C 344.938 208.030,345.045 208.332,345.067 208.702 C 345.088 209.071,345.228 209.414,345.377 209.464 C 345.526 209.514,345.586 209.656,345.509 209.780 C 345.432 209.904,345.494 210.006,345.645 210.006 C 345.797 210.006,345.855 210.114,345.774 210.246 C 345.692 210.378,345.866 211.045,346.160 211.728 L 346.695 212.971 350.000 212.971 L 353.305 212.971 353.305 196.170 L 353.305 179.370 350.229 179.370 L 347.154 179.370 347.203 190.735 C 347.229 196.986,347.237 202.100,347.220 202.100 C 347.203 202.100,346.821 201.072,346.371 199.815 C 345.922 198.558,345.436 197.448,345.291 197.348 C 345.146 197.248,345.115 197.165,345.222 197.163 C 345.328 197.160,345.277 196.909,345.108 196.603 C 344.939 196.297,344.829 195.908,344.863 195.738 C 344.898 195.568,344.803 195.429,344.653 195.429 C 344.504 195.429,344.440 195.334,344.511 195.219 C 344.583 195.103,344.491 194.802,344.306 194.550 C 344.122 194.297,344.026 193.947,344.093 193.772 C 344.161 193.596,344.086 193.453,343.928 193.453 C 343.769 193.453,343.698 193.358,343.770 193.242 C 343.842 193.126,343.749 192.825,343.565 192.573 C 343.381 192.321,343.285 191.971,343.352 191.795 C 343.420 191.620,343.345 191.476,343.187 191.476 C 343.028 191.476,342.957 191.381,343.029 191.266 C 343.100 191.150,343.008 190.849,342.824 190.596 C 342.639 190.344,342.544 189.994,342.611 189.819 C 342.678 189.643,342.604 189.500,342.445 189.500 C 342.287 189.500,342.216 189.405,342.288 189.289 C 342.359 189.173,342.267 188.872,342.083 188.620 C 341.898 188.368,341.802 188.018,341.870 187.842 C 341.937 187.667,341.869 187.523,341.719 187.523 C 341.568 187.523,341.466 187.440,341.490 187.338 C 341.548 187.101,341.136 185.795,340.458 184.064 C 340.165 183.317,339.829 182.427,339.711 182.088 C 339.593 181.748,339.334 181.025,339.135 180.482 L 338.774 179.494 335.416 179.425 L 332.057 179.356 332.057 196.164 M356.269 182.211 L 356.269 185.053 359.852 185.053 L 363.434 185.053 363.434 199.012 L 363.434 212.971 366.770 212.971 L 370.105 212.971 370.105 199.012 L 370.105 185.053 373.687 185.053 L 377.270 185.053 377.270 182.211 L 377.270 179.370 366.770 179.370 L 356.269 179.370 356.269 182.211 M43.390 187.440 C 43.454 187.825,43.502 188.385,43.498 188.684 C 43.494 188.983,43.602 189.297,43.739 189.381 C 43.875 189.465,43.919 189.643,43.836 189.776 C 43.754 189.909,43.768 190.207,43.867 190.438 C 43.965 190.669,44.085 191.081,44.132 191.353 C 44.179 191.624,44.266 192.125,44.326 192.464 C 44.575 193.879,44.655 194.381,44.829 195.615 C 44.930 196.328,45.089 196.912,45.183 196.912 C 45.276 196.912,45.377 197.468,45.406 198.147 L 45.460 199.382 42.963 199.382 L 40.465 199.382 40.634 198.709 C 40.868 197.776,41.240 195.704,41.336 194.800 C 41.380 194.387,41.481 193.942,41.560 193.812 C 41.723 193.547,42.062 191.154,42.057 190.303 C 42.055 189.997,42.166 189.747,42.303 189.747 C 42.441 189.747,42.495 189.525,42.424 189.253 C 42.353 188.981,42.401 188.693,42.530 188.613 C 42.660 188.533,42.739 188.283,42.707 188.057 C 42.636 187.565,42.984 186.447,43.155 186.618 C 43.221 186.684,43.327 187.054,43.390 187.440 M119.005 187.590 C 119.045 187.893,119.127 188.419,119.187 188.758 C 119.436 190.173,119.516 190.675,119.690 191.909 C 119.791 192.622,119.986 193.206,120.124 193.206 C 120.261 193.206,120.318 193.352,120.249 193.531 C 120.180 193.711,120.230 194.350,120.360 194.952 C 120.490 195.554,120.592 196.292,120.586 196.591 C 120.580 196.890,120.687 197.203,120.823 197.287 C 120.959 197.371,121.007 197.542,120.930 197.667 C 120.853 197.791,120.891 198.256,121.013 198.700 L 121.237 199.506 118.679 199.428 C 117.272 199.385,116.121 199.297,116.121 199.232 C 116.121 199.168,116.285 198.313,116.485 197.334 C 116.685 196.354,116.919 195.053,117.005 194.441 C 117.229 192.846,117.271 192.631,117.437 192.217 C 117.626 191.749,117.904 189.838,117.914 188.944 C 117.918 188.570,118.024 188.264,118.149 188.264 C 118.274 188.264,118.344 188.070,118.305 187.832 C 118.224 187.341,118.566 186.674,118.786 186.894 C 118.866 186.974,118.964 187.287,119.005 187.590 " stroke="none" fill="#049ce3" fill-rule="evenodd"></path><path id="path3" d="" stroke="none" fill="#2c84a4" fill-rule="evenodd"></path><path id="path4" d="M149.599 124.768 C 150.679 125.855,151.619 126.745,151.687 126.745 C 151.755 126.745,150.926 125.855,149.846 124.768 C 148.765 123.681,147.825 122.792,147.757 122.792 C 147.689 122.792,148.518 123.681,149.599 124.768 " stroke="none" fill="#347c9c" fill-rule="evenodd"></path></g></svg>