<?xml version="1.0" standalone="no"?>
<!DOCTYPE svg PUBLIC "-//W3C//DTD SVG 20010904//EN"
 "http://www.w3.org/TR/2001/REC-SVG-20010904/DTD/svg10.dtd">
<svg version="1.0" xmlns="http://www.w3.org/2000/svg"
 width="133.000000pt" height="61.000000pt" viewBox="0 0 133.000000 61.000000"
 preserveAspectRatio="xMidYMid meet">

<g transform="translate(0.000000,61.000000) scale(0.100000,-0.100000)"
fill="#000000" stroke="none">
<path d="M640 515 c0 -22 -4 -25 -33 -25 -27 0 -36 -5 -46 -27 -12 -27 -13
-27 -27 -8 -8 10 -14 22 -14 27 0 4 -11 8 -24 8 l-24 0 21 -39 22 -39 -23 -41
c-23 -41 -23 -41 -2 -41 12 0 25 10 32 25 6 14 14 25 18 25 4 0 12 -11 18 -25
7 -15 20 -25 32 -25 25 0 25 5 -1 46 -20 32 -20 35 -3 63 22 37 38 24 47 -39
6 -47 29 -73 61 -68 27 4 32 28 7 35 -17 4 -21 13 -21 44 0 28 4 39 15 39 8 0
15 9 15 20 0 11 -7 20 -15 20 -9 0 -15 9 -15 25 0 18 -5 25 -20 25 -15 0 -20
-7 -20 -25z"/>
<path d="M752 514 c-18 -12 -20 -19 -12 -29 9 -11 16 -11 30 -3 23 14 50 4 50
-20 0 -10 -20 -38 -45 -62 -63 -62 -60 -70 25 -70 63 0 70 2 70 20 0 16 -7 20
-36 20 l-36 0 31 35 c38 43 41 87 9 109 -29 20 -58 20 -86 0z"/>
<path d="M160 410 c0 -73 2 -80 20 -80 16 0 19 8 22 58 3 50 6 57 26 60 21 3
22 0 22 -57 0 -58 1 -61 25 -61 24 0 25 3 25 59 0 43 -5 65 -19 82 -18 22 -22
23 -53 11 -21 -8 -34 -9 -36 -2 -2 5 -10 10 -18 10 -11 0 -14 -18 -14 -80z"/>
<path d="M350 470 c-61 -61 -12 -153 72 -135 41 9 36 35 -6 35 -18 0 -39 7
-46 15 -11 13 -6 15 39 15 48 0 51 2 51 25 0 56 -70 85 -110 45z m63 -27 c-7
-2 -21 -2 -30 0 -10 3 -4 5 12 5 17 0 24 -2 18 -5z"/>
<path d="M915 465 c-16 -15 -25 -36 -25 -55 0 -38 39 -80 75 -80 36 0 75 42
75 80 0 38 -39 80 -75 80 -14 0 -37 -11 -50 -25z m75 -35 c14 -26 -3 -60 -30
-60 -21 0 -34 31 -25 60 3 11 15 20 25 20 11 0 24 -9 30 -20z"/>
<path d="M1079 469 c-14 -14 -19 -28 -14 -42 9 -31 10 -95 2 -104 -14 -13 -6
-43 14 -54 41 -22 129 10 129 47 0 24 -31 44 -71 44 -21 0 -39 5 -39 10 0 6 9
10 21 10 34 0 59 19 59 45 0 14 5 25 10 25 6 0 10 9 10 20 0 17 -7 20 -50 20
-37 0 -55 -5 -71 -21z m69 -36 c5 -17 -26 -29 -40 -15 -6 6 -7 15 -3 22 9 14
37 9 43 -7z m17 -123 c-3 -5 -22 -10 -41 -10 -19 0 -34 5 -34 10 0 6 18 10 41
10 24 0 38 -4 34 -10z"/>
<path d="M523 140 c-1 -41 1 -48 6 -25 4 20 12 30 24 29 9 -1 17 3 17 8 0 6
-9 8 -19 5 -15 -3 -21 1 -24 17 -2 11 -4 -4 -4 -34z"/>
<path d="M1093 140 c0 -30 2 -43 4 -28 2 16 2 40 0 56 -2 15 -4 2 -4 -28z"/>
<path d="M700 166 c-15 -20 -9 -56 12 -70 14 -8 21 -6 35 9 16 17 17 18 1 6
-25 -18 -48 -7 -48 24 0 31 24 42 48 24 15 -13 16 -12 3 4 -16 21 -35 22 -51
3z"/>
<path d="M180 160 c0 -5 5 -10 10 -10 6 0 10 5 10 10 0 6 -4 10 -10 10 -5 0
-10 -4 -10 -10z"/>
<path d="M266 151 c-4 -5 3 -7 14 -4 23 6 26 13 6 13 -8 0 -17 -4 -20 -9z"/>
<path d="M343 154 c18 -6 23 -20 8 -26 -5 -1 -2 -9 6 -17 13 -11 14 -9 11 15
-2 20 -9 29 -23 31 -16 1 -16 1 -2 -3z"/>
<path d="M405 150 c-3 -6 1 -7 9 -4 18 7 21 14 7 14 -6 0 -13 -4 -16 -10z"/>
<path d="M478 153 c7 -3 16 -2 19 1 4 3 -2 6 -13 5 -11 0 -14 -3 -6 -6z"/>
<path d="M599 144 c-16 -19 -1 -48 27 -51 13 -2 11 1 -6 8 l-25 12 25 7 25 8
-25 1 c-24 2 -24 2 -6 16 11 8 15 15 9 15 -6 0 -16 -7 -24 -16z"/>
<path d="M795 150 c-3 -6 1 -7 9 -4 18 7 21 14 7 14 -6 0 -13 -4 -16 -10z"/>
<path d="M875 148 c-10 -28 2 -53 26 -55 24 -1 24 -1 -1 4 -23 5 -24 6 -5 14
17 6 17 8 3 8 -26 1 -22 29 5 34 l22 4 -23 2 c-12 0 -25 -5 -27 -11z"/>
<path d="M943 125 c0 -22 2 -30 4 -17 2 12 2 30 0 40 -3 9 -5 -1 -4 -23z"/>
<path d="M960 156 c0 -2 7 -6 15 -10 8 -3 15 -1 15 4 0 6 -7 10 -15 10 -8 0
-15 -2 -15 -4z"/>
<path d="M1030 156 c0 -2 7 -6 15 -10 8 -3 15 -1 15 4 0 6 -7 10 -15 10 -8 0
-15 -2 -15 -4z"/>
<path d="M1124 148 c-4 -6 0 -16 9 -23 22 -16 21 -22 0 -28 -16 -4 -16 -5 -1
-6 26 -2 33 20 12 36 -16 12 -17 15 -4 23 9 6 10 10 3 10 -6 0 -15 -5 -19 -12z"/>
<path d="M151 130 c0 -8 3 -21 8 -28 6 -11 10 -10 15 4 3 9 4 19 1 22 -3 3 -5
-1 -6 -9 0 -8 -4 -6 -9 6 -6 13 -9 15 -9 5z"/>
<path d="M220 124 c0 -16 -2 -17 -10 -4 -5 8 -10 11 -10 5 0 -5 4 -16 9 -24 7
-11 10 -9 16 8 4 13 4 25 1 28 -3 4 -6 -2 -6 -13z"/>
<path d="M278 133 c-16 -2 -28 -8 -28 -12 0 -13 24 -31 40 -30 9 0 5 5 -10 12
l-25 11 28 4 c15 2 27 8 27 13 0 5 -1 8 -2 8 -2 -1 -15 -4 -30 -6z"/>
<path d="M1020 115 c-10 -12 -9 -16 5 -21 9 -4 21 -2 27 4 8 8 5 9 -11 5 -28
-7 -27 5 2 17 15 6 17 9 6 9 -9 1 -22 -6 -29 -14z"/>
<path d="M327 99 c7 -7 15 -10 18 -7 3 3 -2 9 -12 12 -14 6 -15 5 -6 -5z"/>
<path d="M890 70 c-23 -7 -23 -8 -3 -9 12 -1 25 4 28 9 3 6 5 10 3 9 -2 -1
-14 -5 -28 -9z"/>
</g>
</svg>
