<?xml version="1.0" standalone="no"?>
<!DOCTYPE svg PUBLIC "-//W3C//DTD SVG 20010904//EN"
 "http://www.w3.org/TR/2001/REC-SVG-20010904/DTD/svg10.dtd">
<svg version="1.0" xmlns="http://www.w3.org/2000/svg"
 width="392.000000pt" height="53.000000pt" viewBox="0 0 392.000000 53.000000"
 preserveAspectRatio="xMidYMid meet">

<g transform="translate(0.000000,53.000000) scale(0.100000,-0.100000)"
fill="#000000" stroke="none">
<path d="M1177 493 c-4 -3 -7 -55 -7 -114 0 -111 9 -139 46 -139 19 0 18 26
-1 34 -12 4 -15 27 -15 116 0 101 -5 122 -23 103z"/>
<path d="M2084 475 c-3 -13 -4 -67 -2 -120 2 -71 7 -98 18 -105 35 -23 54 -3
25 26 -11 12 -15 40 -15 120 0 99 -12 136 -26 79z"/>
<path d="M615 481 c-8 -15 3 -31 21 -31 9 0 14 7 12 17 -4 20 -24 28 -33 14z"/>
<path d="M74 470 c-81 -33 -86 -183 -7 -219 66 -30 134 1 154 70 30 100 -55
186 -147 149z m90 -41 c22 -17 26 -28 26 -70 0 -36 -5 -54 -20 -69 -28 -28
-75 -26 -107 6 -22 22 -25 32 -20 72 8 76 65 105 121 61z"/>
<path d="M1350 360 l0 -120 75 0 c60 0 75 3 75 15 0 12 -13 15 -60 15 l-60 0
0 40 0 40 50 0 c38 0 50 4 50 15 0 11 -12 15 -50 15 l-50 0 0 35 0 35 55 0
c42 0 55 3 55 15 0 12 -14 15 -70 15 l-70 0 0 -120z"/>
<path d="M486 463 c-3 -3 -6 -50 -6 -104 0 -89 2 -99 20 -109 26 -14 72 -9 77
7 3 7 -9 13 -29 15 -33 3 -33 3 -36 61 l-3 57 31 0 c20 0 30 5 30 15 0 10 -10
15 -30 15 -23 0 -30 5 -30 19 0 21 -13 34 -24 24z"/>
<path d="M293 414 c-9 -4 -13 -38 -13 -120 0 -95 3 -114 15 -114 10 0 15 10
15 33 0 32 1 33 34 29 71 -8 115 89 68 148 -18 22 -91 37 -119 24z m89 -41
c22 -19 24 -76 4 -92 -8 -7 -27 -11 -43 -9 -27 3 -28 6 -31 61 -3 56 -3 57 24
57 15 0 36 -7 46 -17z"/>
<path d="M620 330 c0 -73 3 -90 15 -90 12 0 15 17 15 90 0 73 -3 90 -15 90
-12 0 -15 -17 -15 -90z"/>
<path d="M718 414 c-15 -5 -18 -18 -18 -90 0 -67 3 -84 15 -84 11 0 15 17 17
73 3 68 4 72 27 75 36 5 51 -22 51 -90 0 -47 3 -58 16 -58 14 0 16 11 12 70
-3 67 -2 71 19 76 39 10 53 -12 53 -82 0 -50 3 -64 15 -64 12 0 15 15 15 75 0
69 -2 76 -25 91 -16 11 -34 14 -53 10 -30 -7 -30 -7 -87 -2 -22 3 -48 2 -57 0z"/>
<path d="M1013 413 c-25 -10 -12 -23 22 -23 24 0 37 -6 45 -20 10 -18 8 -20
-22 -20 -67 0 -102 -56 -59 -94 14 -12 32 -16 67 -14 l49 3 0 73 c0 61 -3 76
-19 88 -19 14 -59 17 -83 7z m75 -120 c3 -20 -1 -23 -32 -23 -40 0 -53 14 -35
36 19 23 63 14 67 -13z"/>
<path d="M1553 413 c-9 -3 -13 -31 -13 -89 0 -68 3 -84 15 -84 12 0 15 15 15
75 l0 75 30 0 c38 0 50 -23 50 -94 0 -43 3 -56 15 -56 12 0 15 14 15 65 0 57
-3 69 -25 90 -23 24 -69 32 -102 18z"/>
<path d="M1711 403 c0 -10 13 -49 28 -88 39 -95 56 -94 92 5 32 87 34 100 15
100 -8 0 -19 -19 -26 -47 -6 -27 -17 -59 -24 -72 -13 -24 -14 -22 -37 47 -13
41 -29 72 -36 72 -7 0 -13 -8 -12 -17z"/>
<path d="M1914 397 c-20 -18 -27 -33 -28 -66 -1 -56 37 -94 92 -89 50 4 55 28
5 28 -40 0 -63 14 -63 37 0 9 18 13 61 13 l61 0 -7 33 c-13 64 -72 86 -121 44z
m82 -24 c17 -17 16 -18 -25 -21 -50 -4 -59 1 -41 23 17 20 44 19 66 -2z"/>
<path d="M2195 395 c-54 -53 -18 -155 55 -155 41 0 80 39 80 79 0 86 -80 132
-135 76z m87 -22 c22 -20 24 -66 2 -87 -21 -22 -61 -20 -74 3 -34 64 22 130
72 84z"/>
<path d="M2393 413 c-9 -3 -13 -37 -13 -119 0 -95 3 -114 15 -114 10 0 15 10
15 33 0 32 1 33 34 29 66 -8 106 63 75 131 -17 38 -82 58 -126 40z m89 -40
c40 -36 14 -107 -37 -101 -29 3 -30 5 -33 61 -3 56 -3 57 24 57 15 0 36 -7 46
-17z"/>
<path d="M2595 395 c-53 -53 -18 -155 54 -155 16 0 36 3 45 6 26 10 7 24 -33
24 -38 0 -61 14 -61 37 0 9 17 13 60 13 58 0 60 1 60 25 0 33 -42 75 -75 75
-14 0 -37 -11 -50 -25z m85 -20 c18 -22 9 -27 -41 -23 -41 3 -42 4 -25 21 22
21 49 22 66 2z"/>
<path d="M1733 85 c0 -27 2 -38 4 -23 2 15 12 29 21 31 16 4 16 5 0 6 -9 0
-19 9 -21 19 -3 9 -5 -5 -4 -33z"/>
<path d="M3390 116 c0 -7 -9 -16 -21 -19 -29 -8 -22 -51 9 -55 20 -3 22 1 22
42 0 25 -2 46 -5 46 -3 0 -5 -6 -5 -14z m0 -46 c0 -11 -7 -20 -15 -20 -8 0
-15 9 -15 20 0 11 7 20 15 20 8 0 15 -9 15 -20z"/>
<path d="M30 81 c0 -33 3 -41 19 -41 21 0 44 23 34 34 -4 4 -8 15 -8 24 0 10
-9 18 -22 20 -21 3 -23 -1 -23 -37z m40 19 c0 -5 -7 -10 -15 -10 -8 0 -15 5
-15 10 0 6 7 10 15 10 8 0 15 -4 15 -10z m3 -35 c1 -5 -6 -11 -15 -13 -11 -2
-18 3 -18 13 0 17 30 18 33 0z"/>
<path d="M672 108 c-25 -25 -6 -68 30 -68 9 0 22 9 28 20 22 40 -26 80 -58 48z
m52 -13 c8 -23 -4 -45 -25 -45 -11 0 -22 7 -25 15 -9 23 3 45 25 45 10 0 21
-7 25 -15z"/>
<path d="M1002 84 c2 -20 9 -39 16 -40 7 -1 8 0 2 3 -12 6 -13 40 -1 45 5 2 2
9 -6 17 -12 11 -14 8 -11 -25z"/>
<path d="M1301 78 c1 -24 3 -35 6 -25 6 21 22 22 37 2 9 -13 11 -10 11 12 0
36 -12 53 -36 53 -16 0 -19 -7 -18 -42z m42 17 c1 -5 -6 -11 -15 -13 -11 -2
-18 3 -18 13 0 17 30 18 33 0z"/>
<path d="M1835 109 c-11 -16 -2 -17 25 -2 24 12 24 13 3 13 -12 0 -25 -5 -28
-11z"/>
<path d="M2563 80 c0 -25 2 -35 4 -22 2 12 2 32 0 45 -2 12 -4 2 -4 -23z"/>
<path d="M2633 85 c0 -22 2 -30 4 -17 2 12 2 30 0 40 -3 9 -5 -1 -4 -23z"/>
<path d="M2732 80 c0 -25 2 -38 5 -30 3 8 13 24 22 35 15 18 15 19 -1 7 -14
-11 -17 -10 -21 10 -2 13 -5 3 -5 -22z"/>
<path d="M2860 100 c-22 -40 26 -80 58 -48 7 7 12 19 11 28 0 9 -4 6 -9 -8
-11 -25 -45 -30 -54 -7 -10 26 5 47 30 42 13 -2 21 0 18 4 -10 16 -43 9 -54
-11z"/>
<path d="M3420 80 c0 -36 3 -40 24 -40 14 0 27 4 30 9 3 4 -6 6 -19 3 -22 -4
-25 -1 -25 28 0 29 3 32 25 28 13 -3 22 -1 19 3 -3 5 -16 9 -30 9 -21 0 -24
-4 -24 -40z"/>
<path d="M3020 75 c0 -27 4 -35 18 -34 10 0 12 3 5 6 -16 6 -17 40 -1 45 7 3
6 7 -5 11 -14 5 -17 0 -17 -28z"/>
<path d="M140 74 c0 -19 -4 -25 -15 -20 -8 3 -15 1 -15 -4 0 -6 9 -10 20 -10
16 0 20 7 20 30 0 17 -2 30 -5 30 -3 0 -5 -12 -5 -26z"/>
<path d="M172 70 c0 -19 2 -27 5 -17 2 9 2 25 0 35 -3 9 -5 1 -5 -18z"/>
<path d="M236 84 c-8 -20 11 -44 33 -43 11 0 9 3 -6 9 -13 5 -23 14 -23 20 0
6 10 15 23 20 22 9 22 9 1 9 -12 1 -25 -6 -28 -15z"/>
<path d="M341 68 c2 -30 2 -31 6 -5 5 34 20 35 26 2 4 -23 4 -23 3 2 -1 18 -7
29 -18 31 -15 3 -18 -3 -17 -30z"/>
<path d="M411 86 c-14 -17 -4 -46 18 -47 13 0 12 -2 -4 -10 -19 -8 -19 -9 -1
-6 27 3 31 23 6 30 -27 7 -26 25 3 37 15 6 17 9 6 9 -9 1 -22 -5 -28 -13z"/>
<path d="M515 91 c17 -8 18 -10 3 -10 -27 -1 -24 -41 3 -41 16 0 20 5 17 27
-2 19 -9 29 -23 30 l-20 3 20 -9z m15 -31 c0 -5 -4 -10 -10 -10 -5 0 -10 5
-10 10 0 6 5 10 10 10 6 0 10 -4 10 -10z"/>
<path d="M571 68 c2 -30 2 -31 6 -5 5 34 20 35 26 2 4 -23 4 -23 3 2 -1 18 -7
29 -18 31 -15 3 -18 -3 -17 -30z"/>
<path d="M761 58 c0 -24 3 -37 6 -30 2 6 11 12 19 12 20 0 29 27 14 45 -24 29
-40 18 -39 -27z m37 9 c2 -10 -3 -17 -12 -17 -10 0 -16 9 -16 21 0 24 23 21
28 -4z"/>
<path d="M850 91 c12 -9 11 -11 -7 -11 -13 0 -23 -4 -23 -8 0 -14 23 -32 40
-31 8 0 4 5 -10 11 l-25 11 23 5 c25 4 25 23 1 30 -11 3 -11 2 1 -7z"/>
<path d="M908 93 c7 -3 16 -2 19 1 4 3 -2 6 -13 5 -11 0 -14 -3 -6 -6z"/>
<path d="M955 91 c17 -8 18 -10 3 -10 -10 -1 -18 -5 -18 -11 0 -5 7 -7 15 -4
8 4 15 1 15 -4 0 -6 -8 -13 -17 -15 -13 -3 -12 -5 5 -6 20 -1 23 3 20 26 -2
19 -9 29 -23 30 l-20 3 20 -9z"/>
<path d="M1052 70 c0 -19 2 -27 5 -17 2 9 2 25 0 35 -3 9 -5 1 -5 -18z"/>
<path d="M1084 86 c-9 -24 4 -48 23 -44 12 2 18 12 18 28 0 29 -32 41 -41 16z
m36 -16 c0 -11 -7 -20 -15 -20 -8 0 -15 9 -15 20 0 11 7 20 15 20 8 0 15 -9
15 -20z"/>
<path d="M1151 68 c2 -30 2 -30 6 -6 2 15 12 29 21 31 12 3 10 5 -5 6 -20 1
-23 -4 -22 -31z"/>
<path d="M1220 86 c0 -8 8 -17 18 -21 16 -7 15 -8 -3 -15 -16 -7 -17 -9 -3 -9
24 -1 31 14 12 29 -12 11 -12 15 -2 21 10 7 9 9 -4 9 -10 0 -18 -6 -18 -14z"/>
<path d="M1400 91 c12 -9 11 -11 -7 -11 -13 0 -23 -4 -23 -8 0 -14 23 -32 40
-31 8 0 4 5 -10 11 l-25 11 23 5 c25 4 25 23 1 30 -11 3 -11 2 1 -7z"/>
<path d="M1446 91 c-3 -5 1 -15 10 -22 14 -12 14 -14 -3 -20 -16 -7 -15 -8 5
-8 26 -1 30 24 5 33 -15 6 -15 8 -3 16 9 6 10 10 3 10 -6 0 -14 -4 -17 -9z"/>
<path d="M1520 91 c12 -9 11 -11 -7 -11 -13 0 -23 -4 -23 -8 0 -14 23 -32 40
-31 8 0 4 5 -10 11 l-25 11 23 5 c25 4 25 23 1 30 -11 3 -11 2 1 -7z"/>
<path d="M1578 93 c7 -3 16 -2 19 1 4 3 -2 6 -13 5 -11 0 -14 -3 -6 -6z"/>
<path d="M1631 68 c2 -28 2 -29 6 -8 3 14 10 28 17 32 7 5 5 8 -6 8 -14 0 -18
-8 -17 -32z"/>
<path d="M1688 93 c7 -3 16 -2 19 1 4 3 -2 6 -13 5 -11 0 -14 -3 -6 -6z"/>
<path d="M1904 86 c-9 -24 4 -48 23 -44 12 2 18 12 18 28 0 29 -32 41 -41 16z
m36 -16 c0 -11 -7 -20 -15 -20 -8 0 -15 9 -15 20 0 11 7 20 15 20 8 0 15 -9
15 -20z"/>
<path d="M1971 68 c2 -30 2 -31 6 -5 4 22 9 27 33 27 23 0 30 -5 33 -25 4 -23
4 -23 3 2 -1 25 -5 28 -38 31 -37 3 -38 2 -37 -30z"/>
<path d="M2071 67 c2 -30 2 -31 6 -4 2 15 10 27 18 27 8 0 16 -12 18 -27 l4
-28 2 29 c1 21 5 27 16 22 8 -3 15 -2 15 3 0 5 -18 9 -40 9 -39 1 -40 0 -39
-31z"/>
<path d="M2210 75 c0 -28 -16 -34 -23 -7 -3 13 -4 12 -3 -3 1 -11 9 -21 19
-23 13 -3 17 3 17 27 0 17 -2 31 -5 31 -3 0 -5 -11 -5 -25z"/>
<path d="M2262 94 c9 -3 19 -16 21 -30 4 -21 4 -21 3 3 -1 20 -7 28 -21 30
-14 1 -15 0 -3 -3z"/>
<path d="M2484 80 c0 -15 7 -20 26 -20 19 0 26 5 26 20 0 15 -7 20 -26 20 -19
0 -26 -5 -26 -20z m36 0 c0 -5 -4 -10 -10 -10 -5 0 -10 5 -10 10 0 6 5 10 10
10 6 0 10 -4 10 -10z"/>
<path d="M2678 93 c7 -3 16 -2 19 1 4 3 -2 6 -13 5 -11 0 -14 -3 -6 -6z"/>
<path d="M2810 91 c12 -9 11 -11 -7 -11 -13 0 -23 -4 -23 -8 0 -14 23 -32 40
-31 8 0 4 5 -10 11 l-25 11 23 5 c25 4 25 23 1 30 -11 3 -11 2 1 -7z"/>
<path d="M2951 58 c0 -24 3 -37 6 -30 2 6 11 12 19 12 20 0 29 27 14 45 -24
29 -40 18 -39 -27z m37 9 c2 -10 -3 -17 -12 -17 -10 0 -16 9 -16 21 0 24 23
21 28 -4z"/>
<path d="M3101 67 c2 -30 2 -30 6 -4 2 15 8 27 13 27 5 0 11 -12 13 -27 l4
-28 2 28 c1 34 28 36 34 2 4 -23 4 -23 3 2 -1 25 -5 28 -38 30 -37 2 -38 1
-37 -30z"/>
<path d="M3202 70 c0 -19 2 -27 5 -17 2 9 2 25 0 35 -3 9 -5 1 -5 -18z"/>
<path d="M3237 92 c8 -5 9 -13 3 -22 -15 -23 -12 -30 13 -29 17 1 18 2 4 6
-17 4 -17 6 -2 29 15 23 14 24 -7 24 -15 0 -19 -3 -11 -8z"/>
<path d="M3305 91 c19 -9 19 -10 -4 -10 -17 -1 -22 -5 -17 -17 3 -9 6 -18 6
-20 0 -2 10 -4 23 -3 21 0 21 1 -3 11 l-25 11 23 5 c27 4 24 26 -4 29 -18 3
-18 2 1 -6z"/>
<path d="M3530 91 c12 -9 11 -11 -7 -11 -13 0 -23 -4 -23 -8 0 -14 23 -32 40
-31 8 0 4 5 -10 11 l-25 11 23 5 c25 4 25 23 1 30 -11 3 -11 2 1 -7z"/>
<path d="M3588 93 c7 -3 16 -2 19 1 4 3 -2 6 -13 5 -11 0 -14 -3 -6 -6z"/>
<path d="M3632 70 c0 -19 2 -27 5 -17 2 9 2 25 0 35 -3 9 -5 1 -5 -18z"/>
<path d="M3660 86 c0 -8 8 -17 18 -21 16 -7 15 -8 -3 -15 -16 -7 -17 -9 -3 -9
24 -1 31 14 12 29 -12 11 -12 15 -2 21 10 7 9 9 -4 9 -10 0 -18 -6 -18 -14z"/>
<path d="M3746 85 c-7 -20 3 -45 19 -45 7 0 18 7 25 15 10 12 10 18 0 30 -7 8
-18 15 -25 15 -7 0 -15 -7 -19 -15z m40 -6 c10 -17 -13 -36 -27 -22 -12 12 -4
33 11 33 5 0 12 -5 16 -11z"/>
<path d="M3832 94 c9 -3 19 -16 21 -30 4 -21 4 -21 3 3 -1 20 -7 28 -21 30
-14 1 -15 0 -3 -3z"/>
<path d="M3886 91 c-3 -5 1 -15 10 -22 14 -12 14 -14 -3 -20 -16 -7 -15 -8 5
-8 26 -1 30 24 5 33 -15 6 -15 8 -3 16 9 6 10 10 3 10 -6 0 -14 -4 -17 -9z"/>
<path d="M312 65 c0 -16 2 -22 5 -12 2 9 2 23 0 30 -3 6 -5 -1 -5 -18z"/>
<path d="M3072 65 c0 -16 2 -22 5 -12 2 9 2 23 0 30 -3 6 -5 -1 -5 -18z"/>
<path d="M1192 60 c0 -14 2 -19 5 -12 2 6 2 18 0 25 -3 6 -5 1 -5 -13z"/>
<path d="M1565 70 c-9 -15 4 -30 26 -30 12 0 19 7 19 20 0 21 -33 29 -45 10z
m35 -10 c0 -5 -7 -10 -15 -10 -8 0 -15 5 -15 10 0 6 7 10 15 10 8 0 15 -4 15
-10z"/>
<path d="M1772 60 c0 -14 2 -19 5 -12 2 6 2 18 0 25 -3 6 -5 1 -5 -13z"/>
<path d="M2012 60 c0 -14 2 -19 5 -12 2 6 2 18 0 25 -3 6 -5 1 -5 -13z"/>
<path d="M2665 70 c-9 -15 4 -30 26 -30 12 0 19 7 19 20 0 21 -33 29 -45 10z
m35 -10 c0 -5 -7 -10 -15 -10 -8 0 -15 5 -15 10 0 6 7 10 15 10 8 0 15 -4 15
-10z"/>
<path d="M1833 60 c2 -8 14 -16 28 -17 19 -1 20 -1 4 4 -11 3 -24 10 -28 17
-6 7 -7 6 -4 -4z"/>
<path d="M2595 60 c3 -5 8 -10 11 -10 2 0 4 5 4 10 0 6 -5 10 -11 10 -5 0 -7
-4 -4 -10z"/>
<path d="M2350 50 c0 -6 7 -10 15 -10 8 0 15 2 15 4 0 2 -7 6 -15 10 -8 3 -15
1 -15 -4z"/>
<path d="M1688 43 c7 -3 16 -2 19 1 4 3 -2 6 -13 5 -11 0 -14 -3 -6 -6z"/>
<path d="M3588 43 c7 -3 16 -2 19 1 4 3 -2 6 -13 5 -11 0 -14 -3 -6 -6z"/>
</g>
</svg>
