<?xml version="1.0" standalone="no"?>
<!DOCTYPE svg PUBLIC "-//W3C//DTD SVG 20010904//EN"
 "http://www.w3.org/TR/2001/REC-SVG-20010904/DTD/svg10.dtd">
<svg version="1.0" xmlns="http://www.w3.org/2000/svg"
 width="430.000000pt" height="375.000000pt" viewBox="0 0 430.000000 375.000000"
 preserveAspectRatio="xMidYMid meet">

<g transform="translate(0.000000,375.000000) scale(0.100000,-0.100000)"
fill="#000000" stroke="none">
<path d="M2383 1799 c-32 -39 -91 -119 -131 -177 -40 -59 -95 -138 -123 -177
-27 -38 -68 -98 -89 -132 -40 -64 -67 -81 -112 -69 -22 5 -194 138 -232 178
-13 14 -25 18 -45 13 -52 -13 -111 -44 -111 -59 0 -16 117 -112 188 -153 78
-46 181 -83 231 -83 113 1 160 52 357 385 32 55 78 131 103 169 49 77 68 140
50 162 -6 8 -15 14 -20 14 -4 0 -34 -32 -66 -71z"/>
<path d="M509 1329 c-143 -16 -229 -110 -229 -249 0 -120 35 -162 240 -289 63
-40 127 -85 142 -101 73 -79 53 -219 -38 -272 -76 -44 -216 -43 -306 3 -20 10
-40 19 -43 19 -3 0 -5 -15 -5 -34 0 -32 2 -34 63 -51 116 -34 280 -21 349 27
68 47 106 178 78 263 -20 60 -93 129 -219 208 -154 95 -189 128 -200 192 -16
89 10 163 70 199 57 34 211 38 293 6 24 -9 26 -8 26 19 0 16 -6 33 -13 39 -19
16 -143 28 -208 21z"/>
<path d="M2780 1317 c-71 -17 -121 -39 -186 -82 -95 -63 -150 -153 -178 -287
-58 -280 55 -520 281 -599 72 -26 221 -26 318 -2 63 16 70 21 73 44 l3 27 -63
-18 c-145 -40 -243 -34 -355 20 -78 38 -140 108 -178 198 -33 79 -45 230 -26
322 28 136 94 228 202 282 106 53 193 66 295 45 44 -9 89 -19 102 -23 19 -6
22 -3 22 24 0 29 -3 31 -52 42 -85 18 -198 21 -258 7z"/>
<path d="M1937 1049 c-61 -9 -127 -48 -158 -93 l-24 -36 -5 58 c-5 53 -7 57
-32 60 l-27 3 -3 -350 -3 -351 28 0 27 0 0 218 c0 263 8 303 77 374 60 61 87
71 174 66 68 -4 73 -5 109 -45 21 -22 43 -58 49 -79 6 -23 11 -141 11 -286 l0
-248 31 0 30 0 -3 268 -3 267 -28 58 c-46 93 -132 133 -250 116z"/>
<path d="M1160 1041 c-72 -22 -149 -91 -188 -168 -25 -48 -42 -129 -42 -197 0
-68 32 -187 61 -232 38 -55 117 -104 183 -113 121 -16 278 31 289 87 3 15 4
29 2 31 -2 2 -19 -6 -38 -18 -49 -30 -144 -61 -187 -61 -133 0 -250 127 -250
270 l0 50 255 0 255 0 0 48 c0 141 -77 270 -179 301 -43 12 -123 13 -161 2z
m157 -52 c45 -17 99 -86 117 -149 30 -105 40 -101 -217 -98 -253 3 -242 -2
-206 92 52 140 177 203 306 155z"/>
<path d="M3442 1024 c-60 -30 -101 -74 -139 -147 -22 -44 -27 -68 -31 -159 -5
-117 4 -170 44 -254 63 -133 261 -178 424 -96 44 22 56 32 58 55 4 33 1 33
-52 2 -105 -61 -201 -68 -296 -20 -79 40 -130 138 -130 250 l0 35 261 0 262 0
-6 68 c-7 85 -41 176 -81 217 -73 76 -216 98 -314 49z m212 -38 c64 -27 112
-110 119 -206 l2 -35 -225 0 -225 0 3 35 c8 82 65 165 137 203 38 20 144 22
189 3z"/>
</g>
</svg>
