<?xml version="1.0" encoding="UTF-8"?>
<!DOCTYPE svg PUBLIC "-//W3C//DTD SVG 1.1//EN" "http://www.w3.org/Graphics/SVG/1.1/DTD/svg11.dtd">
<!-- Creator: CorelDRAW 2018 (64-Bit) -->
<svg xmlns="http://www.w3.org/2000/svg" xml:space="preserve" width="705px" height="168px" version="1.1" style="shape-rendering:geometricPrecision; text-rendering:geometricPrecision; image-rendering:optimizeQuality; fill-rule:evenodd; clip-rule:evenodd"
viewBox="0 0 625.24 148.83"
 xmlns:xlink="http://www.w3.org/1999/xlink">
 <defs>
  <style type="text/css">
   <![CDATA[
    .fil0 {fill:#00071B}
    .fil1 {fill:#5DB462}
   ]]>
  </style>
 </defs>
 <g id="Layer_x0020_1">
  <metadata id="CorelCorpID_0Corel-Layer"/>
  <path class="fil0" d="M278.57 118.9l0 -31.56 36.48 0c16.19,0 23.36,5.94 23.36,15.58l0 0.41c0,10.65 -8.4,15.57 -22.34,15.57l-37.5 0zm0 -57.8l0 0 0 -30.33 31.15 0c13.32,0 20.7,5.33 20.7,14.76l0 0.41c0,10.66 -8.81,15.16 -22.75,15.16l-29.1 0zm-30.75 69.69l0 0c0,8.81 6.97,15.78 15.78,15.78l52.47 0c32.39,0 53.7,-13.12 53.7,-39.35l0 -0.41c0,-19.27 -10.24,-28.9 -26.85,-35.25 10.25,-5.74 18.86,-14.76 18.86,-30.95l0 -0.41c0,-9.84 -3.28,-17.83 -9.84,-24.39 -8.2,-8.2 -21.11,-12.71 -37.51,-12.71l-50.83 0c-8.81,0 -15.78,6.97 -15.78,15.78l0 111.91z"/>
  <path class="fil0" d="M441.04 148.83c38.53,0 62.92,-21.32 62.92,-64.77l0 -66.41c0,-8.81 -6.97,-15.78 -15.78,-15.78 -8.81,0 -15.78,6.97 -15.78,15.78l0 67.64c0,22.75 -11.68,34.43 -30.95,34.43 -19.27,0 -30.95,-12.09 -30.95,-35.45l0 -66.62c0,-8.81 -6.97,-15.78 -15.78,-15.78 -8.81,0 -15.78,6.97 -15.78,15.78l0 67.43c0,42.23 23.57,63.75 62.1,63.75z"/>
  <path class="fil0" d="M572.57 148.62c30.94,0 52.67,-15.99 52.67,-44.47l0 -0.41c0,-25.01 -16.4,-35.46 -45.5,-43.05 -24.8,-6.35 -30.95,-9.42 -30.95,-18.85l0 -0.41c0,-6.97 6.35,-12.5 18.45,-12.5 9.84,0 19.67,3.48 30.13,9.63 2.46,1.43 4.91,2.25 7.99,2.25 8.2,0 14.76,-6.35 14.76,-14.55 0,-6.15 -3.49,-10.45 -6.97,-12.5 -12.92,-8.2 -28.08,-12.71 -45.5,-12.71 -29.31,0 -50.22,17.22 -50.22,43.25l0 0.41c0,28.49 18.65,36.48 47.55,43.86 23.98,6.15 28.9,10.25 28.9,18.24l0 0.41c0,8.4 -7.79,13.53 -20.7,13.53 -13.94,0 -25.82,-4.92 -36.69,-12.92 -2.05,-1.43 -4.92,-2.86 -9.02,-2.86 -8.19,0 -14.75,6.35 -14.75,14.55 0,4.92 2.46,9.43 5.94,11.89 15.99,11.47 35.05,17.21 53.91,17.21z"/>
  <path class="fil0" d="M156.26 77.4c4.96,5.14 11.9,8.34 20.02,8.34 8.11,0 14.98,-3.13 19.86,-8.2 5.1,-5.28 8.06,-12.7 8.06,-20.91l0 -0.29c0,-8.21 -3.04,-15.7 -8.21,-21.06 -4.95,-5.15 -11.89,-8.35 -20.01,-8.35 -8.11,0 -14.99,3.13 -19.87,8.2 -5.09,5.29 -8.06,12.7 -8.06,20.91l0 0.3c0,8.2 3.04,15.69 8.21,21.06zm60.84 19.12l0 0c-10.28,9.98 -24.6,16.15 -41.12,16.15 -16.52,0 -30.76,-6.1 -40.97,-16.01 -10.49,-10.18 -16.69,-24.35 -16.69,-40.03l0 -0.29c0,-15.68 6.27,-29.93 16.84,-40.19 10.28,-9.97 24.6,-16.15 41.12,-16.15 16.51,0 30.76,6.1 40.97,16.01 10.49,10.18 16.69,24.36 16.69,40.03l0 0.3c0,15.67 -6.28,29.93 -16.84,40.18z"/>
  <path class="fil0" d="M59.85 148.62c30.95,0 52.67,-15.99 52.67,-44.47l0 -0.41c0,-25.01 -16.39,-35.46 -45.5,-43.05 -24.8,-6.35 -30.95,-9.42 -30.95,-18.85l0 -0.41c0,-6.97 6.36,-12.5 18.45,-12.5 9.84,0 19.68,3.48 30.13,9.63 2.46,1.43 4.92,2.25 7.99,2.25 8.2,0 14.76,-6.35 14.76,-14.55 0,-6.15 -3.49,-10.45 -6.97,-12.5 -12.91,-8.2 -28.08,-12.71 -45.5,-12.71 -29.31,0 -50.22,17.22 -50.22,43.25l0 0.41c0,28.49 18.66,36.48 47.55,43.86 23.98,6.15 28.9,10.25 28.9,18.24l0 0.41c0,8.4 -7.78,13.53 -20.7,13.53 -13.93,0 -25.82,-4.92 -36.68,-12.92 -2.05,-1.43 -4.92,-2.86 -9.02,-2.86 -8.2,0 -14.76,6.35 -14.76,14.55 0,4.92 2.46,9.43 5.94,11.89 15.99,11.47 35.05,17.21 53.91,17.21z"/>
  <path class="fil1" d="M206.19 148.83l-60.12 0c-6.76,0 -12.29,-5.53 -12.29,-12.29 0,-6.75 5.53,-12.28 12.29,-12.28l60.12 0c6.76,0 12.29,5.53 12.29,12.28 0,6.76 -5.53,12.29 -12.29,12.29z"/>
 </g>
</svg>
