<?xml version="1.0" standalone="no"?>
<!DOCTYPE svg PUBLIC "-//W3C//DTD SVG 20010904//EN"
 "http://www.w3.org/TR/2001/REC-SVG-20010904/DTD/svg10.dtd">
<svg version="1.0" xmlns="http://www.w3.org/2000/svg"
 width="1920.000000pt" height="424.000000pt" viewBox="0 0 1920.000000 424.000000"
 preserveAspectRatio="xMidYMid meet">

<g transform="translate(0.000000,424.000000) scale(0.100000,-0.100000)"
fill="#000000" stroke="none">
<path d="M900 3339 l-175 -59 -127 -127 -128 -128 0 -122 0 -123 55 -117 c114
-243 215 -305 795 -498 550 -182 640 -237 751 -457 l59 -118 0 -173 0 -172
-113 -112 -112 -111 -172 -56 -171 -56 -235 0 -236 0 -173 60 -173 60 -115
120 -115 120 -17 -23 c-16 -24 -16 -24 105 -144 l122 -120 180 -62 180 -61
241 0 242 0 178 61 179 60 128 127 127 127 0 188 0 187 -61 123 c-123 247
-213 303 -794 492 -540 175 -639 233 -751 441 l-54 101 0 114 0 114 113 118
112 118 173 60 173 59 232 0 231 0 174 -57 174 -58 115 -119 115 -118 22 22
21 22 -123 118 -122 118 -183 61 -182 61 -245 -1 -245 -1 -175 -59z"/>
<path d="M3820 3375 l0 -25 400 0 400 0 0 -1230 0 -1230 25 0 25 0 0 1230 0
1230 400 0 400 0 0 25 0 25 -825 0 -825 0 0 -25z"/>
<path d="M7340 2145 l0 -1255 25 0 25 0 0 640 0 640 399 0 398 0 364 -572
c200 -315 384 -605 409 -645 42 -66 47 -70 68 -59 21 11 9 32 -379 641 l-400
630 108 6 c95 5 129 13 276 61 166 54 169 55 228 114 49 47 74 85 125 186 l64
128 0 125 0 125 -64 129 c-55 110 -74 136 -127 184 -59 54 -69 59 -243 117
l-181 60 -548 0 -547 0 0 -1255z m1254 1149 c171 -56 171 -56 234 -117 50 -48
76 -86 118 -169 l54 -108 0 -115 0 -115 -59 -118 c-44 -87 -73 -130 -113 -169
-51 -50 -59 -54 -228 -107 l-175 -56 -517 0 -518 0 0 565 0 565 517 0 517 0
170 -56z"/>
<path d="M16185 3339 c-113 -57 -128 -68 -243 -182 -118 -117 -125 -127 -178
-237 -31 -63 -85 -199 -120 -302 l-64 -187 0 -299 0 -299 64 -190 c37 -108 91
-242 125 -309 56 -112 66 -126 178 -236 111 -109 125 -120 240 -177 l123 -61
245 0 245 0 118 61 c106 56 128 73 240 183 119 117 126 125 188 248 l64 128 0
190 0 190 -310 0 -310 0 0 -25 0 -25 285 0 285 0 0 -160 0 -160 -59 -118 c-56
-109 -67 -124 -173 -228 -90 -89 -135 -123 -220 -173 l-106 -61 -236 0 -236 0
-118 59 c-109 56 -124 67 -228 173 -99 100 -119 126 -173 229 -45 86 -76 165
-121 309 l-60 194 0 286 0 286 59 174 c32 96 82 220 111 275 45 86 69 117 169
218 109 112 123 122 233 178 l118 59 235 0 235 0 118 -59 c111 -56 123 -65
232 -178 106 -109 119 -127 169 -230 51 -104 56 -111 75 -101 12 6 22 12 24
13 1 1 -25 56 -59 121 -56 108 -72 130 -178 237 -111 114 -121 121 -243 183
l-128 64 -247 -1 -248 0 -120 -60z"/>
<path d="M11140 2135 l0 -1245 25 0 25 0 0 1245 0 1245 -25 0 -25 0 0 -1245z"/>
<path d="M12630 2514 c-114 -55 -116 -56 -277 -217 l-163 -162 0 208 0 207
-25 0 -25 0 0 -830 0 -830 25 0 25 0 0 589 0 589 188 179 c178 172 192 182
286 226 l99 47 172 0 173 0 113 -54 114 -53 58 -174 57 -175 0 -587 0 -587 25
0 25 0 -1 598 0 597 -62 180 -62 180 -125 62 -125 62 -190 0 -190 -1 -115 -54z"/>
<path d="M2961 1086 l-74 -75 76 -71 c42 -39 79 -71 82 -71 3 0 40 32 82 71
l76 71 -74 75 c-40 41 -78 74 -84 74 -6 0 -44 -33 -84 -74z"/>
<path d="M6161 1086 l-74 -75 76 -71 c42 -39 79 -71 82 -71 3 0 40 32 82 71
l76 71 -74 75 c-40 41 -78 74 -84 74 -6 0 -44 -33 -84 -74z"/>
<path d="M9951 1086 l-74 -75 76 -71 c42 -39 79 -71 82 -71 3 0 40 32 82 71
l76 71 -74 75 c-40 41 -78 74 -84 74 -6 0 -44 -33 -84 -74z"/>
<path d="M14521 1086 l-74 -75 76 -71 c42 -39 79 -71 82 -71 3 0 40 32 82 71
l76 71 -74 75 c-40 41 -78 74 -84 74 -6 0 -44 -33 -84 -74z"/>
</g>
</svg>
