<?xml version="1.0" standalone="no"?>
<!DOCTYPE svg PUBLIC "-//W3C//DTD SVG 20010904//EN"
 "http://www.w3.org/TR/2001/REC-SVG-20010904/DTD/svg10.dtd">
<svg version="1.0" xmlns="http://www.w3.org/2000/svg"
 width="1556.000000pt" height="647.000000pt" viewBox="0 0 1556.000000 647.000000"
 preserveAspectRatio="xMidYMid meet">

<g transform="translate(0.000000,647.000000) scale(0.100000,-0.100000)"
fill="#000000" stroke="none">
<path d="M0 3235 l0 -3235 7780 0 7780 0 0 3235 0 3235 -7780 0 -7780 0 0
-3235z m9410 2979 c0 -17 -22 -14 -28 4 -2 7 3 12 12 12 9 0 16 -7 16 -16z
m5731 -165 c30 -28 66 -57 81 -65 31 -16 43 -45 33 -82 -10 -41 -24 -52 -65
-52 -31 0 -44 7 -78 44 -22 24 -60 54 -84 67 -35 20 -44 30 -46 57 -3 24 3 38
24 57 42 39 73 33 135 -26z m-14791 -663 c0 -3 -4 -8 -10 -11 -5 -3 -10 -1
-10 4 0 6 5 11 10 11 6 0 10 -2 10 -4z m28 -21 c-3 -3 -9 2 -12 12 -6 14 -5
15 5 6 7 -7 10 -15 7 -18z m-33 -15 c3 -5 -1 -10 -9 -10 -9 0 -16 5 -16 10 0
6 4 10 9 10 6 0 13 -4 16 -10z m35 -4 c0 -3 -4 -8 -10 -11 -5 -3 -10 -1 -10 4
0 6 5 11 10 11 6 0 10 -2 10 -4z m9224 -111 c19 -39 15 -64 -14 -90 -17 -15
-22 -16 -36 -4 -28 23 -4 152 26 134 4 -3 15 -21 24 -40z m-2576 -657 c32 -32
-18 -87 -53 -58 -19 16 -19 29 2 52 19 21 34 23 51 6z m7098 -373 c20 -30 10
-63 -23 -76 -37 -14 -49 -11 -80 16 l-28 25 35 30 c42 37 74 38 96 5z m-821
-72 c19 -9 35 -19 35 -23 0 -3 -14 -14 -31 -24 -47 -28 -67 -70 -75 -159 -4
-44 -10 -73 -14 -66 -5 7 -6 45 -3 85 4 45 1 90 -7 117 -22 80 16 108 95 70z
m-3955 -144 c24 -44 -10 -96 -47 -73 -25 15 -28 40 -9 69 20 30 42 32 56 4z
m-8360 -44 c100 -33 109 -39 173 -103 l68 -68 -26 -24 -25 -24 -63 62 c-55 55
-72 65 -151 92 -78 26 -104 30 -196 30 -92 0 -118 -4 -195 -30 -73 -25 -98
-39 -137 -77 -45 -45 -48 -50 -48 -100 0 -59 40 -151 81 -189 41 -37 137 -79
319 -139 280 -93 337 -129 399 -252 29 -58 31 -70 31 -171 l0 -108 -63 -62
c-57 -57 -70 -64 -167 -97 -95 -32 -114 -35 -219 -35 -106 0 -125 3 -221 35
-100 33 -109 39 -173 103 l-68 68 26 24 25 24 63 -62 c55 -55 72 -65 151 -92
123 -41 257 -43 385 -4 73 23 94 34 139 78 l52 50 0 83 c0 72 -4 91 -29 141
-16 31 -40 67 -52 78 -41 37 -137 79 -319 139 -280 93 -335 127 -396 247 -30
59 -34 77 -34 144 l0 76 70 66 c62 60 80 70 162 99 83 28 105 32 213 32 112 1
127 -1 225 -34z m1890 0 l0 -35 -200 0 c-153 0 -200 -3 -200 -12 0 -7 0 -286
0 -620 0 -346 -4 -609 -9 -612 -5 -3 -23 -3 -40 0 l-31 7 0 618 0 619 -200 0
-200 0 0 35 0 35 440 0 440 0 0 -35z m1562 3 c121 -40 158 -69 203 -159 31
-60 35 -78 35 -144 0 -66 -4 -84 -34 -143 -48 -95 -83 -124 -196 -161 -52 -17
-107 -31 -123 -31 -15 0 -27 -2 -27 -4 0 -3 88 -143 195 -313 l195 -307 -25
-14 c-15 -7 -30 -12 -35 -10 -6 2 -101 147 -213 323 l-203 320 -181 3 -181 2
-5 -27 c-3 -16 -3 -155 0 -310 7 -305 5 -314 -45 -309 l-27 3 -1 644 c-1 354
0 650 2 657 3 9 68 12 286 12 l282 0 98 -32z m4186 -2 c89 -45 179 -138 226
-233 l36 -72 -31 -16 c-17 -9 -32 -15 -34 -13 -1 2 -17 32 -35 68 -40 82 -118
163 -192 201 -53 27 -66 29 -163 29 -97 0 -110 -2 -164 -29 -74 -38 -162 -123
-197 -192 -15 -30 -40 -92 -55 -138 -27 -78 -29 -96 -29 -236 0 -140 2 -158
29 -236 43 -128 75 -183 147 -252 97 -92 134 -107 266 -107 100 0 113 2 166
29 73 38 152 120 189 196 23 50 27 71 25 123 l-3 62 -139 0 -140 0 0 35 0 35
180 0 181 0 -2 -107 c-1 -104 -3 -111 -39 -183 -51 -99 -140 -188 -232 -230
-63 -28 -75 -30 -187 -30 -116 0 -122 1 -192 35 -89 43 -179 127 -219 206 -16
30 -45 102 -64 158 -36 102 -36 105 -36 266 0 161 0 164 36 266 19 56 48 128
64 158 38 74 129 161 215 205 69 35 72 35 198 36 126 0 128 0 195 -34z m-2878
-627 c0 -400 -4 -650 -10 -654 -5 -3 -21 -3 -35 1 l-25 6 0 642 c0 354 3 645
6 649 3 3 19 5 35 5 l29 -1 0 -648z m7457 469 c-3 -8 -6 -5 -6 6 -1 11 2 17 5
13 3 -3 4 -12 1 -19z m10 -65 c-3 -10 -5 -4 -5 12 0 17 2 24 5 18 2 -7 2 -21
0 -30z m-8 -70 l-1 -48 -8 40 c-7 37 -5 55 6 55 2 0 3 -21 3 -47z m-22 -90
c-3 -10 -5 -2 -5 17 0 19 2 27 5 18 2 -10 2 -26 0 -35z m-6403 -41 l70 -37 33
-100 33 -99 0 -308 c0 -297 -1 -308 -19 -308 -11 0 -26 -3 -35 -6 -14 -6 -16
25 -16 298 l0 304 -28 84 c-27 82 -30 86 -78 112 -42 24 -60 28 -133 28 -76 0
-90 -3 -140 -31 -31 -18 -91 -66 -133 -107 l-78 -76 -2 -305 -3 -306 -32 -3
-33 -3 0 440 c0 287 4 441 10 442 6 1 17 2 25 2 8 0 20 -1 25 -2 6 0 10 -36
10 -83 l0 -82 60 59 c34 34 88 74 123 91 57 28 71 31 167 32 103 1 106 1 174
-36z m6414 -4 c-6 -18 -28 -21 -28 -4 0 9 7 16 16 16 9 0 14 -5 12 -12z m-14
-95 c-8 -60 -14 -68 -14 -20 0 19 -3 42 -6 51 -4 11 -1 16 11 16 14 0 15 -7 9
-47z m-14 -130 c0 -22 -2 -25 -10 -13 -8 12 -10 12 -10 1 0 -8 -3 -12 -6 -8
-8 8 5 47 17 47 5 0 9 -12 9 -27z m-8 -87 c6 4 9 1 6 -6 -2 -7 -11 -14 -20
-16 -11 -1 -14 4 -10 19 3 12 7 16 10 9 2 -7 8 -9 14 -6z m-4 -68 c0 -13 5
-42 12 -65 16 -56 -1 -93 -50 -107 -19 -6 -41 -17 -48 -25 -11 -14 -12 -13 -3
5 6 12 8 23 6 26 -2 2 9 37 25 77 16 40 29 78 27 84 -1 7 4 11 11 10 6 -2 12
2 12 7 0 6 2 10 4 10 2 0 4 -10 4 -22z m-11463 -338 l50 -50 -55 -55 -55 -55
-54 54 -53 53 53 52 c28 28 55 51 58 51 4 0 29 -23 56 -50z m1610 0 l50 -50
-55 -55 -55 -55 -54 54 -54 55 49 50 c27 28 54 51 59 51 6 0 33 -23 60 -50z
m1903 -3 l52 -53 -53 -52 -53 -52 -54 55 -54 55 49 50 c27 27 52 50 55 50 3 0
29 -24 58 -53z m2294 6 c26 -26 48 -52 48 -57 0 -5 -24 -31 -52 -57 l-53 -47
-53 51 -52 51 52 53 c29 29 55 53 57 53 3 0 27 -21 53 -47z m3538 -133 c28
-28 27 -70 -2 -70 -44 0 -74 50 -46 78 17 17 25 15 48 -8z m1430 -710 c43 -43
9 -93 -62 -94 -48 -1 -58 15 -38 64 20 47 68 62 100 30z m-440 -195 c0 -6 -11
-32 -23 -56 -13 -24 -27 -62 -31 -84 -12 -71 -49 -205 -55 -201 -3 2 -6 -9 -7
-25 -1 -29 -10 -47 -18 -38 -3 2 2 56 11 119 9 63 17 152 17 197 1 45 6 86 11
92 22 21 95 19 95 -4z m-4437 -6 c15 -24 1 -49 -27 -49 -26 0 -40 22 -30 52 7
23 42 21 57 -3z m6735 -201 c6 -6 12 -23 12 -39 0 -40 -48 -66 -88 -47 -14 7
-31 26 -37 42 -8 24 -6 31 14 47 25 20 71 19 99 -3z m-2890 -245 c-3 -26 -1
-28 29 -25 17 2 34 -1 37 -7 17 -27 -69 -125 -103 -119 -11 3 -16 15 -16 43 0
37 -2 40 -27 40 -15 1 -30 3 -33 6 -9 10 63 77 87 82 13 2 24 5 26 6 2 0 2
-11 0 -26z m452 -88 c-14 -64 -17 -117 -9 -155 17 -76 -13 -109 -84 -89 -23 7
-43 13 -45 14 -1 2 20 35 48 75 36 54 51 86 56 122 4 27 13 56 22 64 20 21 22
15 12 -31z m-1085 -365 c3 -5 -4 -23 -16 -39 -32 -43 -33 -169 -3 -203 24 -26
47 -89 42 -115 -2 -12 -14 -18 -40 -18 -20 -1 -44 -8 -53 -15 -22 -18 -19 -57
7 -78 12 -9 33 -28 46 -40 18 -18 32 -22 53 -18 23 4 32 -1 57 -32 50 -64 60
-102 27 -102 -12 0 -25 14 -93 94 -23 28 -42 27 -42 -2 0 -9 16 -42 35 -72 36
-57 85 -156 85 -171 0 -14 -26 -10 -40 5 -6 8 -25 16 -43 18 -28 3 -31 7 -43
58 -20 88 -40 125 -103 191 -33 34 -67 76 -75 93 -14 28 -13 33 4 61 44 67 52
99 53 195 1 52 0 110 -2 128 -5 41 7 54 61 63 64 10 76 10 83 -1z"/>
<path d="M3849 3903 c-1 -6 0 -458 1 -510 0 -10 56 -13 247 -13 241 0 250 1
328 26 94 31 117 50 156 126 40 79 40 147 0 226 -38 76 -53 87 -156 122 l-89
30 -243 0 c-134 0 -243 -3 -244 -7z"/>
<path d="M10694 615 c-21 -52 -16 -105 11 -105 19 0 36 25 45 67 7 29 5 42 -7
55 -23 26 -32 22 -49 -17z"/>
</g>
</svg>
