<svg id="svg" version="1.1" xmlns="http://www.w3.org/2000/svg" xmlns:xlink="http://www.w3.org/1999/xlink" width="400" height="205" viewBox="0, 0, 400,205"><g id="svgg"><path id="path0" d="M109.017 79.765 C 107.512 80.020,106.711 81.217,106.002 84.264 C 105.752 85.336,105.376 86.950,105.165 87.852 C 104.954 88.754,104.454 91.015,104.053 92.875 C 103.337 96.197,102.832 98.418,101.811 102.727 C 101.530 103.917,101.239 105.265,101.166 105.723 C 100.848 107.715,100.484 107.445,99.740 104.664 C 98.976 101.803,98.008 98.221,97.802 97.488 C 97.544 96.572,96.839 93.966,96.470 92.568 C 93.263 80.411,92.889 79.754,89.185 79.754 C 86.893 79.754,85.593 80.599,84.671 82.686 C 84.182 83.793,84.245 83.574,82.227 91.133 C 81.414 94.177,80.386 98.006,79.942 99.641 C 79.498 101.276,78.940 103.352,78.700 104.254 C 78.011 106.851,77.998 106.890,77.754 106.971 C 77.525 107.047,77.258 106.283,76.903 104.531 C 76.596 103.017,73.419 88.844,72.683 85.700 C 71.485 80.585,70.904 79.751,68.542 79.757 C 66.472 79.762,64.992 81.128,64.992 83.034 C 64.992 84.305,65.034 84.480,71.261 109.585 C 73.244 117.576,73.919 118.895,76.206 119.238 C 79.676 119.758,81.289 118.240,82.643 113.178 C 84.018 108.042,88.130 93.030,88.688 91.111 C 89.256 89.154,89.381 89.470,92.086 99.744 C 92.412 100.984,92.853 102.645,93.066 103.434 C 93.279 104.223,93.836 106.299,94.304 108.047 C 97.060 118.337,97.669 119.323,101.267 119.323 C 104.448 119.323,105.058 118.190,107.558 107.637 C 107.839 106.453,108.155 105.208,108.260 104.869 C 108.365 104.531,108.788 102.824,109.199 101.076 C 109.610 99.329,110.128 97.253,110.351 96.463 C 110.573 95.674,110.823 94.659,110.907 94.208 C 110.991 93.757,111.299 92.465,111.591 91.338 C 112.538 87.687,113.168 84.786,113.284 83.538 C 113.517 81.035,111.587 79.329,109.017 79.765 M121.635 79.751 C 120.688 79.972,120.055 80.440,119.500 81.332 L 119.016 82.112 118.954 98.514 C 118.886 116.448,118.893 116.638,119.685 117.860 C 120.831 119.627,123.761 119.846,125.204 118.273 C 126.149 117.244,126.186 116.934,126.294 109.175 L 126.397 101.794 134.905 101.794 L 143.414 101.794 143.526 109.072 C 143.588 113.075,143.716 116.581,143.811 116.863 C 144.799 119.811,148.840 120.230,150.416 117.548 L 150.999 116.556 150.999 99.539 L 150.999 82.522 150.487 81.607 C 149.041 79.027,145.577 79.027,144.131 81.607 C 143.622 82.516,143.618 82.561,143.516 88.980 L 143.414 95.438 135.134 95.492 C 129.193 95.530,126.775 95.480,126.574 95.313 C 126.349 95.126,126.294 93.874,126.294 88.893 C 126.294 82.713,126.294 82.704,125.785 81.691 C 124.984 80.095,123.380 79.345,121.635 79.751 M158.380 80.135 C 155.818 81.718,156.237 83.606,160.647 90.358 C 163.925 95.377,165.044 97.159,165.044 97.364 C 165.044 97.470,165.122 97.588,165.217 97.625 C 165.313 97.663,165.837 98.385,166.381 99.231 C 166.926 100.077,167.586 101.097,167.848 101.497 C 168.320 102.219,168.324 102.283,168.325 108.468 C 168.326 111.901,168.416 115.258,168.526 115.928 C 169.175 119.894,173.980 120.597,175.618 116.966 C 175.720 116.740,175.850 113.326,175.908 109.380 L 176.012 102.204 177.641 99.744 C 183.939 90.233,186.684 85.929,187.318 84.572 C 188.513 82.014,187.222 79.757,184.562 79.755 C 182.620 79.753,182.004 80.346,179.270 84.847 C 178.493 86.126,177.224 88.202,176.449 89.460 C 175.675 90.718,174.591 92.502,174.042 93.423 C 172.311 96.326,172.346 96.333,170.174 92.654 C 169.622 91.720,167.224 87.780,166.341 86.359 C 165.871 85.602,165.189 84.476,164.826 83.859 C 162.525 79.938,160.548 78.796,158.380 80.135 M65.061 126.205 C 64.993 126.382,65.024 126.613,65.129 126.718 C 65.583 127.172,339.416 126.851,339.416 126.397 C 339.416 125.825,65.280 125.634,65.061 126.205 M78.020 131.767 C 75.782 132.376,75.335 136.594,77.409 137.539 C 78.147 137.875,79.401 137.832,79.869 137.453 C 80.252 137.142,80.248 137.135,79.754 137.264 C 79.472 137.338,79.057 137.441,78.831 137.492 C 77.607 137.770,76.596 136.301,76.726 134.435 C 76.856 132.574,77.855 131.856,79.651 132.333 C 80.210 132.481,80.238 132.466,79.956 132.167 C 79.611 131.802,78.635 131.600,78.020 131.767 M89.236 131.774 L 88.570 131.856 88.570 134.816 C 88.570 136.652,88.648 137.775,88.775 137.775 C 88.891 137.775,88.980 137.192,88.980 136.436 C 88.980 133.893,90.811 134.547,91.723 137.417 C 91.786 137.614,91.974 137.775,92.140 137.775 C 92.442 137.775,91.733 135.819,91.195 135.166 C 91.047 134.986,91.141 134.730,91.521 134.278 C 92.319 133.331,91.845 131.830,90.749 131.830 C 90.584 131.830,90.326 131.799,90.176 131.761 C 90.025 131.724,89.603 131.729,89.236 131.774 M113.862 131.865 C 112.600 132.476,112.853 133.875,114.389 134.776 C 116.539 136.039,116.025 138.176,113.761 137.387 C 113.058 137.142,112.683 137.265,113.179 137.578 C 113.806 137.975,115.327 137.807,115.816 137.286 C 116.663 136.385,116.370 135.370,115.037 134.589 C 113.349 133.600,113.092 133.139,113.839 132.437 C 114.204 132.094,114.461 132.028,115.069 132.124 C 115.895 132.254,116.141 131.959,115.377 131.754 C 114.751 131.586,114.381 131.613,113.862 131.865 M147.924 131.973 C 146.244 132.880,145.944 135.904,147.404 137.212 C 148.135 137.867,149.526 137.990,150.191 137.457 C 150.574 137.152,150.569 137.145,150.078 137.282 C 148.743 137.655,147.728 137.271,147.292 136.228 C 146.354 133.983,147.739 131.687,149.693 132.247 C 150.529 132.487,150.487 132.486,150.487 132.260 C 150.487 131.702,148.781 131.511,147.924 131.973 M160.533 131.749 C 157.329 132.903,157.904 137.775,161.245 137.775 C 163.291 137.775,164.366 135.438,163.431 133.019 C 163.073 132.095,161.495 131.403,160.533 131.749 M198.257 131.770 C 196.569 132.391,196.856 133.802,198.910 134.974 C 200.903 136.111,199.891 138.173,197.774 137.288 C 197.002 136.966,196.721 137.187,197.424 137.563 C 198.702 138.248,200.513 137.471,200.513 136.238 C 200.513 135.422,200.190 135.060,198.865 134.389 C 197.005 133.447,197.727 131.354,199.615 132.214 C 200.228 132.493,200.308 132.498,200.308 132.260 C 200.308 131.880,198.884 131.540,198.257 131.770 M209.739 131.806 L 209.021 131.932 209.021 134.803 L 209.021 137.673 210.525 137.734 C 211.592 137.777,211.988 137.728,211.888 137.566 C 211.807 137.434,211.314 137.360,210.728 137.391 C 209.536 137.455,209.336 137.255,209.332 135.994 C 209.328 135.010,209.488 134.864,210.764 134.682 L 211.686 134.550 210.753 134.523 C 209.622 134.489,209.329 134.230,209.329 133.265 C 209.329 132.270,209.580 132.080,210.747 132.192 C 211.352 132.250,211.790 132.198,211.877 132.058 C 211.966 131.914,211.831 131.830,211.510 131.830 C 211.231 131.830,210.879 131.796,210.729 131.755 C 210.579 131.714,210.133 131.737,209.739 131.806 M252.998 131.763 C 251.306 132.427,251.741 134.250,253.794 135.100 C 255.531 135.819,254.291 138.071,252.525 137.404 C 251.850 137.149,251.485 137.266,251.979 137.578 C 253.042 138.250,255.254 137.305,255.254 136.179 C 255.254 135.707,254.508 134.700,254.159 134.700 C 254.024 134.700,253.569 134.466,253.149 134.180 C 251.695 133.192,252.398 131.837,254.199 132.157 C 254.739 132.253,254.888 132.227,254.735 132.064 C 254.473 131.784,253.413 131.600,252.998 131.763 M264.685 131.842 C 262.618 131.963,262.455 132.093,264.223 132.210 C 264.678 132.239,264.685 132.283,264.685 135.008 C 264.685 136.716,264.763 137.775,264.890 137.775 C 265.016 137.775,265.095 136.716,265.095 135.008 C 265.095 132.009,265.043 132.134,266.254 132.229 C 266.685 132.263,267.102 131.923,266.790 131.793 C 266.703 131.757,265.756 131.779,264.685 131.842 M308.708 131.750 C 308.429 132.029,308.811 132.240,309.597 132.240 L 310.405 132.240 310.405 135.008 C 310.405 136.716,310.483 137.775,310.610 137.775 C 310.737 137.775,310.815 136.716,310.815 135.008 C 310.815 131.949,310.733 132.113,312.199 132.232 C 312.453 132.252,312.660 132.170,312.660 132.050 C 312.660 131.912,312.055 131.830,311.037 131.830 C 310.144 131.830,309.286 131.781,309.130 131.721 C 308.974 131.661,308.784 131.674,308.708 131.750 M321.476 131.821 L 320.964 131.950 320.907 134.863 L 320.850 137.775 322.405 137.775 C 323.390 137.775,323.914 137.700,323.834 137.570 C 323.764 137.458,323.216 137.365,322.616 137.365 C 321.375 137.365,321.297 137.253,321.473 135.725 L 321.579 134.803 322.604 134.681 L 323.629 134.560 322.665 134.527 C 321.539 134.490,321.329 134.238,321.441 133.064 C 321.505 132.390,321.599 132.237,321.959 132.222 C 323.332 132.167,323.629 132.120,323.629 131.959 C 323.629 131.739,322.174 131.646,321.476 131.821 M102.134 132.189 C 102.031 132.386,101.710 133.239,101.421 134.085 C 101.133 134.931,100.707 136.107,100.475 136.699 C 100.124 137.595,100.104 137.775,100.356 137.775 C 100.522 137.775,100.719 137.522,100.793 137.212 C 101.019 136.268,101.246 136.135,102.635 136.135 L 103.938 136.135 104.357 136.955 C 105.074 138.361,105.397 138.077,104.780 136.583 C 104.562 136.055,104.078 134.770,103.704 133.727 C 103.010 131.792,102.567 131.358,102.134 132.189 M124.794 131.963 C 124.479 132.279,124.637 137.775,124.962 137.775 C 125.205 137.775,125.269 137.480,125.269 136.350 L 125.269 134.924 126.003 134.786 C 126.406 134.710,127.121 134.729,127.591 134.828 L 128.447 135.008 128.508 136.392 C 128.622 139.015,128.960 137.830,128.960 134.803 C 128.960 132.957,128.882 131.830,128.754 131.830 C 128.642 131.830,128.549 132.326,128.549 132.932 C 128.549 134.347,128.321 134.532,126.671 134.454 L 125.372 134.393 125.309 133.265 C 125.246 132.149,125.065 131.692,124.794 131.963 M172.219 133.979 C 172.219 136.987,172.693 137.762,174.536 137.771 C 175.717 137.776,176.399 137.184,176.598 135.980 C 176.799 134.765,176.750 132.072,176.525 131.932 C 176.394 131.852,176.319 132.460,176.319 133.612 C 176.317 136.887,175.465 138.119,173.762 137.307 C 172.902 136.896,172.809 136.585,172.765 133.966 C 172.742 132.574,172.654 131.941,172.476 131.881 C 172.281 131.816,172.219 132.323,172.219 133.979 M185.546 134.803 C 185.546 136.648,185.624 137.775,185.751 137.775 C 185.867 137.775,185.956 137.192,185.956 136.436 C 185.956 134.243,187.254 134.275,188.307 136.494 C 188.641 137.199,188.993 137.775,189.089 137.775 C 189.309 137.775,189.112 137.135,188.499 135.856 L 188.021 134.859 188.551 134.164 C 189.535 132.874,188.701 131.830,186.687 131.830 L 185.546 131.830 185.546 134.803 M229.766 131.963 C 229.547 132.182,229.599 137.775,229.820 137.775 C 230.028 137.775,230.219 132.328,230.022 132.011 C 229.958 131.908,229.842 131.887,229.766 131.963 M238.989 131.967 C 238.762 132.193,238.828 137.775,239.057 137.775 C 239.181 137.775,239.263 136.902,239.265 135.572 C 239.270 132.114,239.467 132.080,241.181 135.241 C 242.447 137.578,242.657 137.854,243.045 137.705 C 243.422 137.560,243.532 131.830,243.157 131.830 C 243.034 131.830,242.951 132.703,242.949 134.034 C 242.945 136.988,242.773 137.249,241.901 135.623 C 241.203 134.322,240.212 132.532,240.000 132.189 C 239.777 131.828,239.244 131.711,238.989 131.967 M275.141 134.803 C 275.141 136.648,275.219 137.775,275.346 137.775 C 275.473 137.775,275.551 136.648,275.551 134.803 C 275.551 132.957,275.473 131.830,275.346 131.830 C 275.219 131.830,275.141 132.957,275.141 134.803 M283.854 132.035 C 283.924 132.148,284.345 132.240,284.789 132.240 L 285.597 132.240 285.597 135.025 C 285.597 138.935,286.084 138.863,286.167 134.940 C 286.208 132.997,286.294 132.234,286.474 132.218 C 286.612 132.206,286.969 132.212,287.268 132.231 C 287.567 132.251,287.872 132.168,287.947 132.048 C 288.039 131.899,287.392 131.830,285.905 131.830 C 284.506 131.830,283.773 131.903,283.854 132.035 M296.053 134.203 C 296.053 137.110,296.455 137.775,298.211 137.775 C 299.934 137.775,300.359 137.060,300.359 134.154 C 300.359 132.641,300.286 131.851,300.154 131.932 C 300.038 132.004,299.949 132.999,299.949 134.215 C 299.949 136.628,299.459 137.570,298.206 137.570 C 296.932 137.570,296.463 136.638,296.463 134.101 C 296.463 132.724,296.383 131.830,296.258 131.830 C 296.133 131.830,296.053 132.758,296.053 134.203 M90.763 132.337 C 91.844 132.646,91.605 134.163,90.420 134.518 C 89.314 134.849,88.980 134.556,88.980 133.255 C 88.980 132.045,89.254 131.904,90.763 132.337 M161.924 132.255 C 162.848 132.577,163.198 133.250,163.198 134.700 C 163.198 138.264,159.391 138.611,159.135 135.071 C 158.970 132.795,160.126 131.628,161.924 132.255 M187.644 132.326 C 188.728 132.567,188.644 133.906,187.511 134.462 C 186.444 134.986,185.956 134.646,185.956 133.381 C 185.956 132.270,186.134 132.000,186.776 132.137 C 186.945 132.172,187.336 132.258,187.644 132.326 M103.345 133.971 C 103.892 135.528,103.799 135.725,102.518 135.725 C 101.303 135.725,101.262 135.599,101.914 133.884 C 102.607 132.060,102.675 132.065,103.345 133.971 M65.029 142.700 L 65.095 143.114 202.255 143.112 L 339.416 143.109 339.481 142.698 L 339.547 142.286 202.255 142.286 L 64.964 142.286 65.029 142.700 " stroke="none" fill="#1257a8" fill-rule="evenodd"></path><path id="path1" d="M0.000 102.512 L 0.000 205.023 200.000 205.023 L 400.000 205.023 400.000 102.512 L 400.000 0.000 200.000 0.000 L 0.000 0.000 0.000 102.512 M224.168 79.822 C 224.780 80.138,225.076 80.489,225.454 81.342 L 225.944 82.451 225.889 99.606 L 225.833 116.761 225.364 117.607 C 223.384 121.180,218.640 120.223,215.610 115.641 C 215.347 115.242,214.586 114.102,213.921 113.108 C 212.392 110.824,212.289 110.666,211.174 108.880 C 210.666 108.067,210.113 107.197,209.944 106.946 C 209.774 106.695,209.432 106.172,209.183 105.782 C 207.176 102.642,205.616 100.306,205.346 100.034 C 205.168 99.855,205.023 99.635,205.023 99.545 C 205.023 99.454,204.585 98.735,204.049 97.947 C 202.508 95.679,201.972 94.857,201.713 94.362 C 201.580 94.108,201.394 93.901,201.300 93.901 C 201.205 93.901,201.128 94.108,201.128 94.362 C 201.128 94.616,201.105 99.713,201.077 105.689 L 201.025 116.556 200.534 117.643 C 199.190 120.617,194.588 120.308,193.515 117.171 C 193.104 115.970,193.101 84.006,193.511 82.595 C 194.756 78.314,200.566 78.242,202.775 82.480 C 203.001 82.914,203.554 83.765,204.002 84.373 C 204.451 84.980,204.818 85.535,204.818 85.606 C 204.818 85.677,205.083 86.119,205.408 86.589 C 205.732 87.058,206.924 88.872,208.057 90.620 C 209.190 92.368,210.562 94.432,211.106 95.207 C 211.651 95.981,212.281 96.921,212.506 97.295 C 212.952 98.034,213.562 98.960,215.838 102.353 C 216.656 103.571,217.324 104.659,217.324 104.770 C 217.324 104.964,217.430 105.009,217.991 105.054 C 218.192 105.070,218.269 102.602,218.350 93.593 C 218.451 82.235,218.457 82.102,218.909 81.185 C 219.832 79.312,222.064 78.733,224.168 79.822 M70.664 79.932 C 71.544 80.570,72.239 82.021,72.592 83.957 C 72.695 84.521,72.924 85.582,73.102 86.315 C 73.280 87.048,73.547 88.201,73.694 88.877 C 73.842 89.554,74.205 91.169,74.500 92.465 C 74.796 93.762,75.273 95.884,75.561 97.181 C 75.850 98.478,76.353 100.692,76.680 102.101 C 77.006 103.511,77.335 105.010,77.409 105.433 C 77.514 106.031,77.909 106.565,77.909 106.109 C 77.909 106.016,78.054 105.464,79.152 101.384 C 79.485 100.144,80.124 97.731,80.570 96.022 C 81.016 94.313,81.575 92.237,81.811 91.409 C 82.047 90.580,82.459 89.072,82.726 88.057 C 84.435 81.560,85.195 80.223,87.564 79.543 C 90.558 78.685,93.223 80.161,94.181 83.209 C 94.530 84.322,96.281 90.628,97.064 93.593 C 99.010 100.964,100.528 106.218,100.665 106.054 C 100.796 105.898,101.493 103.019,102.294 99.334 C 102.514 98.319,102.982 96.197,103.334 94.618 C 103.686 93.039,104.114 91.102,104.287 90.313 C 104.459 89.523,104.677 88.647,104.771 88.365 C 104.864 88.083,105.000 87.483,105.072 87.032 C 106.029 81.039,107.351 79.107,110.299 79.390 C 113.285 79.677,114.239 82.187,113.079 86.708 C 111.879 91.383,110.239 97.963,110.086 98.719 C 109.994 99.170,109.680 100.507,109.388 101.691 C 109.096 102.875,108.812 104.029,108.756 104.254 C 108.701 104.480,108.339 105.910,107.952 107.432 C 107.566 108.954,106.959 111.399,106.604 112.865 C 105.294 118.278,104.227 119.528,100.920 119.528 C 98.204 119.528,96.935 118.378,95.943 115.018 C 95.209 112.533,93.801 107.386,92.774 103.434 C 92.510 102.419,92.005 100.574,91.653 99.334 C 91.300 98.093,90.697 95.879,90.313 94.413 C 89.395 90.912,89.368 90.825,89.188 90.825 C 89.103 90.825,88.929 91.217,88.802 91.697 C 88.675 92.176,87.823 95.290,86.909 98.616 C 85.994 101.943,85.168 104.991,85.072 105.390 C 82.195 117.333,80.987 119.528,77.294 119.528 C 73.565 119.528,72.987 118.484,70.258 106.817 C 69.981 105.633,69.375 103.188,68.912 101.384 C 68.448 99.580,67.889 97.319,67.671 96.361 C 67.452 95.402,66.763 92.588,66.140 90.108 C 64.519 83.655,64.425 82.962,64.991 81.647 C 65.931 79.464,68.813 78.592,70.664 79.932 M124.384 79.742 C 126.389 80.653,126.704 81.979,126.704 89.508 L 126.704 95.106 127.594 95.239 C 128.835 95.425,142.741 95.271,143.055 95.067 C 143.251 94.941,143.311 93.436,143.311 88.701 C 143.311 82.519,143.313 82.497,143.817 81.485 C 145.314 78.481,149.506 78.574,150.899 81.642 C 151.363 82.665,151.541 115.294,151.092 116.913 C 150.341 119.617,146.336 120.545,144.394 118.466 C 143.394 117.394,143.311 116.701,143.308 109.303 C 143.306 105.511,143.231 102.293,143.141 102.150 C 143.012 101.948,141.223 101.903,134.892 101.945 L 126.807 101.999 126.691 109.175 C 126.613 113.944,126.492 116.591,126.328 117.068 C 125.182 120.400,120.056 120.458,118.889 117.153 C 118.339 115.595,118.484 82.544,119.045 81.497 C 120.118 79.495,122.276 78.785,124.384 79.742 M161.710 79.659 C 162.561 80.014,162.846 80.287,163.744 81.599 C 164.391 82.546,169.144 90.220,169.144 90.319 C 169.144 90.423,172.034 95.027,172.211 95.204 C 172.312 95.305,172.698 94.906,173.101 94.283 C 173.968 92.943,177.038 87.970,178.694 85.224 C 180.596 82.070,180.692 81.918,181.332 81.049 C 182.657 79.250,184.906 78.777,186.533 79.955 C 188.696 81.522,188.568 83.647,186.082 87.440 C 183.091 92.004,180.959 95.269,179.491 97.540 C 178.597 98.921,177.795 100.051,177.708 100.051 C 177.621 100.051,177.550 100.153,177.550 100.278 C 177.550 100.402,177.273 100.914,176.935 101.416 L 176.320 102.327 176.320 108.747 C 176.320 118.347,175.802 119.640,172.014 119.488 C 168.480 119.346,168.250 118.760,168.119 109.585 C 168.046 104.452,167.945 102.284,167.765 101.969 C 167.626 101.728,167.065 100.851,166.519 100.022 C 165.972 99.192,165.082 97.822,164.541 96.976 C 164.000 96.130,163.257 94.977,162.890 94.413 C 159.554 89.288,158.688 87.937,158.688 87.859 C 158.688 87.809,158.450 87.418,158.158 86.990 C 157.363 85.821,156.608 84.129,156.490 83.250 C 156.126 80.538,159.032 78.540,161.710 79.659 M289.595 79.846 C 296.984 81.916,301.147 90.098,295.990 92.414 C 293.771 93.411,292.053 92.389,290.325 89.045 C 289.064 86.604,287.061 85.289,284.362 85.129 C 280.552 84.903,277.396 86.800,277.396 89.315 C 277.396 91.945,278.737 92.960,284.059 94.357 C 284.511 94.475,284.967 94.652,285.074 94.749 C 285.181 94.846,285.464 94.926,285.702 94.926 C 286.897 94.926,291.242 96.287,293.244 97.289 C 297.049 99.193,298.463 100.659,299.369 103.639 C 301.750 111.473,296.427 118.550,287.425 119.517 C 277.024 120.634,268.888 115.818,268.888 108.544 C 268.888 103.671,274.811 102.958,276.271 107.655 C 277.391 111.258,279.775 113.233,283.356 113.523 C 291.030 114.146,294.848 106.921,288.508 103.771 C 287.355 103.199,285.722 102.704,282.317 101.896 C 273.257 99.747,269.587 96.421,269.613 90.386 C 269.628 86.713,270.602 84.660,273.501 82.188 C 274.236 81.561,277.610 79.965,278.216 79.958 C 278.498 79.954,279.190 79.818,279.754 79.655 C 281.213 79.233,287.870 79.363,289.595 79.846 M324.998 79.687 C 325.147 79.805,325.592 79.962,325.987 80.035 C 332.590 81.269,336.953 90.289,331.959 92.381 C 329.713 93.321,328.326 92.581,326.453 89.442 C 324.527 86.214,323.194 85.313,320.085 85.135 C 314.265 84.804,310.865 89.987,315.167 92.634 C 316.020 93.159,320.782 94.676,324.244 95.526 C 332.330 97.512,335.644 100.838,335.695 107.022 C 335.769 115.802,328.868 120.517,317.403 119.520 C 311.942 119.045,308.012 116.616,305.849 112.378 C 303.416 107.611,305.867 103.105,309.958 104.825 C 310.783 105.172,313.070 108.655,313.070 109.565 C 313.070 109.622,313.294 109.999,313.567 110.402 C 317.758 116.577,330.065 112.868,327.232 106.283 C 326.427 104.411,324.759 103.550,319.118 102.095 C 312.917 100.495,310.587 99.502,308.449 97.548 C 302.562 92.167,305.951 81.469,313.993 80.050 C 314.444 79.971,314.906 79.832,315.021 79.743 C 315.546 79.330,324.481 79.281,324.998 79.687 M262.201 80.472 C 264.175 81.637,264.146 84.973,262.153 86.063 C 261.576 86.379,260.502 86.428,252.144 86.520 C 246.994 86.576,242.704 86.699,242.610 86.793 C 242.517 86.886,242.410 88.748,242.373 90.929 L 242.306 94.895 242.783 95.166 C 243.155 95.379,245.092 95.444,251.605 95.465 C 261.744 95.498,262.122 95.611,262.122 98.616 C 262.122 101.508,261.918 101.567,251.426 101.691 C 246.671 101.748,242.723 101.852,242.651 101.924 C 242.434 102.141,242.296 109.072,242.476 110.712 L 242.645 112.250 252.178 112.353 C 261.189 112.450,261.757 112.478,262.529 112.865 C 264.850 114.029,264.909 117.258,262.634 118.595 C 261.932 119.007,261.656 119.016,249.610 119.016 L 237.303 119.016 236.284 118.499 C 235.476 118.089,235.158 117.770,234.751 116.961 L 234.239 115.941 234.180 99.949 C 234.109 80.641,234.072 80.895,237.109 80.146 C 238.726 79.748,261.475 80.043,262.201 80.472 M339.826 126.397 L 339.826 127.217 202.358 127.217 L 64.890 127.217 64.823 126.636 C 64.787 126.316,64.807 125.924,64.868 125.764 C 64.964 125.514,84.015 125.481,202.403 125.525 L 339.826 125.577 339.826 126.397 M80.272 131.835 C 81.056 132.485,80.501 133.197,79.572 132.733 C 78.130 132.014,77.089 132.924,77.089 134.904 C 77.089 136.582,78.131 137.328,79.663 136.746 C 80.804 136.312,81.051 137.313,79.944 137.886 C 77.446 139.178,75.148 136.871,75.780 133.707 C 76.166 131.778,78.854 130.658,80.272 131.835 M115.813 131.514 C 116.297 131.668,116.544 132.231,116.255 132.520 C 116.109 132.666,115.816 132.650,115.315 132.469 C 113.695 131.883,113.533 133.217,115.112 134.142 C 116.412 134.904,116.644 135.225,116.652 136.271 C 116.665 138.006,114.117 138.944,112.845 137.671 C 112.036 136.862,112.676 136.440,113.881 136.988 C 115.378 137.670,116.033 136.062,114.557 135.330 C 112.849 134.483,112.370 133.737,112.765 132.539 C 113.118 131.471,114.361 131.053,115.813 131.514 M150.122 131.512 C 150.807 131.656,151.238 132.342,150.899 132.750 C 150.704 132.985,150.552 132.981,149.941 132.725 C 148.346 132.059,147.266 133.112,147.461 135.141 C 147.625 136.849,148.489 137.288,150.433 136.650 C 151.106 136.429,151.287 137.066,150.715 137.639 C 150.195 138.159,147.623 138.308,147.463 137.827 C 147.416 137.686,147.257 137.570,147.110 137.570 C 146.617 137.570,146.136 136.158,146.157 134.771 C 146.186 132.845,146.896 131.726,148.275 131.433 C 148.952 131.290,149.092 131.296,150.122 131.512 M162.039 131.408 C 163.711 131.796,164.501 133.592,163.995 135.854 C 163.307 138.928,159.129 139.073,158.284 136.053 C 157.475 133.165,159.393 130.793,162.039 131.408 M177.068 131.983 C 177.471 133.586,176.980 136.830,176.230 137.519 C 175.042 138.612,172.838 138.334,172.237 137.014 C 171.800 136.056,171.950 131.420,172.417 131.420 C 173.062 131.420,173.244 132.071,173.244 134.374 L 173.244 136.535 173.888 136.868 C 175.333 137.615,175.845 136.801,175.894 133.682 C 175.915 132.359,176.015 131.481,176.156 131.394 C 176.526 131.166,176.929 131.426,177.068 131.983 M200.256 131.679 C 200.527 131.891,200.601 132.493,200.384 132.710 C 200.313 132.781,199.930 132.703,199.532 132.536 C 198.886 132.267,198.770 132.269,198.453 132.556 C 197.962 133.000,198.172 133.590,198.932 133.905 C 200.839 134.695,201.504 136.307,200.410 137.488 C 199.387 138.592,196.682 138.293,196.866 137.096 C 196.909 136.815,197.047 136.681,197.237 136.736 C 199.646 137.433,200.530 136.318,198.461 135.192 C 196.944 134.367,196.519 133.420,197.132 132.235 C 197.598 131.335,199.408 131.013,200.256 131.679 M254.257 131.424 C 254.713 131.551,255.043 131.786,255.107 132.031 C 255.268 132.646,254.817 132.889,254.154 132.545 C 252.560 131.718,252.414 133.263,253.998 134.192 C 256.955 135.925,255.032 139.468,251.975 137.921 C 250.822 137.338,251.290 136.367,252.484 136.865 C 254.466 137.693,254.936 136.090,252.999 135.108 C 251.822 134.511,251.578 134.176,251.570 133.147 C 251.561 132.070,252.079 131.533,253.409 131.240 C 253.465 131.227,253.847 131.310,254.257 131.424 M275.961 134.834 C 275.961 138.146,275.819 138.628,275.036 137.978 C 274.545 137.571,274.592 131.723,275.088 131.446 C 275.836 131.026,275.961 131.510,275.961 134.834 M91.720 131.845 C 92.373 132.358,92.491 133.900,91.927 134.524 C 91.625 134.857,91.623 134.958,91.903 135.565 C 92.565 137.001,92.761 137.767,92.527 138.001 C 92.088 138.440,91.484 137.989,91.107 136.940 C 90.354 134.845,89.445 134.768,89.349 136.791 C 89.291 138.016,89.261 138.083,88.775 138.083 L 88.262 138.083 88.205 135.017 C 88.174 133.330,88.194 131.831,88.250 131.685 C 88.431 131.214,91.073 131.336,91.720 131.845 M103.601 132.291 C 103.770 132.770,104.277 134.187,104.727 135.439 C 105.191 136.728,105.478 137.825,105.388 137.970 C 105.096 138.443,104.463 138.092,104.066 137.238 C 103.458 135.930,101.622 135.933,101.176 137.242 C 100.902 138.046,100.358 138.380,99.976 137.977 C 99.712 137.699,101.259 132.800,101.965 131.676 C 102.364 131.040,103.281 131.384,103.601 132.291 M125.555 131.744 C 125.623 131.922,125.679 132.522,125.679 133.077 L 125.679 134.085 126.807 134.085 C 127.427 134.085,127.941 134.016,127.948 133.931 C 127.956 133.847,127.999 133.367,128.044 132.866 C 128.158 131.597,128.275 131.381,128.805 131.457 C 129.439 131.547,129.540 137.661,128.914 138.056 C 128.230 138.487,128.015 137.914,127.945 135.469 C 127.936 135.172,127.740 135.110,126.807 135.110 L 125.679 135.110 125.679 136.418 C 125.679 137.787,125.374 138.348,124.759 138.112 C 124.435 137.988,124.273 131.869,124.586 131.556 C 124.839 131.303,125.429 131.417,125.555 131.744 M188.686 131.915 C 189.466 132.638,189.563 133.299,189.030 134.248 L 188.581 135.048 189.114 136.213 C 189.690 137.472,189.761 137.885,189.439 138.084 C 188.966 138.377,188.438 137.925,188.076 136.919 C 187.348 134.894,186.427 134.860,186.326 136.853 C 186.267 138.012,186.234 138.083,185.751 138.083 L 185.238 138.083 185.181 135.017 C 185.150 133.330,185.170 131.831,185.226 131.685 C 185.426 131.165,188.065 131.340,188.686 131.915 M212.301 131.932 C 212.301 132.285,212.131 132.357,211.071 132.445 L 209.841 132.547 209.841 133.265 C 209.841 133.976,209.851 133.984,210.866 134.085 C 212.508 134.249,212.520 135.110,210.880 135.110 L 209.739 135.110 209.739 136.033 L 209.739 136.955 210.747 136.955 C 212.005 136.955,212.404 137.103,212.404 137.570 C 212.404 138.202,209.328 138.513,208.754 137.940 C 208.494 137.679,208.392 132.372,208.636 131.736 C 208.849 131.181,212.301 131.366,212.301 131.932 M230.446 134.707 C 230.446 137.451,230.395 138.013,230.136 138.112 C 229.366 138.408,229.216 137.851,229.216 134.709 C 229.216 131.493,229.232 131.420,229.968 131.420 L 230.446 131.420 230.446 134.707 M240.506 132.283 C 241.214 133.509,241.561 134.136,242.030 135.038 L 242.440 135.828 242.542 133.677 C 242.633 131.780,242.690 131.518,243.030 131.453 C 243.664 131.332,243.766 131.796,243.769 134.829 C 243.774 139.093,243.070 139.362,241.087 135.851 C 239.724 133.436,239.740 133.436,239.698 135.873 C 239.661 137.977,239.494 138.432,238.897 138.056 C 238.472 137.788,238.262 132.549,238.648 131.827 C 239.049 131.079,239.935 131.296,240.506 132.283 M267.328 131.700 C 267.646 132.083,267.249 132.392,266.324 132.479 L 265.607 132.547 265.550 135.244 C 265.491 138.035,265.380 138.361,264.588 138.057 C 264.348 137.965,264.275 137.392,264.229 135.244 L 264.172 132.547 263.352 132.445 C 262.696 132.363,262.519 132.250,262.467 131.881 C 262.386 131.312,266.867 131.145,267.328 131.700 M288.293 131.625 C 288.390 132.272,288.311 132.348,287.442 132.445 L 286.520 132.547 286.462 135.273 C 286.417 137.455,286.345 138.021,286.101 138.115 C 285.385 138.390,285.201 137.820,285.142 135.141 L 285.085 132.547 284.367 132.482 C 283.524 132.404,283.240 132.185,283.411 131.741 C 283.556 131.363,288.237 131.251,288.293 131.625 M296.873 133.901 C 296.987 136.548,297.163 136.957,298.180 136.952 C 299.355 136.947,299.427 136.794,299.539 134.044 C 299.642 131.499,299.901 130.880,300.579 131.558 C 300.929 131.908,300.855 136.195,300.486 136.908 C 299.621 138.581,296.809 138.615,295.954 136.962 C 295.629 136.332,295.491 131.845,295.789 131.548 C 296.470 130.867,296.771 131.519,296.873 133.901 M313.121 131.676 C 313.295 132.150,313.040 132.445,312.455 132.445 C 311.232 132.445,311.225 132.461,311.225 135.325 C 311.225 138.026,311.139 138.316,310.409 138.084 C 310.040 137.967,310.002 137.732,309.949 135.252 L 309.892 132.547 309.176 132.479 C 308.251 132.392,307.854 132.083,308.172 131.700 C 308.490 131.317,312.981 131.295,313.121 131.676 M324.244 131.932 C 324.244 132.265,324.089 132.353,323.424 132.397 C 321.843 132.502,321.681 132.591,321.739 133.319 C 321.790 133.949,321.839 133.986,322.707 134.048 C 324.474 134.174,324.501 135.037,322.741 135.151 L 321.784 135.213 321.784 136.033 L 321.784 136.853 323.012 136.955 C 324.270 137.060,324.800 137.567,324.110 138.004 C 323.685 138.274,320.980 138.223,320.697 137.940 C 320.436 137.679,320.335 132.372,320.578 131.736 C 320.792 131.181,324.244 131.366,324.244 131.932 M160.537 132.559 C 158.570 133.636,159.468 137.739,161.513 137.019 C 163.187 136.429,163.361 133.374,161.767 132.550 C 161.438 132.379,161.141 132.249,161.107 132.260 C 161.073 132.271,160.817 132.406,160.537 132.559 M89.527 132.582 C 89.452 132.657,89.390 133.026,89.390 133.402 C 89.390 134.237,90.511 134.430,90.982 133.676 C 91.400 133.006,90.089 132.020,89.527 132.582 M186.503 132.582 C 186.427 132.657,186.366 133.031,186.366 133.414 C 186.366 134.333,187.845 134.395,187.974 133.482 C 188.076 132.761,186.988 132.096,186.503 132.582 M102.417 133.573 C 102.338 133.798,102.188 134.195,102.085 134.454 C 101.743 135.309,101.843 135.520,102.563 135.456 C 103.311 135.389,103.369 135.062,102.848 133.837 C 102.592 133.236,102.545 133.207,102.417 133.573 M339.892 142.555 C 339.928 142.872,339.848 143.264,339.713 143.426 C 339.455 143.737,71.435 143.895,66.786 143.587 L 64.787 143.454 64.787 142.802 C 64.787 142.443,64.849 142.088,64.924 142.012 C 64.999 141.937,126.883 141.899,202.443 141.927 L 339.826 141.978 339.892 142.555 " stroke="none" fill="#fbfbfb" fill-rule="evenodd"></path><path id="path2" d="M196.105 80.146 C 195.267 80.537,194.353 81.540,193.900 82.564 C 193.552 83.354,193.413 114.065,193.750 116.059 C 194.248 119.017,197.098 120.265,199.334 118.506 C 200.672 117.454,200.692 117.099,200.717 93.747 C 200.718 92.689,201.408 92.848,202.047 94.054 C 202.331 94.590,202.923 95.536,203.362 96.156 C 204.602 97.907,212.156 109.461,212.694 110.431 C 212.874 110.755,213.197 111.251,213.411 111.533 C 213.626 111.814,214.433 113.010,215.204 114.189 C 218.461 119.167,221.188 120.532,223.953 118.565 C 225.583 117.406,225.514 118.259,225.531 99.228 L 225.547 82.405 225.102 81.514 C 224.187 79.682,221.411 79.110,219.999 80.463 C 218.771 81.640,218.760 81.762,218.760 94.361 C 218.760 105.468,218.689 106.846,218.142 106.508 C 218.039 106.444,216.783 104.619,215.352 102.453 C 213.920 100.286,212.302 97.843,211.756 97.023 C 211.210 96.204,210.764 95.442,210.764 95.332 C 210.764 95.221,210.669 95.131,210.554 95.131 C 210.439 95.131,210.233 94.877,210.096 94.567 C 209.959 94.257,209.315 93.248,208.665 92.326 C 208.015 91.403,207.483 90.587,207.483 90.513 C 207.483 90.438,207.295 90.132,207.065 89.833 C 206.835 89.533,205.638 87.719,204.406 85.802 C 200.462 79.667,199.107 78.744,196.105 80.146 M279.241 80.154 C 275.325 81.048,272.316 83.202,270.824 86.180 L 269.987 87.852 270.052 90.518 C 270.204 96.659,273.214 99.144,283.737 101.814 C 290.423 103.509,292.049 104.810,292.004 108.428 C 291.970 111.247,289.452 113.357,285.548 113.838 C 280.778 114.425,278.388 113.082,276.149 108.557 C 274.103 104.424,271.415 103.578,269.689 106.524 C 267.334 110.541,272.696 117.322,279.461 118.881 C 291.541 121.666,301.870 113.793,299.027 103.968 C 297.742 99.526,294.666 97.588,284.777 94.992 C 283.255 94.592,281.645 94.167,281.199 94.047 C 274.391 92.219,275.806 85.234,283.046 84.931 C 287.405 84.748,288.892 85.579,291.034 89.397 C 292.306 91.663,292.334 91.693,293.632 92.129 C 295.878 92.884,297.839 91.052,297.647 88.378 C 297.202 82.192,288.113 78.130,279.241 80.154 M315.941 79.949 C 309.619 81.119,305.997 84.893,305.997 90.313 C 305.997 96.516,309.736 99.619,319.938 101.881 C 325.916 103.206,327.914 104.752,327.914 108.047 C 327.914 111.946,324.142 114.402,318.930 113.894 C 315.540 113.564,313.944 112.322,312.136 108.607 C 310.626 105.504,310.066 104.972,308.310 104.972 C 303.870 104.972,304.228 111.357,308.908 115.635 C 314.999 121.201,328.465 120.356,333.123 114.114 C 335.418 111.038,336.146 105.610,334.641 102.798 C 333.377 100.435,331.099 98.408,328.652 97.470 C 328.145 97.275,327.637 97.055,327.524 96.980 C 327.412 96.906,326.904 96.725,326.397 96.579 C 325.889 96.433,325.243 96.240,324.962 96.151 C 324.680 96.062,323.665 95.790,322.706 95.545 C 321.748 95.301,320.687 95.007,320.349 94.893 C 320.010 94.778,319.364 94.599,318.913 94.494 C 310.118 92.449,310.762 84.981,319.733 84.983 C 323.826 84.984,325.117 85.778,326.994 89.451 C 328.652 92.697,331.306 93.303,333.060 90.835 C 335.388 87.559,331.856 82.566,325.577 80.256 C 324.523 79.869,317.573 79.648,315.941 79.949 M236.818 80.760 C 234.476 81.709,234.549 81.115,234.548 99.267 C 234.546 117.718,234.473 117.091,236.759 118.228 C 237.702 118.697,259.943 118.933,261.541 118.491 C 264.153 117.768,264.712 114.730,262.486 113.347 L 261.712 112.865 251.973 112.763 L 242.235 112.660 242.054 109.883 C 241.955 108.356,241.940 105.851,242.023 104.318 L 242.172 101.530 242.793 101.406 C 243.134 101.337,247.097 101.281,251.599 101.281 C 260.580 101.281,260.672 101.270,261.298 100.058 C 262.056 98.592,261.584 96.980,260.177 96.234 L 259.258 95.746 250.810 95.746 C 244.276 95.746,242.324 95.688,242.196 95.489 C 241.957 95.121,241.901 87.231,242.133 86.622 L 242.327 86.110 251.328 86.110 C 256.278 86.110,260.614 86.053,260.963 85.983 C 263.736 85.428,264.063 81.650,261.419 80.703 C 259.934 80.171,238.146 80.221,236.818 80.760 " stroke="none" fill="#23db2e" fill-rule="evenodd"></path><path id="path3" d="M221.422 79.335 C 218.470 79.881,218.472 79.873,218.350 93.593 C 218.269 102.602,218.192 105.070,217.991 105.054 C 217.430 105.009,217.324 104.964,217.324 104.770 C 217.324 104.659,216.656 103.571,215.838 102.353 C 213.562 98.960,212.952 98.034,212.506 97.295 C 212.281 96.921,211.651 95.981,211.106 95.207 C 210.562 94.432,209.190 92.368,208.057 90.620 C 206.924 88.872,205.732 87.058,205.408 86.589 C 205.083 86.119,204.818 85.677,204.818 85.606 C 204.818 85.535,204.451 84.980,204.002 84.373 C 203.554 83.765,203.001 82.914,202.775 82.480 C 200.566 78.242,194.756 78.314,193.511 82.595 C 193.101 84.006,193.104 115.970,193.515 117.171 C 194.588 120.308,199.190 120.617,200.534 117.643 L 201.025 116.556 201.077 105.689 C 201.105 99.713,201.128 94.616,201.128 94.362 C 201.128 94.108,201.205 93.901,201.300 93.901 C 201.394 93.901,201.580 94.108,201.713 94.362 C 201.972 94.857,202.508 95.679,204.049 97.947 C 204.585 98.735,205.023 99.454,205.023 99.545 C 205.023 99.635,205.168 99.855,205.346 100.034 C 205.616 100.306,207.176 102.642,209.183 105.782 C 209.432 106.172,209.774 106.695,209.944 106.946 C 210.113 107.197,210.666 108.067,211.174 108.880 C 212.289 110.666,212.392 110.824,213.921 113.108 C 214.586 114.102,215.347 115.242,215.610 115.641 C 218.640 120.223,223.384 121.180,225.364 117.607 L 225.833 116.761 225.889 99.606 L 225.944 82.451 225.454 81.342 C 224.766 79.786,223.200 79.007,221.422 79.335 M67.043 79.614 C 64.167 81.116,64.094 81.962,66.140 90.108 C 66.763 92.588,67.452 95.402,67.671 96.361 C 67.889 97.319,68.448 99.580,68.912 101.384 C 69.375 103.188,69.981 105.633,70.258 106.817 C 72.987 118.484,73.565 119.528,77.294 119.528 C 79.947 119.528,81.199 118.507,82.192 115.530 C 82.741 113.888,84.613 107.293,85.072 105.390 C 85.168 104.991,85.994 101.943,86.909 98.616 C 87.823 95.290,88.675 92.176,88.802 91.697 C 88.929 91.217,89.103 90.825,89.188 90.825 C 89.368 90.825,89.395 90.912,90.313 94.413 C 90.697 95.879,91.300 98.093,91.653 99.334 C 92.005 100.574,92.510 102.419,92.774 103.434 C 93.801 107.386,95.209 112.533,95.943 115.018 C 96.935 118.378,98.204 119.528,100.920 119.528 C 104.227 119.528,105.294 118.278,106.604 112.865 C 106.959 111.399,107.566 108.954,107.952 107.432 C 108.339 105.910,108.701 104.480,108.756 104.254 C 108.812 104.029,109.096 102.875,109.388 101.691 C 109.680 100.507,109.994 99.170,110.086 98.719 C 110.239 97.963,111.879 91.383,113.079 86.708 C 114.239 82.187,113.285 79.677,110.299 79.390 C 107.351 79.107,106.029 81.039,105.072 87.032 C 105.000 87.483,104.864 88.083,104.771 88.365 C 104.677 88.647,104.459 89.523,104.287 90.313 C 104.114 91.102,103.686 93.039,103.334 94.618 C 102.982 96.197,102.514 98.319,102.294 99.334 C 101.493 103.019,100.796 105.898,100.665 106.054 C 100.528 106.218,99.010 100.964,97.064 93.593 C 96.281 90.628,94.530 84.322,94.181 83.209 C 93.223 80.161,90.558 78.685,87.564 79.543 C 85.195 80.223,84.435 81.560,82.726 88.057 C 82.459 89.072,82.047 90.580,81.811 91.409 C 81.575 92.237,81.016 94.313,80.570 96.022 C 80.124 97.731,79.485 100.144,79.152 101.384 C 78.054 105.464,77.909 106.016,77.909 106.109 C 77.909 106.565,77.514 106.031,77.409 105.433 C 77.335 105.010,77.006 103.511,76.680 102.101 C 76.353 100.692,75.850 98.478,75.561 97.181 C 75.273 95.884,74.796 93.762,74.500 92.465 C 74.205 91.169,73.842 89.554,73.694 88.877 C 73.547 88.201,73.280 87.048,73.102 86.315 C 72.924 85.582,72.695 84.521,72.592 83.957 C 71.904 80.177,69.526 78.317,67.043 79.614 M120.862 79.667 C 119.980 80.127,119.545 80.565,119.045 81.497 C 118.484 82.544,118.339 115.595,118.889 117.153 C 120.056 120.458,125.182 120.400,126.328 117.068 C 126.492 116.591,126.613 113.944,126.691 109.175 L 126.807 101.999 134.892 101.945 C 141.223 101.903,143.012 101.948,143.141 102.150 C 143.231 102.293,143.306 105.511,143.308 109.303 C 143.311 116.701,143.394 117.394,144.394 118.466 C 146.336 120.545,150.341 119.617,151.092 116.913 C 151.541 115.294,151.363 82.665,150.899 81.642 C 149.506 78.574,145.314 78.481,143.817 81.485 C 143.313 82.497,143.311 82.519,143.311 88.701 C 143.311 93.436,143.251 94.941,143.055 95.067 C 142.741 95.271,128.835 95.425,127.594 95.239 L 126.704 95.106 126.704 89.508 C 126.704 83.430,126.562 82.126,125.765 80.922 C 124.839 79.523,122.356 78.887,120.862 79.667 M158.377 79.782 C 155.929 81.094,155.853 83.602,158.158 86.990 C 158.450 87.418,158.688 87.809,158.688 87.859 C 158.688 87.937,159.554 89.288,162.890 94.413 C 163.257 94.977,164.000 96.130,164.541 96.976 C 165.082 97.822,165.972 99.192,166.519 100.022 C 167.065 100.851,167.626 101.728,167.765 101.969 C 167.945 102.284,168.046 104.452,168.119 109.585 C 168.250 118.760,168.480 119.346,172.014 119.488 C 175.802 119.640,176.320 118.347,176.320 108.747 L 176.320 102.327 176.935 101.416 C 177.273 100.914,177.550 100.402,177.550 100.278 C 177.550 100.153,177.621 100.051,177.708 100.051 C 177.795 100.051,178.597 98.921,179.491 97.540 C 180.959 95.269,183.091 92.004,186.082 87.440 C 188.568 83.647,188.696 81.522,186.533 79.955 C 184.906 78.777,182.657 79.250,181.332 81.049 C 180.692 81.918,180.596 82.070,178.694 85.224 C 177.038 87.970,173.968 92.943,173.101 94.283 C 172.698 94.906,172.312 95.305,172.211 95.204 C 172.034 95.027,169.144 90.423,169.144 90.319 C 169.144 90.035,163.367 80.952,162.789 80.325 C 161.867 79.327,159.720 79.062,158.377 79.782 M279.754 79.655 C 279.190 79.818,278.498 79.954,278.216 79.958 C 277.610 79.965,274.236 81.561,273.501 82.188 C 270.602 84.660,269.628 86.713,269.613 90.386 C 269.587 96.421,273.257 99.747,282.317 101.896 C 285.722 102.704,287.355 103.199,288.508 103.771 C 294.848 106.921,291.030 114.146,283.356 113.523 C 279.775 113.233,277.391 111.258,276.271 107.655 C 274.811 102.958,268.888 103.671,268.888 108.544 C 268.888 115.818,277.024 120.634,287.425 119.517 C 296.427 118.550,301.750 111.473,299.369 103.639 C 298.463 100.659,297.049 99.193,293.244 97.289 C 291.242 96.287,286.897 94.926,285.702 94.926 C 285.464 94.926,285.181 94.846,285.074 94.749 C 284.967 94.652,284.511 94.475,284.059 94.357 C 278.737 92.960,277.396 91.945,277.396 89.315 C 277.396 86.800,280.552 84.903,284.362 85.129 C 287.061 85.289,289.064 86.604,290.325 89.045 C 292.053 92.389,293.771 93.411,295.990 92.414 C 300.206 90.521,297.988 83.645,292.272 80.888 C 289.362 79.485,282.637 78.822,279.754 79.655 M316.046 79.483 C 315.596 79.536,315.135 79.653,315.021 79.743 C 314.906 79.832,314.444 79.971,313.993 80.050 C 305.951 81.469,302.562 92.167,308.449 97.548 C 310.587 99.502,312.917 100.495,319.118 102.095 C 324.759 103.550,326.427 104.411,327.232 106.283 C 330.065 112.868,317.758 116.577,313.567 110.402 C 313.294 109.999,313.070 109.622,313.070 109.565 C 313.070 108.655,310.783 105.172,309.958 104.825 C 305.867 103.105,303.416 107.611,305.849 112.378 C 308.012 116.616,311.942 119.045,317.403 119.520 C 328.868 120.517,335.769 115.802,335.695 107.022 C 335.644 100.838,332.330 97.512,324.244 95.526 C 320.782 94.676,316.020 93.159,315.167 92.634 C 310.865 89.987,314.265 84.804,320.085 85.135 C 323.194 85.313,324.527 86.214,326.453 89.442 C 328.326 92.581,329.713 93.321,331.959 92.381 C 336.953 90.289,332.590 81.269,325.987 80.035 C 325.592 79.962,325.147 79.805,324.998 79.687 C 324.718 79.467,317.573 79.304,316.046 79.483 M110.953 79.844 C 113.800 80.440,113.905 82.336,111.587 91.338 C 111.297 92.465,110.991 93.757,110.907 94.208 C 110.823 94.659,110.573 95.674,110.351 96.463 C 110.128 97.253,109.609 99.329,109.197 101.076 C 108.784 102.824,108.309 104.762,108.141 105.382 C 107.972 106.002,107.657 107.248,107.439 108.150 C 105.000 118.274,104.420 119.323,101.267 119.323 C 97.718 119.323,96.979 118.170,94.497 108.765 C 94.021 106.961,93.418 104.700,93.157 103.742 C 92.210 100.269,91.671 98.262,91.035 95.848 C 90.053 92.119,89.385 90.005,89.187 90.005 C 88.980 90.005,88.898 90.278,86.811 97.899 C 85.946 101.056,85.072 104.239,84.870 104.972 C 84.439 106.533,83.157 111.258,82.643 113.178 C 81.289 118.240,79.676 119.758,76.206 119.238 C 73.919 118.895,73.244 117.576,71.261 109.585 C 65.043 84.517,64.992 84.304,64.992 83.049 C 64.992 81.061,66.422 79.754,68.598 79.754 C 70.940 79.754,71.473 80.529,72.680 85.686 C 73.421 88.852,76.597 103.024,76.903 104.531 C 77.488 107.416,77.816 107.651,78.349 105.571 C 78.536 104.847,78.971 103.193,79.316 101.896 C 82.101 91.454,83.494 86.281,83.731 85.495 C 83.884 84.987,84.131 84.157,84.280 83.649 C 85.075 80.946,86.585 79.754,89.216 79.754 C 92.894 79.754,93.260 80.399,96.470 92.568 C 96.839 93.966,97.544 96.572,97.802 97.488 C 98.008 98.221,98.976 101.803,99.740 104.664 C 100.484 107.447,100.856 107.722,101.161 105.712 C 101.232 105.249,101.513 103.947,101.787 102.819 C 102.061 101.691,102.564 99.523,102.905 98.001 C 103.247 96.479,103.768 94.176,104.063 92.883 C 104.359 91.590,104.673 90.114,104.762 89.603 C 104.851 89.091,105.064 88.119,105.236 87.442 C 105.408 86.766,105.753 85.336,106.002 84.264 C 106.710 81.218,107.511 80.022,109.017 79.763 C 109.796 79.629,109.956 79.635,110.953 79.844 M124.606 80.239 C 126.161 81.255,126.294 81.938,126.294 88.893 C 126.294 93.874,126.349 95.126,126.574 95.313 C 126.775 95.480,129.193 95.530,135.134 95.492 L 143.414 95.438 143.516 88.980 C 143.618 82.561,143.622 82.516,144.131 81.607 C 145.577 79.027,149.041 79.027,150.487 81.607 L 150.999 82.522 151.059 98.309 C 151.123 115.067,151.051 116.801,150.255 117.884 C 148.898 119.729,145.804 119.826,144.494 118.064 C 143.668 116.952,143.639 116.686,143.524 109.072 L 143.414 101.794 134.905 101.794 L 126.397 101.794 126.294 109.175 C 126.218 114.640,126.122 116.715,125.922 117.171 C 124.394 120.653,119.472 119.796,119.017 115.969 C 118.646 112.853,119.010 82.122,119.426 81.416 C 120.469 79.644,122.863 79.101,124.606 80.239 M162.394 80.487 C 162.931 81.001,164.984 83.906,165.570 84.982 C 166.110 85.972,167.223 87.825,168.648 90.108 C 169.492 91.461,170.244 92.703,170.318 92.868 C 170.542 93.371,171.997 95.506,172.200 95.632 C 172.489 95.810,172.942 95.266,174.042 93.423 C 174.591 92.502,175.695 90.687,176.495 89.390 C 177.295 88.093,178.667 85.840,179.544 84.383 C 181.880 80.501,182.670 79.754,184.437 79.754 C 187.254 79.754,188.619 82.068,187.322 84.645 C 186.813 85.656,183.026 91.626,180.755 94.997 C 180.007 96.107,179.395 97.055,179.395 97.104 C 179.395 97.153,178.634 98.320,177.704 99.699 L 176.012 102.204 175.908 109.380 C 175.786 117.812,175.756 117.945,173.773 118.958 C 172.097 119.813,170.286 119.252,169.042 117.493 L 168.426 116.623 168.361 109.414 C 168.297 102.337,168.287 102.191,167.833 101.486 C 167.579 101.092,166.926 100.077,166.381 99.231 C 165.837 98.385,165.313 97.663,165.217 97.625 C 165.122 97.588,165.044 97.470,165.044 97.364 C 165.044 97.159,163.925 95.377,160.647 90.358 C 156.737 84.373,156.066 82.367,157.471 80.866 C 158.790 79.455,161.129 79.275,162.394 80.487 M199.842 80.066 C 200.823 80.462,201.607 81.448,204.406 85.802 C 205.638 87.719,206.835 89.533,207.065 89.833 C 207.295 90.132,207.483 90.438,207.483 90.513 C 207.483 90.587,208.014 91.403,208.662 92.326 C 209.311 93.248,209.972 94.257,210.132 94.567 C 210.292 94.877,210.500 95.131,210.593 95.131 C 210.687 95.131,210.764 95.221,210.764 95.332 C 210.764 95.442,211.210 96.204,211.756 97.023 C 212.302 97.843,213.920 100.286,215.352 102.453 C 216.783 104.619,218.039 106.444,218.142 106.508 C 218.689 106.846,218.760 105.468,218.760 94.361 C 218.760 81.762,218.771 81.640,219.999 80.463 C 221.411 79.110,224.187 79.682,225.102 81.514 L 225.547 82.405 225.531 99.228 C 225.514 118.259,225.583 117.406,223.953 118.565 C 221.188 120.532,218.461 119.167,215.204 114.189 C 214.433 113.010,213.626 111.814,213.411 111.533 C 213.197 111.251,212.874 110.754,212.694 110.430 C 212.514 110.105,211.392 108.352,210.202 106.535 C 209.011 104.717,207.166 101.891,206.101 100.256 C 205.036 98.621,203.805 96.776,203.364 96.156 C 202.924 95.536,202.331 94.590,202.047 94.054 C 201.408 92.848,200.718 92.689,200.717 93.747 C 200.706 103.529,200.538 116.491,200.416 116.928 C 199.512 120.160,194.806 119.942,193.813 116.622 C 193.406 115.260,193.423 84.314,193.832 82.955 C 194.623 80.327,197.300 79.040,199.842 80.066 M288.482 80.045 C 295.021 81.212,299.882 87.765,296.766 91.214 C 294.888 93.293,292.921 92.695,291.092 89.490 C 288.866 85.588,287.427 84.759,283.155 84.922 C 278.983 85.080,276.515 87.033,276.888 89.881 C 277.236 92.539,278.669 93.435,285.290 95.137 C 296.197 97.941,299.378 100.664,299.418 107.227 C 299.476 116.680,287.837 122.261,276.884 118.032 C 270.553 115.587,266.722 107.410,270.895 105.248 C 273.004 104.155,274.408 105.039,276.149 108.557 C 278.388 113.082,280.778 114.425,285.548 113.838 C 289.452 113.357,291.970 111.247,292.004 108.428 C 292.049 104.810,290.423 103.509,283.737 101.814 C 274.278 99.414,270.852 96.988,269.987 92.076 C 268.530 83.803,277.357 78.060,288.482 80.045 M325.577 80.256 C 331.813 82.549,335.321 87.445,333.116 90.777 C 331.427 93.330,328.671 92.733,326.994 89.451 C 325.117 85.778,323.826 84.984,319.733 84.983 C 310.954 84.981,310.118 92.673,318.708 94.424 C 319.047 94.493,319.739 94.677,320.246 94.833 C 320.753 94.989,321.861 95.305,322.706 95.536 C 325.562 96.317,325.883 96.408,326.499 96.614 C 326.838 96.727,327.505 96.993,327.983 97.205 C 328.461 97.417,328.926 97.591,329.015 97.591 C 329.205 97.591,330.809 98.626,332.127 99.598 C 337.227 103.360,336.291 112.576,330.395 116.651 C 325.716 119.884,316.431 120.229,311.291 117.361 C 305.391 114.069,303.012 106.190,307.548 104.968 C 309.483 104.447,310.502 105.264,312.167 108.674 C 313.947 112.319,315.564 113.567,318.930 113.894 C 324.106 114.398,327.929 111.914,327.929 108.047 C 327.929 104.784,325.873 103.197,319.938 101.881 C 309.736 99.619,305.997 96.516,305.997 90.313 C 305.997 84.893,309.619 81.119,315.941 79.949 C 317.572 79.648,324.523 79.869,325.577 80.256 M237.109 80.146 C 234.072 80.895,234.109 80.641,234.180 99.949 L 234.239 115.941 234.751 116.961 C 235.158 117.770,235.476 118.089,236.284 118.499 L 237.303 119.016 249.610 119.016 C 261.656 119.016,261.932 119.007,262.634 118.595 C 264.909 117.258,264.850 114.029,262.529 112.865 C 261.757 112.478,261.189 112.450,252.178 112.353 L 242.645 112.250 242.476 110.712 C 242.296 109.072,242.434 102.141,242.651 101.924 C 242.723 101.852,246.671 101.748,251.426 101.691 C 261.918 101.567,262.122 101.508,262.122 98.616 C 262.122 95.611,261.744 95.498,251.605 95.465 C 245.092 95.444,243.155 95.379,242.783 95.166 L 242.306 94.895 242.373 90.929 C 242.410 88.748,242.517 86.886,242.610 86.793 C 242.704 86.699,246.994 86.576,252.144 86.520 C 260.502 86.428,261.576 86.379,262.153 86.063 C 264.146 84.973,264.175 81.637,262.201 80.472 C 261.475 80.043,238.726 79.748,237.109 80.146 M261.841 80.772 C 264.061 82.011,263.477 85.480,260.963 85.983 C 260.614 86.053,256.278 86.110,251.328 86.110 L 242.327 86.110 242.133 86.622 C 241.901 87.231,241.957 95.121,242.196 95.489 C 242.324 95.688,244.276 95.746,250.810 95.746 L 259.258 95.746 260.177 96.233 C 261.614 96.994,262.085 98.538,261.326 100.004 C 260.617 101.376,260.623 101.375,250.917 101.451 L 242.172 101.520 242.023 104.313 C 241.941 105.849,241.955 108.356,242.054 109.883 L 242.235 112.660 251.973 112.763 L 261.712 112.865 262.478 113.342 C 264.730 114.742,264.180 117.761,261.541 118.491 C 259.943 118.933,237.702 118.697,236.759 118.228 C 234.448 117.078,234.546 117.911,234.548 99.515 C 234.549 81.086,234.473 81.716,236.818 80.756 C 238.063 80.247,260.925 80.261,261.841 80.772 M64.881 125.693 C 64.807 125.813,64.802 125.967,64.869 126.034 C 64.937 126.102,64.992 126.050,64.992 125.918 C 64.992 125.736,97.838 125.679,202.371 125.679 L 339.749 125.679 339.685 126.345 L 339.621 127.012 202.370 127.063 C 92.712 127.104,65.083 127.063,64.938 126.858 C 64.803 126.668,64.778 126.681,64.840 126.909 C 64.915 127.182,80.370 127.217,202.375 127.217 L 339.826 127.217 339.826 126.397 L 339.826 125.577 202.421 125.525 C 105.213 125.489,64.977 125.538,64.881 125.693 M115.081 131.346 C 115.155 131.420,115.425 131.588,115.681 131.719 C 115.936 131.849,116.131 132.122,116.113 132.325 C 116.093 132.555,116.154 132.621,116.274 132.501 C 116.591 132.184,116.257 131.668,115.580 131.432 C 115.231 131.311,115.007 131.272,115.081 131.346 M176.166 131.365 C 176.025 131.414,175.910 131.557,175.910 131.683 C 175.910 131.851,175.971 131.851,176.140 131.682 C 176.266 131.555,176.497 131.501,176.652 131.560 C 176.808 131.620,176.935 131.623,176.935 131.566 C 176.935 131.398,176.441 131.268,176.166 131.365 M275.072 131.473 C 274.547 131.857,274.649 137.718,275.187 138.056 C 275.435 138.213,275.604 138.215,275.757 138.061 C 275.910 137.908,275.836 137.849,275.506 137.861 C 275.042 137.878,275.038 137.857,274.982 134.818 C 274.922 131.644,275.046 131.141,275.749 131.688 C 276.025 131.902,276.029 131.888,275.782 131.574 C 275.447 131.146,275.507 131.155,275.072 131.473 M76.928 131.984 C 76.611 132.294,76.540 132.391,76.771 132.201 C 77.002 132.010,77.422 131.763,77.704 131.650 C 78.057 131.509,78.106 131.442,77.861 131.433 C 77.665 131.426,77.246 131.674,76.928 131.984 M88.250 131.685 C 88.194 131.831,88.174 133.330,88.205 135.017 L 88.262 138.083 88.775 138.083 C 89.261 138.083,89.291 138.016,89.349 136.791 C 89.418 135.335,89.729 135.019,90.474 135.649 L 90.928 136.033 90.537 135.572 C 89.690 134.571,89.185 135.057,89.185 136.870 C 89.185 137.844,89.135 137.981,88.775 137.981 C 88.383 137.981,88.365 137.844,88.365 134.803 L 88.365 131.625 89.809 131.625 C 91.070 131.625,91.318 131.689,91.757 132.128 C 92.034 132.405,92.260 132.550,92.260 132.450 C 92.260 131.615,88.549 130.906,88.250 131.685 M102.017 131.595 C 101.958 131.692,102.151 131.724,102.447 131.668 C 102.820 131.596,103.079 131.684,103.289 131.954 C 103.571 132.315,103.583 132.316,103.462 131.967 C 103.390 131.760,103.332 131.553,103.332 131.506 C 103.332 131.340,102.124 131.422,102.017 131.595 M113.211 131.838 C 112.965 132.068,112.765 132.368,112.769 132.504 C 112.772 132.641,112.867 132.594,112.980 132.401 C 113.093 132.208,113.387 131.908,113.634 131.735 C 113.882 131.561,113.989 131.420,113.872 131.420 C 113.755 131.420,113.458 131.608,113.211 131.838 M124.574 131.589 C 124.516 131.682,124.672 131.751,124.920 131.743 C 125.325 131.729,125.378 131.843,125.435 132.855 C 125.469 133.475,125.562 134.047,125.640 134.127 C 125.789 134.277,125.735 132.683,125.565 131.881 C 125.468 131.427,124.796 131.229,124.574 131.589 M128.267 131.583 C 128.204 131.686,128.382 131.727,128.664 131.673 L 129.175 131.575 129.119 134.726 C 129.062 137.861,129.059 137.878,128.594 137.861 C 128.264 137.849,128.190 137.908,128.343 138.061 C 128.497 138.215,128.665 138.213,128.914 138.056 C 129.523 137.672,129.441 131.547,128.825 131.459 C 128.582 131.425,128.331 131.481,128.267 131.583 M147.251 131.984 C 146.934 132.294,146.863 132.391,147.094 132.201 C 147.325 132.010,147.745 131.763,148.027 131.650 C 148.380 131.509,148.428 131.442,148.184 131.433 C 147.988 131.426,147.568 131.674,147.251 131.984 M150.004 131.643 C 150.750 131.860,151.016 132.353,150.644 132.830 C 150.413 133.126,150.424 133.131,150.743 132.881 C 151.364 132.394,150.729 131.402,149.821 131.438 C 149.455 131.453,149.493 131.496,150.004 131.643 M159.348 131.984 C 159.030 132.294,158.960 132.391,159.191 132.201 C 159.422 132.010,159.841 131.763,160.123 131.650 C 160.476 131.509,160.525 131.442,160.280 131.433 C 160.084 131.426,159.665 131.674,159.348 131.984 M162.335 131.651 C 162.748 131.770,163.164 132.101,163.410 132.504 C 163.658 132.910,163.812 133.032,163.813 132.822 C 163.814 132.356,162.654 131.416,162.106 131.438 C 161.783 131.452,161.846 131.510,162.335 131.651 M172.014 131.606 C 172.014 131.708,172.195 131.744,172.415 131.687 C 172.926 131.553,173.021 131.944,173.100 134.495 L 173.159 136.443 173.202 134.328 C 173.225 133.165,173.149 132.034,173.032 131.816 C 172.820 131.420,172.014 131.254,172.014 131.606 M185.273 131.556 C 185.197 131.632,185.137 131.793,185.139 131.915 C 185.141 132.061,185.194 132.056,185.293 131.900 C 185.377 131.769,185.721 131.621,186.059 131.572 L 186.674 131.481 186.041 131.451 C 185.694 131.434,185.348 131.481,185.273 131.556 M186.776 131.501 C 186.776 131.545,187.137 131.616,187.579 131.658 C 188.020 131.700,188.338 131.664,188.284 131.577 C 188.187 131.420,186.776 131.348,186.776 131.501 M197.691 131.556 C 197.549 131.614,197.336 131.860,197.219 132.104 C 197.036 132.482,197.044 132.500,197.272 132.225 C 197.419 132.048,197.724 131.797,197.950 131.667 C 198.358 131.433,198.183 131.358,197.691 131.556 M199.846 131.631 C 200.100 131.733,200.308 131.927,200.308 132.062 C 200.308 132.198,200.367 132.249,200.439 132.176 C 200.639 131.977,200.098 131.418,199.719 131.433 C 199.493 131.442,199.534 131.506,199.846 131.631 M208.633 131.744 C 208.391 132.374,208.495 137.680,208.754 137.940 C 208.910 138.095,209.571 138.172,210.548 138.148 L 212.096 138.110 210.456 137.994 L 208.816 137.878 208.816 134.803 L 208.816 131.727 209.636 131.603 L 210.456 131.478 209.607 131.449 C 209.002 131.428,208.721 131.513,208.633 131.744 M211.430 131.561 C 212.774 131.715,212.418 132.240,210.969 132.240 C 210.292 132.240,209.739 132.309,209.739 132.394 C 209.739 132.478,210.315 132.501,211.020 132.445 C 212.621 132.317,212.998 131.543,211.481 131.498 L 210.661 131.473 211.430 131.561 M229.306 131.685 C 228.701 133.262,229.513 138.791,230.242 138.061 C 230.395 137.908,230.321 137.849,229.991 137.861 C 229.427 137.882,229.124 131.940,229.671 131.592 C 229.884 131.458,229.884 131.425,229.671 131.423 C 229.526 131.421,229.362 131.539,229.306 131.685 M238.768 131.595 C 238.708 131.692,238.903 131.724,239.201 131.667 C 239.621 131.587,239.856 131.698,240.242 132.158 L 240.741 132.752 240.367 132.086 C 240.000 131.431,239.049 131.139,238.768 131.595 M242.679 131.556 C 242.604 131.632,242.542 132.618,242.542 133.748 C 242.542 135.642,242.517 135.772,242.223 135.406 C 241.916 135.022,241.912 135.023,242.122 135.458 C 242.614 136.475,242.747 136.138,242.747 133.877 C 242.747 131.814,242.782 131.601,243.106 131.664 C 243.746 131.786,243.751 137.715,243.112 137.972 C 242.829 138.086,242.770 138.165,242.963 138.173 C 243.660 138.201,243.772 137.742,243.772 134.881 C 243.772 131.567,243.499 130.736,242.679 131.556 M252.009 131.894 C 251.764 132.155,251.565 132.501,251.566 132.663 C 251.568 132.825,251.685 132.729,251.827 132.449 C 251.968 132.169,252.313 131.825,252.592 131.683 C 252.904 131.525,252.976 131.425,252.778 131.423 C 252.600 131.421,252.254 131.633,252.009 131.894 M262.430 131.596 C 262.430 131.694,262.660 131.729,262.942 131.675 C 263.224 131.621,263.455 131.542,263.455 131.498 C 263.455 131.455,263.224 131.420,262.942 131.420 C 262.660 131.420,262.430 131.499,262.430 131.596 M264.531 131.561 C 264.728 131.613,265.051 131.613,265.249 131.561 C 265.446 131.510,265.284 131.467,264.890 131.467 C 264.495 131.467,264.334 131.510,264.531 131.561 M267.092 131.644 C 267.422 132.067,267.231 132.240,266.434 132.240 C 265.552 132.240,265.294 132.573,265.332 133.665 L 265.364 134.598 265.486 133.573 C 265.605 132.565,265.621 132.546,266.361 132.485 C 267.318 132.405,267.704 131.997,267.199 131.601 C 266.879 131.349,266.866 131.354,267.092 131.644 M283.411 131.741 C 283.240 132.185,283.524 132.404,284.367 132.482 L 285.085 132.547 285.196 135.213 L 285.308 137.878 285.350 135.305 C 285.397 132.458,285.317 132.240,284.223 132.240 C 283.239 132.240,283.317 131.674,284.316 131.569 L 285.085 131.489 284.309 131.454 C 283.771 131.430,283.496 131.518,283.411 131.741 M295.732 131.689 C 295.676 131.836,295.656 133.013,295.689 134.303 L 295.748 136.648 295.849 134.033 C 295.949 131.453,295.935 131.161,295.732 131.689 M296.404 131.565 C 296.564 131.678,296.678 132.514,296.724 133.887 L 296.794 136.033 296.783 133.794 C 296.773 131.985,296.712 131.540,296.463 131.472 C 296.244 131.412,296.227 131.439,296.404 131.565 M299.633 131.676 C 299.573 131.832,299.554 132.923,299.590 134.099 L 299.657 136.238 299.700 133.931 C 299.740 131.810,299.775 131.625,300.137 131.625 C 300.353 131.625,300.577 131.719,300.634 131.835 C 300.691 131.951,300.715 131.927,300.686 131.784 C 300.613 131.417,299.765 131.330,299.633 131.676 M309.529 131.568 C 309.893 131.613,310.539 131.614,310.964 131.569 C 311.390 131.525,311.092 131.488,310.302 131.487 C 309.513 131.486,309.165 131.522,309.529 131.568 M312.416 131.594 C 313.133 131.796,313.015 132.123,312.175 132.259 C 311.101 132.434,311.019 132.638,312.079 132.499 C 313.347 132.334,313.706 131.394,312.484 131.440 C 311.963 131.460,311.960 131.466,312.416 131.594 M320.575 131.744 C 320.334 132.374,320.438 137.680,320.697 137.940 C 320.852 138.095,321.513 138.172,322.491 138.148 L 324.039 138.110 322.399 137.994 L 320.759 137.878 320.701 134.907 C 320.651 132.292,320.687 131.905,320.997 131.678 C 321.303 131.454,321.306 131.420,321.025 131.420 C 320.846 131.420,320.644 131.566,320.575 131.744 M323.885 131.556 C 324.549 131.824,324.114 132.240,323.168 132.243 C 322.632 132.245,322.074 132.322,321.929 132.414 C 321.781 132.508,322.192 132.542,322.851 132.491 C 323.504 132.440,324.120 132.323,324.220 132.231 C 324.464 132.004,324.220 131.416,323.892 131.436 C 323.686 131.449,323.684 131.475,323.885 131.556 M80.113 131.829 C 80.515 132.280,80.444 132.927,80.010 132.762 C 79.737 132.658,79.708 132.683,79.890 132.866 C 80.021 132.998,80.229 133.044,80.351 132.968 C 80.692 132.758,80.617 132.117,80.215 131.814 C 79.910 131.583,79.895 131.585,80.113 131.829 M177.009 133.675 C 177.009 134.746,177.043 135.185,177.086 134.649 C 177.128 134.113,177.128 133.237,177.086 132.701 C 177.043 132.166,177.009 132.604,177.009 133.675 M188.968 132.509 C 189.316 133.273,189.314 133.311,188.851 134.184 C 188.471 134.899,188.424 135.151,188.611 135.452 C 188.826 135.795,188.836 135.790,188.727 135.389 C 188.655 135.125,188.783 134.655,189.046 134.208 C 189.513 133.417,189.481 132.838,188.933 132.137 C 188.676 131.808,188.683 131.881,188.968 132.509 M288.262 132.001 C 288.262 132.142,287.933 132.240,287.454 132.240 C 287.010 132.240,286.603 132.311,286.549 132.397 C 286.416 132.613,288.112 132.448,288.351 132.222 C 288.457 132.123,288.480 131.979,288.403 131.902 C 288.325 131.825,288.262 131.869,288.262 132.001 M101.509 132.673 C 101.383 133.035,101.315 133.367,101.359 133.411 C 101.403 133.455,101.542 133.194,101.669 132.832 C 101.795 132.470,101.862 132.138,101.819 132.094 C 101.775 132.050,101.636 132.310,101.509 132.673 M238.533 134.883 C 238.545 137.926,238.786 138.744,239.468 138.061 C 239.621 137.908,239.547 137.849,239.217 137.861 C 238.756 137.878,238.748 137.837,238.635 134.905 L 238.521 131.932 238.533 134.883 M262.583 132.266 C 262.668 132.349,263.060 132.445,263.455 132.482 L 264.172 132.547 264.229 135.244 C 264.275 137.392,264.348 137.965,264.588 138.057 C 265.023 138.224,265.505 137.990,265.505 137.612 C 265.505 137.342,265.458 137.351,265.228 137.665 C 264.667 138.433,264.480 137.822,264.480 135.226 C 264.480 133.452,264.403 132.639,264.223 132.494 C 263.930 132.259,262.350 132.039,262.583 132.266 M78.177 132.401 C 78.042 132.487,78.290 132.557,78.729 132.557 C 79.168 132.557,79.415 132.487,79.281 132.401 C 79.146 132.316,78.898 132.246,78.729 132.246 C 78.560 132.246,78.311 132.316,78.177 132.401 M89.400 132.535 C 89.266 132.697,89.194 133.089,89.242 133.406 C 89.324 133.953,89.330 133.948,89.359 133.310 C 89.382 132.820,89.516 132.586,89.851 132.451 C 90.164 132.326,90.205 132.262,89.979 132.253 C 89.795 132.246,89.535 132.373,89.400 132.535 M114.034 132.486 C 113.485 133.035,113.763 133.575,114.944 134.253 C 115.580 134.618,116.134 134.883,116.175 134.842 C 116.216 134.800,115.782 134.512,115.210 134.200 C 114.059 133.574,113.809 133.196,114.167 132.623 C 114.442 132.183,114.390 132.130,114.034 132.486 M148.437 132.446 C 148.198 132.614,148.246 132.635,148.650 132.542 C 148.936 132.476,149.443 132.525,149.777 132.651 C 150.168 132.799,150.309 132.805,150.173 132.667 C 149.849 132.339,148.781 132.203,148.437 132.446 M160.400 132.444 C 160.158 132.541,159.903 132.714,159.833 132.827 C 159.763 132.940,159.984 132.893,160.325 132.723 C 160.665 132.554,160.943 132.375,160.943 132.327 C 160.943 132.223,160.953 132.220,160.400 132.444 M161.894 132.634 C 162.248 132.850,162.587 133.149,162.647 133.299 C 162.716 133.473,162.762 133.485,162.772 133.331 C 162.791 133.055,161.823 132.239,161.479 132.241 C 161.354 132.241,161.540 132.418,161.894 132.634 M186.250 132.732 C 185.993 133.756,186.204 134.185,186.981 134.214 L 187.699 134.241 187.032 134.150 C 186.426 134.067,186.366 133.995,186.366 133.348 C 186.366 132.513,186.750 132.281,187.558 132.626 C 188.071 132.845,188.081 132.840,187.711 132.551 C 187.092 132.068,186.395 132.154,186.250 132.732 M252.834 132.486 C 252.254 133.067,252.673 133.734,254.024 134.378 C 254.824 134.760,254.403 134.381,253.424 133.838 C 252.719 133.448,252.613 132.935,253.152 132.525 C 253.350 132.375,253.414 132.250,253.296 132.246 C 253.177 132.243,252.970 132.351,252.834 132.486 M300.631 133.573 C 300.632 134.362,300.669 134.660,300.713 134.234 C 300.758 133.809,300.757 133.163,300.712 132.799 C 300.666 132.435,300.630 132.783,300.631 133.573 M309.277 132.420 L 309.892 132.551 309.949 135.254 C 310.002 137.732,310.040 137.967,310.409 138.084 C 310.917 138.246,311.232 138.057,311.201 137.610 C 311.181 137.309,311.165 137.312,311.081 137.633 C 311.027 137.844,310.838 137.976,310.644 137.938 C 310.351 137.882,310.294 137.511,310.245 135.326 C 310.183 132.599,310.055 132.226,309.201 132.264 C 308.682 132.287,308.685 132.293,309.277 132.420 M102.443 133.149 C 102.370 133.337,102.395 133.440,102.496 133.377 C 102.598 133.314,102.774 133.517,102.888 133.828 C 103.001 134.138,103.098 134.254,103.103 134.085 C 103.120 133.503,102.593 132.757,102.443 133.149 M146.309 133.170 C 146.239 133.354,146.189 133.657,146.199 133.846 C 146.209 134.034,146.298 133.915,146.397 133.583 C 146.591 132.936,146.522 132.615,146.309 133.170 M185.192 133.880 C 185.192 134.387,185.232 134.595,185.281 134.341 C 185.329 134.088,185.329 133.672,185.281 133.419 C 185.232 133.165,185.192 133.373,185.192 133.880 M198.076 133.313 C 198.061 133.544,198.404 133.846,199.057 134.177 C 199.610 134.457,200.256 134.933,200.492 135.234 C 200.729 135.534,200.923 135.685,200.923 135.569 C 200.923 135.257,199.666 134.209,198.924 133.901 C 198.569 133.755,198.239 133.482,198.190 133.296 C 198.110 132.996,198.097 132.997,198.076 133.313 M147.331 133.794 C 147.159 134.242,147.180 135.572,147.363 135.859 C 147.446 135.990,147.514 135.505,147.514 134.783 C 147.514 133.342,147.511 133.325,147.331 133.794 M239.672 133.663 C 239.672 133.782,239.753 133.880,239.852 133.880 C 239.951 133.880,240.148 134.159,240.289 134.500 C 240.430 134.840,240.632 135.173,240.739 135.239 C 240.845 135.304,240.742 134.986,240.510 134.530 C 240.082 133.691,239.672 133.267,239.672 133.663 M112.763 133.833 C 112.763 134.118,113.802 135.112,114.093 135.106 C 114.207 135.103,114.076 134.928,113.801 134.717 C 113.526 134.506,113.180 134.167,113.032 133.965 C 112.884 133.762,112.763 133.703,112.763 133.833 M159.366 134.803 C 159.368 135.479,159.406 135.731,159.452 135.363 C 159.497 134.994,159.496 134.441,159.449 134.133 C 159.403 133.825,159.365 134.126,159.366 134.803 M162.850 134.700 C 162.850 135.320,162.888 135.574,162.935 135.264 C 162.982 134.954,162.982 134.446,162.935 134.136 C 162.888 133.826,162.850 134.080,162.850 134.700 M251.570 133.790 C 251.581 134.116,252.050 134.620,252.588 134.885 L 253.101 135.138 252.601 134.735 C 252.327 134.514,251.981 134.167,251.833 133.965 C 251.684 133.762,251.566 133.683,251.570 133.790 M75.715 134.905 C 75.715 135.525,75.753 135.779,75.800 135.469 C 75.847 135.159,75.847 134.651,75.800 134.341 C 75.753 134.031,75.715 134.285,75.715 134.905 M76.914 134.808 C 76.858 136.714,78.254 137.758,79.772 136.946 C 80.241 136.695,80.601 136.851,80.451 137.242 C 79.953 138.541,76.624 137.989,76.161 136.530 C 76.087 136.296,75.979 136.151,75.922 136.208 C 75.730 136.401,76.525 137.512,77.097 137.850 C 78.147 138.471,80.318 138.125,80.640 137.286 C 80.827 136.797,80.298 136.505,79.663 136.746 C 78.144 137.324,77.257 136.719,77.072 134.978 L 76.944 133.778 76.914 134.808 M91.740 134.398 L 91.321 134.835 91.785 135.741 C 92.315 136.778,92.431 136.659,91.927 135.596 C 91.614 134.938,91.616 134.867,91.960 134.488 C 92.460 133.934,92.262 133.854,91.740 134.398 M209.902 134.116 C 209.981 134.190,210.480 134.283,211.010 134.322 C 211.541 134.362,211.910 134.333,211.831 134.259 C 211.751 134.185,211.252 134.093,210.722 134.053 C 210.192 134.013,209.823 134.042,209.902 134.116 M89.646 134.226 C 89.844 134.278,90.167 134.278,90.364 134.226 C 90.561 134.175,90.400 134.133,90.005 134.133 C 89.610 134.133,89.449 134.175,89.646 134.226 M158.129 134.905 C 158.129 135.413,158.169 135.620,158.217 135.366 C 158.266 135.113,158.266 134.698,158.217 134.444 C 158.169 134.190,158.129 134.398,158.129 134.905 M164.066 134.700 C 164.066 135.095,164.108 135.256,164.160 135.059 C 164.211 134.862,164.211 134.539,164.160 134.341 C 164.108 134.144,164.066 134.305,164.066 134.700 M322.911 134.226 C 323.923 134.393,324.012 134.463,323.703 134.856 C 323.450 135.179,323.458 135.186,323.785 134.929 C 324.290 134.533,323.874 134.077,323.040 134.113 C 322.493 134.137,322.474 134.153,322.911 134.226 M197.847 134.781 C 197.847 134.830,198.265 135.103,198.775 135.388 C 199.285 135.674,199.648 135.819,199.581 135.711 C 199.448 135.495,197.847 134.637,197.847 134.781 M265.363 136.033 C 265.365 136.709,265.403 136.961,265.448 136.593 C 265.494 136.224,265.493 135.671,265.446 135.363 C 265.400 135.055,265.362 135.356,265.363 136.033 M125.468 136.443 C 125.379 137.762,125.335 137.877,124.920 137.863 C 124.672 137.854,124.516 137.924,124.574 138.017 C 125.077 138.830,125.710 137.806,125.632 136.307 L 125.564 135.008 125.468 136.443 M186.270 135.572 C 186.213 135.825,186.142 136.447,186.112 136.954 C 186.049 138.027,185.440 138.410,185.279 137.478 C 185.192 136.972,185.189 136.974,185.213 137.517 C 185.272 138.838,186.255 138.251,186.326 136.853 C 186.402 135.358,186.574 135.144,187.329 135.604 L 187.904 135.955 187.420 135.532 C 186.791 134.984,186.399 134.997,186.270 135.572 M253.567 135.362 C 254.208 135.672,254.402 136.526,253.912 136.885 C 253.705 137.036,253.627 137.160,253.738 137.160 C 254.063 137.160,254.434 136.701,254.434 136.299 C 254.434 135.870,253.732 135.104,253.357 135.124 C 253.216 135.132,253.311 135.239,253.567 135.362 M300.699 135.469 C 300.646 135.666,300.543 136.089,300.472 136.409 C 300.401 136.729,300.092 137.226,299.787 137.514 C 299.315 137.959,299.301 138.001,299.690 137.798 C 300.213 137.525,300.652 136.752,300.837 135.777 C 300.970 135.079,300.867 134.850,300.699 135.469 M255.459 136.226 C 255.459 137.129,254.617 137.846,253.382 137.995 L 252.281 138.128 253.275 138.157 C 254.151 138.182,254.352 138.103,254.967 137.488 C 255.561 136.894,255.955 135.725,255.561 135.725 C 255.505 135.725,255.459 135.951,255.459 136.226 M90.940 136.443 C 91.333 137.662,91.512 137.976,91.888 138.095 C 92.116 138.167,92.388 138.140,92.493 138.035 C 92.611 137.917,92.508 137.850,92.223 137.861 C 91.876 137.874,91.644 137.649,91.285 136.955 C 91.023 136.448,90.868 136.217,90.940 136.443 M127.982 136.750 C 127.982 137.145,128.024 137.307,128.076 137.109 C 128.127 136.912,128.127 136.589,128.076 136.392 C 128.024 136.194,127.982 136.356,127.982 136.750 M162.276 136.545 C 162.072 136.771,161.765 136.955,161.595 136.955 C 161.424 136.955,161.339 137.010,161.406 137.077 C 161.614 137.284,162.265 136.979,162.534 136.548 C 162.863 136.021,162.751 136.020,162.276 136.545 M172.022 136.279 C 171.966 138.000,174.739 138.841,176.210 137.549 C 176.609 137.199,176.929 136.761,176.922 136.575 C 176.912 136.327,176.862 136.353,176.734 136.671 C 176.018 138.442,173.080 138.443,172.309 136.673 C 172.156 136.321,172.027 136.144,172.022 136.279 M187.916 136.443 C 188.306 137.655,188.486 137.975,188.842 138.088 C 189.568 138.318,189.909 137.673,189.438 136.955 C 189.296 136.738,189.276 136.850,189.369 137.335 C 189.567 138.366,188.854 138.122,188.256 136.953 C 187.996 136.447,187.844 136.217,187.916 136.443 M296.873 136.263 C 296.873 136.893,298.677 137.521,298.997 137.003 C 299.050 136.916,298.744 136.879,298.316 136.920 C 297.687 136.980,297.475 136.903,297.206 136.519 C 297.023 136.258,296.873 136.143,296.873 136.263 M103.865 136.750 C 104.169 138.005,105.156 138.665,105.475 137.827 C 105.584 137.539,105.560 137.519,105.353 137.724 C 104.898 138.176,104.555 138.002,104.143 137.109 C 103.922 136.630,103.797 136.468,103.865 136.750 M147.920 136.716 C 148.336 137.206,149.215 137.254,150.436 136.854 C 150.776 136.742,150.897 136.783,150.897 137.009 C 150.897 137.178,150.689 137.460,150.436 137.637 C 150.182 137.814,150.075 137.964,150.199 137.970 C 150.585 137.988,151.160 137.197,151.022 136.837 C 150.928 136.592,150.766 136.540,150.433 136.648 C 149.311 137.013,148.418 137.002,147.965 136.619 L 147.514 136.238 147.920 136.716 M163.625 136.529 C 163.616 136.689,163.450 137.012,163.257 137.247 C 162.926 137.649,162.933 137.648,163.384 137.233 C 163.647 136.991,163.812 136.668,163.751 136.515 C 163.662 136.291,163.638 136.293,163.625 136.529 M99.888 137.127 C 99.669 137.758,99.871 138.186,100.388 138.186 C 100.704 138.186,101.284 137.384,101.273 136.961 C 101.269 136.789,101.135 136.948,100.976 137.314 C 100.546 138.303,99.692 138.208,100.070 137.213 C 100.179 136.927,100.230 136.655,100.183 136.609 C 100.137 136.562,100.004 136.796,99.888 137.127 M146.393 136.676 C 146.402 136.927,146.980 137.661,147.084 137.556 C 147.132 137.507,146.995 137.250,146.779 136.984 C 146.563 136.718,146.389 136.579,146.393 136.676 M158.483 136.750 C 158.483 137.801,161.520 138.646,162.493 137.867 C 162.877 137.559,162.876 137.555,162.443 137.764 C 161.427 138.255,159.931 138.035,159.180 137.283 C 158.797 136.900,158.483 136.660,158.483 136.750 M159.954 136.875 C 160.133 137.053,160.438 137.168,160.632 137.129 C 160.875 137.080,160.774 136.979,160.307 136.804 C 159.688 136.571,159.657 136.578,159.954 136.875 M199.341 136.774 C 199.216 136.899,198.744 136.967,198.292 136.924 C 197.841 136.881,197.516 136.916,197.569 137.003 C 197.744 137.287,199.223 137.171,199.487 136.853 C 199.784 136.496,199.677 136.438,199.341 136.774 M241.818 137.147 C 241.989 137.479,242.222 137.807,242.336 137.877 C 242.450 137.948,242.349 137.677,242.112 137.275 C 241.593 136.395,241.381 136.303,241.818 137.147 M251.422 136.881 C 251.271 137.272,251.568 137.821,251.988 137.929 C 252.158 137.973,252.130 137.909,251.922 137.777 C 251.725 137.652,251.563 137.360,251.563 137.128 C 251.563 136.807,251.649 136.742,251.922 136.854 C 252.667 137.161,253.071 137.169,252.411 136.864 C 251.562 136.472,251.579 136.471,251.422 136.881 M112.456 136.954 C 112.159 137.435,113.329 138.186,114.378 138.186 C 115.357 138.186,116.658 137.482,116.658 136.953 C 116.658 136.859,116.388 137.052,116.059 137.381 C 115.281 138.159,113.643 138.246,112.944 137.546 C 112.593 137.196,112.563 137.078,112.790 136.934 C 112.976 136.817,112.988 136.756,112.826 136.754 C 112.692 136.752,112.525 136.842,112.456 136.954 M296.047 137.104 C 296.168 137.356,296.473 137.661,296.724 137.782 C 297.149 137.988,297.155 137.982,296.806 137.701 C 296.599 137.535,296.294 137.230,296.128 137.023 C 295.847 136.674,295.841 136.680,296.047 137.104 M321.681 137.007 C 321.681 137.091,322.228 137.160,322.897 137.160 C 323.886 137.160,324.129 137.227,324.199 137.519 C 324.264 137.792,324.279 137.780,324.264 137.468 C 324.244 137.057,321.681 136.600,321.681 137.007 M210.847 137.144 C 211.803 137.238,212.091 137.349,212.216 137.673 C 212.370 138.070,212.376 138.069,212.389 137.644 C 212.408 137.091,212.033 136.946,210.696 136.990 L 209.636 137.024 210.847 137.144 M147.412 137.759 C 147.412 138.020,148.606 138.245,149.378 138.130 C 149.829 138.064,149.759 138.034,149.090 138.011 C 148.603 137.994,148.026 137.885,147.808 137.768 C 147.553 137.632,147.412 137.628,147.412 137.759 M199.817 137.720 C 199.734 137.802,199.189 137.934,198.604 138.013 L 197.540 138.157 198.718 138.103 C 199.832 138.052,200.299 137.904,200.068 137.673 C 200.012 137.617,199.899 137.638,199.817 137.720 M297.748 138.128 C 298.059 138.175,298.521 138.174,298.773 138.125 C 299.025 138.076,298.770 138.038,298.206 138.039 C 297.642 138.041,297.436 138.081,297.748 138.128 M64.881 142.094 C 64.807 142.215,64.802 142.369,64.869 142.436 C 64.937 142.504,64.992 142.452,64.992 142.320 C 64.992 142.138,97.838 142.081,202.371 142.081 L 339.749 142.081 339.685 142.747 L 339.621 143.414 203.485 143.516 L 67.350 143.619 203.409 143.670 C 321.603 143.714,339.500 143.682,339.713 143.426 C 339.848 143.264,339.928 142.872,339.892 142.555 L 339.826 141.978 202.421 141.927 C 105.213 141.891,64.977 141.940,64.881 142.094 " stroke="none" fill="#97c4ae" fill-rule="evenodd"></path><path id="path4" d="M269.876 90.415 C 269.876 91.148,269.913 91.448,269.959 91.081 C 270.004 90.715,270.004 90.115,269.959 89.749 C 269.913 89.382,269.876 89.682,269.876 90.415 M246.694 101.435 C 248.808 101.468,252.268 101.468,254.382 101.435 C 256.497 101.402,254.767 101.374,250.538 101.374 C 246.310 101.374,244.580 101.402,246.694 101.435 M64.899 126.060 C 64.832 126.270,64.836 126.593,64.907 126.778 C 65.027 127.090,75.187 127.111,202.329 127.063 L 339.621 127.012 339.685 126.345 L 339.749 125.679 202.385 125.679 C 68.670 125.679,65.017 125.689,64.899 126.060 M339.416 126.397 C 339.416 126.851,65.583 127.172,65.129 126.718 C 65.024 126.613,64.993 126.382,65.061 126.205 C 65.280 125.634,339.416 125.825,339.416 126.397 M77.503 131.769 C 75.461 132.823,75.204 136.229,77.066 137.554 C 78.018 138.232,80.147 138.035,80.451 137.242 C 80.601 136.851,80.241 136.695,79.772 136.946 C 79.312 137.192,78.116 137.227,77.794 137.004 C 76.525 136.122,76.642 133.127,77.971 132.485 C 78.283 132.335,78.322 132.263,78.098 132.254 C 77.081 132.210,76.292 134.716,76.861 136.186 C 77.123 136.866,78.263 137.621,78.831 137.492 C 79.057 137.441,79.472 137.338,79.754 137.264 C 80.248 137.135,80.252 137.142,79.869 137.453 C 77.833 139.104,75.292 136.164,76.353 133.386 C 76.929 131.879,78.977 131.143,79.900 132.112 C 80.255 132.484,80.247 132.492,79.651 132.366 L 79.036 132.237 79.549 132.538 C 80.230 132.940,80.369 132.928,80.369 132.470 C 80.369 131.580,78.672 131.165,77.503 131.769 M113.388 131.993 C 112.410 132.971,113.160 135.110,114.481 135.110 C 114.836 135.110,115.633 135.886,115.633 136.231 C 115.633 136.994,114.284 137.441,113.404 136.970 C 112.775 136.633,112.444 137.047,112.944 137.546 C 113.643 138.246,115.281 138.159,116.059 137.381 C 117.121 136.319,116.763 135.272,114.997 134.278 C 113.411 133.386,113.329 132.458,114.813 132.185 L 115.325 132.091 114.800 132.063 C 114.312 132.037,113.378 132.671,113.378 133.029 C 113.378 133.396,114.000 133.982,115.037 134.589 C 116.370 135.370,116.663 136.385,115.816 137.286 C 115.327 137.807,113.806 137.975,113.179 137.578 C 112.683 137.265,113.058 137.142,113.761 137.387 C 116.025 138.176,116.539 136.039,114.389 134.776 C 112.308 133.555,112.935 131.225,115.209 131.724 C 115.814 131.857,116.098 132.240,115.592 132.240 C 115.401 132.240,115.401 132.295,115.592 132.486 C 115.783 132.677,115.893 132.677,116.086 132.484 C 116.462 132.108,115.855 131.616,114.851 131.481 C 114.114 131.382,113.937 131.444,113.388 131.993 M148.027 131.650 C 146.415 132.293,145.664 135.017,146.611 136.787 C 147.181 137.852,149.333 138.343,150.392 137.649 C 151.052 137.217,151.084 136.639,150.436 136.859 C 148.577 137.488,147.207 136.649,147.207 134.882 C 147.207 133.914,147.765 132.696,148.284 132.531 C 148.498 132.463,148.627 132.362,148.572 132.307 C 148.079 131.814,147.002 133.526,147.002 134.803 C 147.002 136.794,148.243 137.795,150.078 137.282 C 150.569 137.145,150.574 137.152,150.191 137.457 C 149.004 138.407,146.955 137.453,146.579 135.777 C 146.021 133.282,147.641 131.199,149.669 131.806 C 150.588 132.082,150.803 132.522,149.923 132.329 L 149.359 132.204 149.958 132.536 C 150.604 132.893,150.991 132.724,150.781 132.176 C 150.552 131.579,148.964 131.276,148.027 131.650 M160.003 131.711 C 159.287 132.023,158.479 132.951,158.491 133.446 C 158.496 133.632,158.657 133.484,158.855 133.112 C 160.514 130.003,164.555 132.164,163.646 135.674 C 162.769 139.061,158.573 138.323,158.448 134.760 C 158.414 133.790,158.413 133.788,158.330 134.598 C 157.952 138.273,162.843 139.519,163.788 135.989 C 164.615 132.897,162.575 130.591,160.003 131.711 M176.140 131.682 C 175.999 131.823,175.910 132.751,175.910 134.080 C 175.910 136.645,175.685 137.160,174.566 137.160 C 173.300 137.160,173.040 136.663,173.036 134.239 C 173.033 132.030,172.884 131.483,172.343 131.691 C 172.066 131.797,172.021 132.163,172.058 134.027 L 172.101 136.238 172.167 134.019 C 172.256 131.058,172.716 131.017,172.765 133.966 C 172.809 136.585,172.902 136.896,173.762 137.307 C 175.465 138.119,176.317 136.887,176.319 133.612 C 176.319 132.460,176.394 131.852,176.525 131.932 C 176.750 132.072,176.799 134.765,176.598 135.980 C 176.252 138.074,173.487 138.520,172.457 136.648 C 172.333 136.422,172.229 136.360,172.226 136.510 C 172.194 137.876,174.931 138.483,176.163 137.383 L 176.832 136.785 176.900 134.233 C 176.969 131.626,176.791 131.030,176.140 131.682 M186.059 131.592 C 185.721 131.630,185.397 131.738,185.340 131.832 C 185.194 132.067,185.257 137.760,185.407 137.910 C 185.798 138.301,186.161 137.724,186.164 136.706 C 186.170 134.600,187.159 134.594,188.166 136.694 C 188.479 137.347,188.890 137.904,189.086 137.942 C 189.590 138.039,189.536 137.476,188.915 136.141 L 188.392 135.018 188.834 134.233 C 189.792 132.528,188.515 131.312,186.059 131.592 M197.950 131.656 C 196.441 132.563,196.735 134.083,198.615 135.097 C 199.639 135.649,199.953 136.292,199.478 136.864 C 199.200 137.200,197.733 137.269,197.540 136.955 C 197.352 136.651,197.031 136.707,196.893 137.068 C 196.589 137.859,198.690 138.297,199.868 137.688 C 201.494 136.847,201.113 135.219,199.045 134.171 C 197.473 133.374,197.903 131.784,199.525 132.396 C 200.020 132.583,200.242 132.587,200.401 132.413 C 200.552 132.248,200.544 132.219,200.374 132.315 C 200.242 132.389,199.902 132.345,199.620 132.216 C 197.728 131.354,197.001 133.444,198.865 134.389 C 200.190 135.060,200.513 135.422,200.513 136.238 C 200.513 137.471,198.702 138.248,197.424 137.563 C 196.721 137.187,197.002 136.966,197.774 137.288 C 199.891 138.173,200.903 136.111,198.910 134.974 C 197.485 134.161,197.232 133.888,197.232 133.162 C 197.232 131.996,198.455 131.420,199.897 131.908 C 200.291 132.041,200.356 132.024,200.179 131.837 C 199.843 131.483,198.429 131.368,197.950 131.656 M209.636 131.604 L 208.816 131.727 208.816 134.803 L 208.816 137.878 210.524 137.938 C 212.073 137.992,212.226 137.963,212.162 137.630 C 212.106 137.337,211.855 137.251,210.915 137.201 L 209.739 137.140 209.739 136.125 L 209.739 135.110 210.636 135.110 C 211.480 135.110,212.159 134.729,211.855 134.425 C 211.781 134.351,211.326 134.290,210.844 134.290 C 210.362 134.290,209.899 134.178,209.814 134.042 C 209.586 133.673,209.720 132.379,210.004 132.198 C 210.146 132.108,210.160 132.040,210.036 132.038 C 209.619 132.032,209.329 132.535,209.329 133.265 C 209.329 134.230,209.622 134.489,210.753 134.523 L 211.686 134.550 210.764 134.682 C 209.488 134.864,209.328 135.010,209.332 135.994 C 209.336 137.255,209.536 137.455,210.728 137.391 C 211.314 137.360,211.807 137.434,211.888 137.566 C 211.988 137.728,211.592 137.777,210.525 137.734 L 209.021 137.673 209.021 134.806 L 209.021 131.939 209.758 131.820 C 210.693 131.667,212.026 131.817,211.878 132.057 C 211.815 132.158,211.862 132.240,211.982 132.240 C 212.101 132.240,212.199 132.101,212.199 131.932 C 212.199 131.729,211.996 131.625,211.601 131.625 C 211.272 131.625,210.879 131.592,210.729 131.552 C 210.579 131.512,210.087 131.536,209.636 131.604 M229.665 131.601 C 229.171 131.906,229.427 137.878,229.933 137.878 C 230.322 137.878,230.346 137.722,230.400 134.883 C 230.458 131.834,230.315 131.199,229.665 131.601 M252.684 131.615 C 251.015 132.291,251.347 134.168,253.297 135.085 C 255.476 136.108,254.133 137.848,251.922 136.866 C 251.645 136.743,251.563 136.803,251.563 137.131 C 251.563 138.166,253.898 138.343,254.859 137.381 C 255.948 136.292,255.635 135.261,253.930 134.326 C 252.701 133.652,252.392 133.217,252.741 132.658 C 252.951 132.321,252.943 132.274,252.688 132.372 C 251.800 132.713,253.056 134.700,254.159 134.700 C 254.508 134.700,255.254 135.707,255.254 136.179 C 255.254 137.305,253.042 138.250,251.979 137.578 C 251.485 137.266,251.850 137.149,252.525 137.404 C 254.291 138.071,255.531 135.819,253.794 135.100 C 252.082 134.391,251.430 133.000,252.400 132.123 C 252.901 131.669,254.291 131.600,254.684 132.009 C 254.901 132.235,254.788 132.260,254.024 132.154 L 253.101 132.025 253.908 132.326 C 254.752 132.642,255.049 132.598,255.049 132.158 C 255.049 131.592,253.576 131.253,252.684 131.615 M263.084 131.614 C 262.576 131.736,262.445 132.074,262.853 132.210 C 262.996 132.258,263.041 132.194,262.959 132.061 C 262.856 131.896,263.344 131.830,264.673 131.830 C 266.679 131.830,266.864 131.852,266.786 132.086 C 266.712 132.308,267.099 132.276,267.239 132.049 C 267.515 131.603,264.466 131.284,263.084 131.614 M275.180 131.601 C 274.686 131.906,274.942 137.878,275.448 137.878 C 275.837 137.878,275.861 137.722,275.915 134.883 C 275.973 131.834,275.830 131.199,275.180 131.601 M284.316 131.586 C 283.629 131.643,283.125 132.240,283.764 132.240 C 283.883 132.240,283.924 132.148,283.854 132.035 C 283.773 131.903,284.506 131.830,285.905 131.830 C 287.304 131.830,288.036 131.903,287.955 132.035 C 287.885 132.148,287.926 132.240,288.045 132.240 C 288.354 132.240,288.316 131.628,288.006 131.609 C 286.973 131.546,284.953 131.533,284.316 131.586 M295.971 131.571 C 295.903 131.638,295.848 132.824,295.848 134.206 L 295.848 136.719 296.479 137.350 C 297.603 138.473,299.641 138.167,300.361 136.767 C 300.562 136.375,300.689 133.418,300.575 131.779 C 300.569 131.694,300.379 131.625,300.154 131.625 C 299.769 131.625,299.744 131.761,299.744 133.852 C 299.744 136.472,299.427 137.160,298.223 137.160 C 297.031 137.160,296.781 136.636,296.702 133.977 C 296.638 131.782,296.433 131.109,295.971 131.571 M308.377 131.700 C 308.199 131.915,308.226 132.047,308.493 132.264 C 308.796 132.511,308.825 132.504,308.717 132.214 C 308.648 132.030,308.695 131.776,308.822 131.650 C 308.981 131.491,308.983 131.420,308.831 131.420 C 308.709 131.420,308.505 131.546,308.377 131.700 M310.405 131.630 L 309.072 131.759 310.866 131.794 C 311.970 131.816,312.660 131.913,312.660 132.047 C 312.660 132.166,312.760 132.202,312.883 132.126 C 313.535 131.723,312.203 131.456,310.405 131.630 M320.943 131.717 C 320.700 131.894,320.655 132.494,320.701 134.907 L 320.759 137.878 322.450 137.938 C 324.035 137.993,324.141 137.971,324.141 137.579 C 324.141 137.204,324.013 137.160,322.911 137.160 L 321.681 137.160 321.681 136.135 L 321.681 135.110 322.579 135.110 C 323.123 135.110,323.576 134.990,323.729 134.805 C 324.026 134.448,323.885 134.373,322.604 134.207 C 322.153 134.148,321.761 134.097,321.732 134.093 C 321.540 134.064,321.732 132.459,321.937 132.376 C 322.099 132.310,322.069 132.266,321.856 132.256 C 321.609 132.244,321.498 132.459,321.441 133.064 C 321.329 134.238,321.539 134.490,322.665 134.527 L 323.629 134.560 322.604 134.681 L 321.579 134.803 321.473 135.725 C 321.297 137.253,321.375 137.365,322.616 137.365 C 323.216 137.365,323.764 137.458,323.834 137.570 C 323.914 137.700,323.392 137.775,322.411 137.775 L 320.861 137.775 320.861 134.899 C 320.861 131.617,320.786 131.745,322.700 131.761 C 323.440 131.767,323.816 131.852,323.783 132.005 C 323.754 132.134,323.824 132.240,323.936 132.240 C 324.172 132.240,324.221 131.632,323.988 131.611 C 322.694 131.493,321.177 131.546,320.943 131.717 M88.365 134.803 C 88.365 137.844,88.383 137.981,88.775 137.981 C 89.135 137.981,89.185 137.844,89.185 136.870 C 89.185 134.432,90.125 134.425,91.270 136.853 C 91.612 137.576,91.874 137.878,92.161 137.878 C 92.676 137.878,92.613 137.446,91.877 135.930 L 91.329 134.803 91.795 134.349 C 92.758 133.410,92.013 131.600,90.681 131.643 L 90.108 131.662 90.765 131.852 C 92.051 132.224,92.375 133.264,91.521 134.278 C 91.141 134.730,91.047 134.986,91.195 135.166 C 91.733 135.819,92.442 137.775,92.140 137.775 C 91.974 137.775,91.786 137.614,91.723 137.417 C 90.811 134.547,88.980 133.893,88.980 136.436 C 88.980 137.192,88.891 137.775,88.775 137.775 C 88.648 137.775,88.570 136.652,88.570 134.816 L 88.570 131.856 89.236 131.773 C 89.892 131.692,89.891 131.690,89.134 131.658 L 88.365 131.625 88.365 134.803 M101.965 131.970 C 101.892 132.175,101.653 132.804,101.434 133.368 C 100.619 135.468,99.892 137.753,100.004 137.865 C 100.321 138.182,100.732 137.898,101.021 137.160 L 101.344 136.340 102.614 136.340 L 103.884 136.340 104.213 137.177 C 104.565 138.072,105.312 138.278,105.247 137.462 C 105.042 134.865,102.471 130.562,101.965 131.970 M124.545 131.876 C 124.201 132.771,124.556 137.878,124.962 137.878 C 125.325 137.878,125.378 137.721,125.432 136.494 L 125.493 135.110 126.807 135.110 L 128.121 135.110 128.181 136.494 C 128.235 137.721,128.288 137.878,128.652 137.878 C 129.042 137.878,129.065 137.722,129.119 134.736 L 129.175 131.595 128.709 131.661 C 128.293 131.720,128.235 131.858,128.180 132.906 L 128.119 134.085 127.002 134.085 C 126.387 134.085,125.815 134.087,125.730 134.089 C 125.646 134.091,125.530 133.561,125.474 132.912 C 125.373 131.742,124.829 131.136,124.545 131.876 M238.737 131.891 C 238.397 132.776,238.758 137.878,239.159 137.878 C 239.538 137.878,239.577 137.707,239.672 135.623 L 239.774 133.368 240.185 134.047 C 240.410 134.421,241.015 135.436,241.529 136.302 C 242.288 137.581,242.558 137.878,242.964 137.878 L 243.465 137.878 243.465 134.805 C 243.465 132.042,243.429 131.726,243.106 131.664 C 242.782 131.601,242.747 131.814,242.747 133.877 C 242.747 136.506,242.691 136.526,241.496 134.336 C 240.050 131.689,239.128 130.872,238.737 131.891 M103.704 133.727 C 104.078 134.770,104.562 136.055,104.780 136.583 C 105.397 138.077,105.074 138.361,104.357 136.955 L 103.938 136.135 102.635 136.135 C 101.246 136.135,101.019 136.268,100.793 137.212 C 100.719 137.522,100.522 137.775,100.356 137.775 C 100.104 137.775,100.124 137.595,100.475 136.699 C 100.707 136.107,101.133 134.931,101.421 134.085 C 102.442 131.094,102.742 131.047,103.704 133.727 M125.309 133.265 L 125.372 134.393 126.671 134.454 C 128.321 134.532,128.549 134.347,128.549 132.932 C 128.549 132.326,128.642 131.830,128.754 131.830 C 128.882 131.830,128.960 132.957,128.960 134.803 C 128.960 137.830,128.622 139.015,128.508 136.392 L 128.447 135.008 127.591 134.828 C 127.121 134.729,126.406 134.710,126.003 134.786 L 125.269 134.924 125.269 136.350 C 125.269 137.480,125.205 137.775,124.962 137.775 C 124.637 137.775,124.479 132.279,124.794 131.963 C 125.065 131.692,125.246 132.149,125.309 133.265 M188.197 132.027 C 188.981 132.447,189.138 133.394,188.551 134.164 L 188.021 134.859 188.499 135.856 C 189.112 137.135,189.309 137.775,189.089 137.775 C 188.993 137.775,188.641 137.199,188.307 136.494 C 187.254 134.275,185.956 134.243,185.956 136.436 C 185.956 137.192,185.867 137.775,185.751 137.775 C 185.624 137.775,185.546 136.648,185.546 134.803 L 185.546 131.830 186.687 131.830 C 187.315 131.830,187.994 131.919,188.197 132.027 M230.076 134.987 C 230.041 136.559,229.929 137.775,229.820 137.775 C 229.599 137.775,229.547 132.182,229.766 131.963 C 230.069 131.660,230.136 132.311,230.076 134.987 M240.000 132.189 C 240.212 132.532,241.203 134.322,241.901 135.623 C 242.773 137.249,242.945 136.988,242.949 134.034 C 242.951 132.703,243.034 131.830,243.157 131.830 C 243.532 131.830,243.422 137.560,243.045 137.705 C 242.657 137.854,242.447 137.578,241.181 135.241 C 239.467 132.080,239.270 132.114,239.265 135.572 C 239.263 136.902,239.181 137.775,239.057 137.775 C 238.828 137.775,238.762 132.193,238.989 131.967 C 239.244 131.711,239.777 131.828,240.000 132.189 M275.551 134.803 C 275.551 136.648,275.473 137.775,275.346 137.775 C 275.219 137.775,275.141 136.648,275.141 134.803 C 275.141 132.957,275.219 131.830,275.346 131.830 C 275.473 131.830,275.551 132.957,275.551 134.803 M296.463 134.101 C 296.463 136.338,296.472 136.381,297.063 136.971 C 298.640 138.548,299.949 137.299,299.949 134.215 C 299.949 132.999,300.038 132.004,300.154 131.932 C 300.748 131.565,300.380 136.480,299.764 137.139 C 298.924 138.037,297.531 138.054,296.653 137.176 C 296.028 136.551,295.679 131.830,296.258 131.830 C 296.383 131.830,296.463 132.724,296.463 134.101 M89.339 132.176 C 88.238 132.464,89.088 134.844,90.204 134.599 C 91.688 134.273,91.903 132.230,90.452 132.243 C 90.216 132.245,90.270 132.328,90.620 132.504 C 91.685 133.041,91.243 134.290,89.988 134.290 C 89.090 134.290,88.843 132.913,89.641 132.354 C 90.094 132.037,90.026 131.997,89.339 132.176 M160.305 132.264 C 159.022 132.735,158.630 135.700,159.700 136.839 C 160.624 137.823,162.082 137.648,162.860 136.461 C 163.670 135.225,163.037 132.240,161.967 132.240 C 161.842 132.240,161.982 132.448,162.277 132.701 C 163.829 134.037,162.959 137.160,161.035 137.160 C 158.746 137.160,158.605 132.887,160.874 132.286 C 161.307 132.171,161.476 132.075,161.251 132.072 C 161.025 132.069,160.600 132.156,160.305 132.264 M186.212 132.171 C 185.164 132.593,186.151 134.918,187.237 134.587 C 188.553 134.186,188.838 132.240,187.581 132.240 C 187.477 132.240,187.576 132.424,187.801 132.650 C 188.573 133.422,188.047 134.361,186.904 134.250 C 186.135 134.175,185.861 132.980,186.472 132.368 C 186.801 132.039,186.710 131.970,186.212 132.171 M265.454 132.176 C 265.134 132.260,265.095 132.573,265.095 135.023 C 265.095 136.721,265.016 137.775,264.890 137.775 C 264.763 137.775,264.685 136.716,264.685 135.008 C 264.685 132.539,264.647 132.240,264.336 132.240 C 264.065 132.240,264.042 132.295,264.234 132.486 C 264.398 132.650,264.480 133.563,264.480 135.242 C 264.480 136.828,264.562 137.802,264.703 137.889 C 265.197 138.195,265.352 137.531,265.335 135.182 C 265.321 133.230,265.381 132.695,265.648 132.400 C 265.830 132.199,265.941 132.046,265.895 132.059 C 265.850 132.072,265.651 132.125,265.454 132.176 M286.475 132.200 C 286.305 132.308,286.207 133.202,286.167 134.999 C 286.083 138.874,285.597 138.896,285.597 135.025 C 285.597 132.540,285.560 132.240,285.249 132.240 C 284.978 132.240,284.955 132.295,285.146 132.486 C 285.312 132.652,285.392 133.592,285.392 135.370 C 285.392 137.989,285.396 138.009,285.853 137.944 C 286.301 137.880,286.316 137.800,286.372 135.226 C 286.406 133.699,286.525 132.460,286.654 132.304 C 286.906 132.001,286.844 131.965,286.475 132.200 M311.276 132.180 C 310.825 132.266,310.815 132.329,310.815 135.022 C 310.815 136.721,310.736 137.775,310.610 137.775 C 310.483 137.775,310.405 136.716,310.405 135.008 C 310.405 132.539,310.367 132.240,310.056 132.240 C 309.785 132.240,309.763 132.295,309.954 132.486 C 310.119 132.651,310.200 133.567,310.200 135.260 C 310.200 137.350,310.255 137.809,310.516 137.910 C 311.051 138.115,311.120 137.831,311.191 135.155 C 311.248 133.036,311.322 132.520,311.601 132.307 C 311.789 132.165,311.896 132.058,311.840 132.069 C 311.784 132.081,311.530 132.131,311.276 132.180 M102.449 132.585 C 102.192 133.001,101.487 135.039,101.487 135.366 C 101.486 135.828,103.482 135.901,103.657 135.445 C 103.872 134.884,102.718 132.150,102.449 132.585 M103.215 134.380 C 103.540 135.460,103.501 135.520,102.477 135.520 C 101.559 135.520,101.555 135.503,102.136 133.985 C 102.625 132.708,102.723 132.743,103.215 134.380 M202.218 142.235 L 339.547 142.286 339.481 142.698 C 339.384 143.305,65.199 143.358,64.959 142.750 C 64.853 142.482,64.813 142.468,64.805 142.696 C 64.799 142.865,64.867 143.119,64.956 143.260 C 65.086 143.465,92.704 143.506,202.370 143.465 L 339.621 143.414 339.685 142.747 L 339.749 142.081 202.319 142.132 L 64.890 142.183 202.218 142.235 " stroke="none" fill="#7c7c7c" fill-rule="evenodd"></path></g></svg>