<?xml version="1.0" encoding="utf-8"?>
<!-- Generator: Adobe Illustrator 16.0.0, SVG Export Plug-In . SVG Version: 6.00 Build 0)  -->
<!DOCTYPE svg PUBLIC "-//W3C//DTD SVG 1.1//EN" "http://www.w3.org/Graphics/SVG/1.1/DTD/svg11.dtd">
<svg version="1.1" id="Layer_1" xmlns="http://www.w3.org/2000/svg" xmlns:xlink="http://www.w3.org/1999/xlink" x="0px" y="0px"
	 width="340.158px" height="118.5px" viewBox="0 0 340.158 118.5" enable-background="new 0 0 340.158 118.5" xml:space="preserve">
<g>
	<polygon fill="#2E3192" points="46.835,42.125 57.897,24.475 78.311,24.475 57.395,57.609 	"/>
	<polygon fill="#2E3192" points="46.453,82.84 57.014,66.647 81.127,101.32 57.897,101.32 	"/>
	<g>
		<g>
			<path fill="#2E3192" d="M79.56,65.885c0-3.82,0.659-7.433,1.98-10.837c1.318-3.403,3.23-6.39,5.731-8.962
				c2.501-2.569,5.523-4.619,9.066-6.148c3.543-1.527,7.537-2.293,11.984-2.293c5.973,0,11.062,1.287,15.266,3.856
				c4.203,2.571,7.347,5.939,9.431,10.107l-13.65,4.169c-1.183-2.014-2.746-3.559-4.689-4.638c-1.946-1.076-4.1-1.614-6.461-1.614
				c-2.016,0-3.892,0.4-5.627,1.198c-1.737,0.8-3.248,1.913-4.533,3.334c-1.286,1.425-2.292,3.144-3.022,5.158
				c-0.73,2.017-1.094,4.238-1.094,6.669c0,2.433,0.381,4.655,1.146,6.67c0.764,2.016,1.788,3.751,3.074,5.21
				c1.285,1.459,2.795,2.589,4.533,3.387c1.736,0.799,3.577,1.198,5.523,1.198c2.5,0,4.81-0.625,6.93-1.876
				c2.119-1.25,3.595-2.777,4.428-4.585l13.651,4.169c-1.875,4.168-4.968,7.572-9.274,10.212c-4.308,2.641-9.482,3.96-15.526,3.96
				c-4.447,0-8.441-0.765-11.984-2.293c-3.543-1.527-6.565-3.595-9.066-6.2s-4.429-5.627-5.784-9.065
				C80.237,73.231,79.56,69.636,79.56,65.885z"/>
			<path fill="#2E3192" d="M167.092,94.229c-4.377,0-8.336-0.747-11.88-2.24c-3.542-1.493-6.565-3.525-9.066-6.097
				c-2.501-2.568-4.428-5.557-5.783-8.961c-1.354-3.403-2.032-6.982-2.032-10.733c0-3.89,0.659-7.556,1.979-10.994
				c1.319-3.438,3.23-6.461,5.731-9.066c2.501-2.605,5.539-4.671,9.118-6.2c3.578-1.527,7.589-2.293,12.036-2.293
				c4.445,0,8.424,0.766,11.933,2.293c3.507,1.529,6.495,3.579,8.962,6.148c2.464,2.572,4.341,5.559,5.626,8.962
				c1.285,3.404,1.928,6.947,1.928,10.629c0,0.903-0.018,1.771-0.052,2.604c-0.036,0.834-0.121,1.529-0.26,2.085h-42.204
				c0.208,2.153,0.729,4.063,1.563,5.731c0.834,1.667,1.91,3.092,3.231,4.271c1.318,1.184,2.813,2.085,4.48,2.71
				c1.667,0.626,3.402,0.938,5.21,0.938c2.778,0,5.401-0.677,7.868-2.031c2.465-1.354,4.15-3.143,5.054-5.367l11.983,3.335
				c-2.016,4.169-5.229,7.591-9.639,10.264C178.467,92.892,173.205,94.229,167.092,94.229z M181.265,61.3
				c-0.35-4.099-1.86-7.38-4.534-9.847c-2.675-2.465-5.923-3.699-9.743-3.699c-1.875,0-3.631,0.33-5.263,0.989
				c-1.633,0.662-3.074,1.581-4.325,2.762c-1.25,1.183-2.275,2.605-3.073,4.272c-0.8,1.667-1.269,3.509-1.407,5.522H181.265z"/>
			<path fill="#2E3192" d="M204.084,17.117h13.964v57.938c0,4.238,1.91,6.357,5.731,6.357c0.764,0,1.649-0.139,2.657-0.417
				c1.006-0.276,1.962-0.59,2.865-0.938l1.876,11.149c-1.876,0.904-4.064,1.6-6.564,2.084c-2.502,0.485-4.76,0.73-6.773,0.73
				c-4.377,0-7.765-1.163-10.16-3.491c-2.396-2.327-3.596-5.644-3.596-9.952V17.117z"/>
			<path fill="#2E3192" d="M262.648,94.229c-4.377,0-8.337-0.747-11.881-2.24c-3.542-1.493-6.564-3.525-9.065-6.097
				c-2.5-2.568-4.428-5.557-5.782-8.961c-1.355-3.403-2.033-6.982-2.033-10.733c0-3.89,0.66-7.556,1.979-10.994
				c1.32-3.438,3.231-6.461,5.732-9.066c2.501-2.605,5.539-4.671,9.117-6.2c3.578-1.527,7.59-2.293,12.036-2.293
				c4.445,0,8.423,0.766,11.933,2.293c3.507,1.529,6.495,3.579,8.961,6.148c2.465,2.572,4.341,5.559,5.627,8.962
				c1.284,3.404,1.928,6.947,1.928,10.629c0,0.903-0.018,1.771-0.052,2.604c-0.036,0.834-0.122,1.529-0.261,2.085h-42.203
				c0.208,2.153,0.729,4.063,1.563,5.731c0.834,1.667,1.91,3.092,3.231,4.271c1.318,1.184,2.813,2.085,4.479,2.71
				c1.668,0.626,3.403,0.938,5.211,0.938c2.777,0,5.401-0.677,7.867-2.031s4.15-3.143,5.055-5.367l11.983,3.335
				c-2.016,4.169-5.229,7.591-9.639,10.264C274.022,92.892,268.76,94.229,262.648,94.229z M276.82,61.3
				c-0.349-4.099-1.86-7.38-4.533-9.847c-2.675-2.465-5.924-3.699-9.743-3.699c-1.875,0-3.631,0.33-5.263,0.989
				c-1.633,0.662-3.074,1.581-4.325,2.762c-1.249,1.183-2.275,2.605-3.073,4.272c-0.8,1.667-1.269,3.509-1.407,5.522H276.82z"/>
			<path fill="#2E3192" d="M332.255,50.671c-4.238,0.07-8.024,0.885-11.358,2.449c-3.334,1.563-5.731,3.907-7.19,7.033v33.034
				h-13.963V38.583h12.816v11.671c1.877-3.751,4.325-6.773,7.348-9.065c3.021-2.293,6.199-3.439,9.534-3.439
				c0.764,0,1.337,0.018,1.72,0.052c0.381,0.036,0.746,0.088,1.094,0.156V50.671z"/>
		</g>
	</g>
	<g>
		<polygon fill="#F26522" points="32.75,40.745 52.67,62.416 32.202,85.511 47.854,62.196 		"/>
	</g>
	<g>
		<polygon fill="#F26522" points="7.902,24.322 41.944,62.196 8.23,101.383 30.779,62.196 		"/>
	</g>
</g>
</svg>
